<?xml version="1.0" encoding="UTF-8" standalone="no"?>
<!-- Created with Inkscape (http://www.inkscape.org/) -->

<svg
   xmlns:dc="http://purl.org/dc/elements/1.1/"
   xmlns:cc="http://creativecommons.org/ns#"
   xmlns:rdf="http://www.w3.org/1999/02/22-rdf-syntax-ns#"
   xmlns:svg="http://www.w3.org/2000/svg"
   xmlns="http://www.w3.org/2000/svg"
   version="1.0"
   width="128"
   height="128"
   id="svg2">
  <defs
     id="defs4" />
  <metadata
     id="metadata7">
    <rdf:RDF>
      <cc:Work
         rdf:about="">
        <dc:format>image/svg+xml</dc:format>
        <dc:type
           rdf:resource="http://purl.org/dc/dcmitype/StillImage" />
        <dc:title></dc:title>
      </cc:Work>
    </rdf:RDF>
  </metadata>
  <path
     d="m 64,38.350374 c -7.409882,0.02304 -13.353318,6.498042 -14,12.8 l -18,0 0,6.4 23.6,0 c 0.07885,-8.770118 4.077235,-12.8 8.4,-12.8 4.436422,0 8.321146,3.838669 8.4,12.8 l 23.6,0 0,-6.4 -18,0 c -0.776666,-6.301958 -6.590131,-12.823078 -14,-12.8 z m -32,31.999962 0,6.6 18,0 c 0.646682,6.301965 6.590118,12.57696 14,12.6 7.409869,0.02304 13.223334,-6.298035 14,-12.6 l 18,0 0,-6.6 -23.6,0 c -0.07885,8.961338 -3.963578,12.8 -8.4,12.8 -4.322765,0 -8.321139,-4.029875 -8.4,-12.8 l -23.6,0 z"
     id="path3616" />
</svg>
