<?xml version="1.0" encoding="UTF-8" standalone="no"?>
<!-- Created with Inkscape (http://www.inkscape.org/) -->

<svg
   xmlns:dc="http://purl.org/dc/elements/1.1/"
   xmlns:cc="http://creativecommons.org/ns#"
   xmlns:rdf="http://www.w3.org/1999/02/22-rdf-syntax-ns#"
   xmlns:svg="http://www.w3.org/2000/svg"
   xmlns="http://www.w3.org/2000/svg"
   version="1.0"
   width="128"
   height="128"
   id="svg2">
  <defs
     id="defs4" />
  <metadata
     id="metadata7">
    <rdf:RDF>
      <cc:Work
         rdf:about="">
        <dc:format>image/svg+xml</dc:format>
        <dc:type
           rdf:resource="http://purl.org/dc/dcmitype/StillImage" />
        <dc:title></dc:title>
      </cc:Work>
    </rdf:RDF>
  </metadata>
  <path
     d="m 64,12.8 c -28.14137,0 -51.2,23.058605 -51.2,51.2 0,28.141389 23.05863,51.2 51.2,51.2 28.141389,0 51.4,-23.058611 51.4,-51.2 C 115.4,35.858605 92.141389,12.8 64,12.8 z m 0,5.8 c 24.918106,0 45.8,20.357894 45.8,45.4 0,25.042118 -20.881773,45.4 -45.8,45.4 C 39.081798,109.4 18.6,88.918144 18.6,64 18.6,39.08185 39.081914,18.6 64,18.6 z m -27,16.2 0,2.2 7.4,1.2 0,51.386515 -6.8,1.2 0,2.2 23.8,0 0,-2.2 -8.8,-1.2 0,-21.6 10.4,0 16.2,25 13.6,0 0,-2.2 -6.2,-1.2 -15.4,-22.8 c 1.539392,-0.456128 2.974554,-1.130477 4.4,-2 1.42535,-0.869465 2.716653,-2.088601 3.8,-3.4 1.083258,-1.311334 1.958528,-2.675238 2.6,-4.4 0.641382,-1.724704 0.799949,-4.298099 0.8,-6.493261 -5.1e-5,-2.366118 -0.31584,-5.01168 -1,-6.893254 -0.684237,-1.881478 -1.775091,-3.474323 -3.4,-4.8 -1.624998,-1.325568 -3.706035,-2.287245 -6.4,-3 -2.694042,-0.712646 -6.180403,-0.999942 -10.2,-1 z m 15.6,3.8 7.4,0 c 2.56569,5.1e-5 4.789709,0.20096 6.6,0.6 1.810221,0.399168 3.245389,1.05929 4.4,2 1.154534,0.940813 2.05831,2.260621 2.6,3.8 0.541632,1.539482 0.799955,3.812659 0.8,6.093254 -4.5e-5,2.195162 -0.315392,4.725357 -0.8,6.293261 -0.484672,1.567975 -1.28823,2.787994 -2.4,3.8 -1.111853,1.012064 -2.604032,1.729645 -4.4,2.2 -1.796032,0.4704 -3.977293,0.6 -6.6,0.6 l -7.6,0 z"
     id="path3726"
     style="font-size:224.00001526px;font-style:normal;font-variant:normal;font-weight:normal;font-stretch:normal;line-height:0%;letter-spacing:0.25600001px;word-spacing:0px;fill:#000000;fill-opacity:1;stroke:none;font-family:Liberation Serif;-inkscape-font-specification:Liberation Serif" />
</svg>
