<?xml version="1.0" encoding="UTF-8" standalone="no"?>
<!-- Created with Inkscape (http://www.inkscape.org/) -->

<svg
   xmlns:dc="http://purl.org/dc/elements/1.1/"
   xmlns:cc="http://creativecommons.org/ns#"
   xmlns:rdf="http://www.w3.org/1999/02/22-rdf-syntax-ns#"
   xmlns:svg="http://www.w3.org/2000/svg"
   xmlns="http://www.w3.org/2000/svg"
   xmlns:sodipodi="http://sodipodi.sourceforge.net/DTD/sodipodi-0.dtd"
   xmlns:inkscape="http://www.inkscape.org/namespaces/inkscape"
   version="1.0"
   width="128"
   height="128"
   id="svg2"
   inkscape:version="0.48.5 r10040"
   sodipodi:docname="coloneq2.svgz">
  <sodipodi:namedview
     pagecolor="#ffffff"
     bordercolor="#666666"
     borderopacity="1"
     objecttolerance="10"
     gridtolerance="10"
     guidetolerance="10"
     inkscape:pageopacity="0"
     inkscape:pageshadow="2"
     inkscape:window-width="1118"
     inkscape:window-height="734"
     id="namedview2987"
     showgrid="true"
     inkscape:zoom="4.0390625"
     inkscape:cx="64"
     inkscape:cy="64"
     inkscape:window-x="0"
     inkscape:window-y="0"
     inkscape:window-maximized="0"
     inkscape:current-layer="svg2">
    <inkscape:grid
       type="xygrid"
       id="grid2989" />
  </sodipodi:namedview>
  <defs
     id="defs4" />
  <metadata
     id="metadata7">
    <rdf:RDF>
      <cc:Work
         rdf:about="">
        <dc:format>image/svg+xml</dc:format>
        <dc:type
           rdf:resource="http://purl.org/dc/dcmitype/StillImage" />
        <dc:title></dc:title>
      </cc:Work>
    </rdf:RDF>
  </metadata>
  <path
     d="m 12.8,38.4 c -3.4594304,0 -6.4,2.90969 -6.4,6.6 0,4.381971 3.978304,6.2 6.4,6.2 2.421709,0 6.4,-1.933338 6.4,-6.2 0,-3.574982 -2.940557,-6.6 -6.4,-6.6 z m 25.6,0 c -3.45943,0 -6.4,2.90969 -6.4,6.6 0,4.381971 3.978304,6.2 6.4,6.2 2.421709,0 6.4,-1.933338 6.4,-6.2 0,-3.574982 -2.940557,-6.6 -6.4,-6.6 z m 12.8,12.8 0,6.4 70.4,0 0,-6.4 -70.4,0 z M 12.8,70.4 c -3.4594304,0 -6.4,2.90969 -6.4,6.6 0,4.381971 3.978304,6.2 6.4,6.2 2.421709,0 6.4,-1.933338 6.4,-6.2 0,-3.574982 -2.940557,-6.6 -6.4,-6.6 z m 25.6,0 c -3.45943,0 -6.4,2.90969 -6.4,6.6 0,4.381971 3.978304,6.2 6.4,6.2 2.421709,0 6.4,-1.933338 6.4,-6.2 0,-3.574982 -2.940557,-6.6 -6.4,-6.6 z m 12.8,0 0,6.4 70.4,0 0,-6.4 -70.4,0 z"
     id="path3101"
     inkscape:connector-curvature="0" />
</svg>
