<?xml version="1.0" encoding="UTF-8" standalone="no"?>
<!-- Created with Inkscape (http://www.inkscape.org/) -->

<svg
   xmlns:dc="http://purl.org/dc/elements/1.1/"
   xmlns:cc="http://creativecommons.org/ns#"
   xmlns:rdf="http://www.w3.org/1999/02/22-rdf-syntax-ns#"
   xmlns:svg="http://www.w3.org/2000/svg"
   xmlns="http://www.w3.org/2000/svg"
   version="1.0"
   width="128"
   height="128"
   id="svg2">
  <defs
     id="defs4" />
  <metadata
     id="metadata7">
    <rdf:RDF>
      <cc:Work
         rdf:about="">
        <dc:format>image/svg+xml</dc:format>
        <dc:type
           rdf:resource="http://purl.org/dc/dcmitype/StillImage" />
        <dc:title></dc:title>
      </cc:Work>
    </rdf:RDF>
  </metadata>
  <g
     transform="matrix(8.4758206,0,0,8.4758206,-78.518639,-30.451829)"
     id="text3109"
     style="font-size:14px;font-style:normal;font-variant:normal;font-weight:normal;font-stretch:normal;line-height:125%;letter-spacing:0px;word-spacing:0px;fill:#000000;fill-opacity:1;stroke:none;font-family:euler;-inkscape-font-specification:euler">
    <path
       d="m 13.786133,13.839513 0,-8.3398439 C 13.786132,5.071294 13.925129,4.7124077 14.203125,4.4230089 14.481118,4.1336322 14.832029,3.9228577 15.255859,3.7906847 15.679685,3.658535 16.094398,3.5924544 16.5,3.5924425 c 0.29622,1.19e-5 0.603837,0.035331 0.922852,0.105957 0.319005,0.07065 0.61409,0.1823033 0.885253,0.334961 0.271154,0.1526805 0.489904,0.3532012 0.65625,0.6015625 0.166335,0.2483829 0.249506,0.5366314 0.249512,0.8647461 l 0,1.6679687 c -0.02279,0.1458415 -0.08432,0.2654703 -0.18457,0.3588867 -0.100266,0.093432 -0.225592,0.1401445 -0.375977,0.1401368 -0.141281,7.7e-6 -0.26091,-0.044426 -0.358886,-0.1333008 -0.09799,-0.088859 -0.165207,-0.2107666 -0.201661,-0.3657227 l 0,-1.5722656 C 18.092768,5.276372 17.924149,5.0496469 17.586914,4.9151964 17.24967,4.780767 16.887366,4.713547 16.5,4.7135363 16.112627,4.713547 15.750323,4.780767 15.413086,4.9151964 15.075844,5.0496469 14.907225,5.276372 14.907227,5.5953722 l 0,8.1484378 c -2e-6,0.328126 0.168617,0.559408 0.505859,0.693847 0.337237,0.134441 0.699541,0.201661 1.086914,0.201661 0.387366,0 0.74967,-0.06722 1.086914,-0.201661 0.337235,-0.134439 0.505854,-0.365721 0.505859,-0.693847 l 0,-1.551758 c 0.03645,-0.150387 0.102534,-0.272295 0.198243,-0.365723 0.0957,-0.09342 0.216465,-0.140133 0.362304,-0.140136 0.154942,3e-6 0.281407,0.04786 0.379395,0.143554 0.09798,0.09571 0.15836,0.216475 0.181152,0.362305 l 0,1.647461 c -6e-6,0.432944 -0.137864,0.792969 -0.413574,1.080078 -0.275722,0.28711 -0.625493,0.499023 -1.049316,0.635742 -0.423833,0.136719 -0.840825,0.205078 -1.250977,0.205078 -0.410159,0 -0.827151,-0.06836 -1.250977,-0.205078 -0.42383,-0.136719 -0.773601,-0.348632 -1.049316,-0.635742 -0.275717,-0.287109 -0.413575,-0.647134 -0.413574,-1.080078 z"
       id="path3114" />
  </g>
</svg>
