<?xml version="1.0" encoding="UTF-8" standalone="no"?>
<!-- Created with Inkscape (http://www.inkscape.org/) -->

<svg
   xmlns:dc="http://purl.org/dc/elements/1.1/"
   xmlns:cc="http://creativecommons.org/ns#"
   xmlns:rdf="http://www.w3.org/1999/02/22-rdf-syntax-ns#"
   xmlns:svg="http://www.w3.org/2000/svg"
   xmlns="http://www.w3.org/2000/svg"
   version="1.0"
   width="128"
   height="128"
   id="svg2">
  <defs
     id="defs4" />
  <metadata
     id="metadata7">
    <rdf:RDF>
      <cc:Work
         rdf:about="">
        <dc:format>image/svg+xml</dc:format>
        <dc:type
           rdf:resource="http://purl.org/dc/dcmitype/StillImage" />
        <dc:title></dc:title>
      </cc:Work>
    </rdf:RDF>
  </metadata>
  <path
     d="m 102.4,38.4 c 3.45943,0 6.4,2.90969 6.4,6.6 0,4.381971 -3.9783,6.2 -6.4,6.2 -2.421709,0 -6.4,-1.933338 -6.4,-6.2 0,-3.574982 2.940557,-6.6 6.4,-6.6 z m -12.8,19.2 0,6.4 -70.4,0 0,-6.4 70.4,0 z m 12.8,12.8 c 3.45943,0 6.4,2.90969 6.4,6.6 0,4.381971 -3.9783,6.2 -6.4,6.2 -2.421709,0 -6.4,-1.933338 -6.4,-6.2 0,-3.574982 2.940557,-6.6 6.4,-6.6 z"
     id="path3101" />
</svg>
