<?xml version="1.0" encoding="UTF-8" standalone="no"?>
<!-- Created with Inkscape (http://www.inkscape.org/) -->

<svg
   xmlns:dc="http://purl.org/dc/elements/1.1/"
   xmlns:cc="http://creativecommons.org/ns#"
   xmlns:rdf="http://www.w3.org/1999/02/22-rdf-syntax-ns#"
   xmlns:svg="http://www.w3.org/2000/svg"
   xmlns="http://www.w3.org/2000/svg"
   version="1.0"
   width="128"
   height="128"
   id="svg2">
  <defs
     id="defs4" />
  <metadata
     id="metadata7">
    <rdf:RDF>
      <cc:Work
         rdf:about="">
        <dc:format>image/svg+xml</dc:format>
        <dc:type
           rdf:resource="http://purl.org/dc/dcmitype/StillImage" />
        <dc:title></dc:title>
      </cc:Work>
    </rdf:RDF>
  </metadata>
  <path
     d="m 89.6,38.4 c -3.459443,0 -6.4,3.025018 -6.4,6.6 0,4.266662 3.978291,6.2 6.4,6.2 2.421696,0 6.4,-1.818029 6.4,-6.2 0,-3.69031 -2.94057,-6.6 -6.4,-6.6 z m 25.6,0 c -3.45944,0 -6.4,3.025018 -6.4,6.6 0,4.266662 3.97829,6.2 6.4,6.2 2.4217,0 6.4,-1.818029 6.4,-6.2 0,-3.69031 -2.94057,-6.6 -6.4,-6.6 z M 6.4,57.6 l 0,6.4 70.4,0 0,-6.4 -70.4,0 z m 83.2,12.8 c -3.459443,0 -6.4,3.025018 -6.4,6.6 0,4.266662 3.978291,6.2 6.4,6.2 2.421696,0 6.4,-1.818029 6.4,-6.2 0,-3.69031 -2.94057,-6.6 -6.4,-6.6 z m 25.6,0 c -3.45944,0 -6.4,3.025018 -6.4,6.6 0,4.266662 3.97829,6.2 6.4,6.2 2.4217,0 6.4,-1.818029 6.4,-6.2 0,-3.69031 -2.94057,-6.6 -6.4,-6.6 z"
     id="path3029" />
</svg>
