<?xml version="1.0" encoding="UTF-8" standalone="no"?>
<!-- Created with Inkscape (http://www.inkscape.org/) -->

<svg
   xmlns:dc="http://purl.org/dc/elements/1.1/"
   xmlns:cc="http://creativecommons.org/ns#"
   xmlns:rdf="http://www.w3.org/1999/02/22-rdf-syntax-ns#"
   xmlns:svg="http://www.w3.org/2000/svg"
   xmlns="http://www.w3.org/2000/svg"
   version="1.0"
   width="128"
   height="128"
   id="svg2">
  <defs
     id="defs4" />
  <metadata
     id="metadata7">
    <rdf:RDF>
      <cc:Work
         rdf:about="">
        <dc:format>image/svg+xml</dc:format>
        <dc:type
           rdf:resource="http://purl.org/dc/dcmitype/StillImage" />
        <dc:title></dc:title>
      </cc:Work>
    </rdf:RDF>
  </metadata>
  <g
     transform="matrix(5.7594285,0,0,5.9761807,3.2085761,7.1047629)"
     id="text3204"
     style="font-size:22px;font-style:normal;font-variant:normal;font-weight:normal;font-stretch:normal;text-align:start;line-height:125%;letter-spacing:0px;word-spacing:0px;writing-mode:lr-tb;text-anchor:start;fill:#000000;fill-opacity:1;stroke:none;font-family:msbm10;-inkscape-font-specification:msbm10">
    <path
       d="m 10.009641,16.763663 c -0.9318161,0 -1.782524,-0.231682 -2.5521266,-0.695048 C 6.6879052,15.605251 6.0874054,14.974656 5.6560136,14.176831 5.2246185,13.379009 5.0089218,12.513249 5.0089227,11.579546 5.0089218,10.673725 5.2108139,9.8253843 5.6145997,9.0345212 6.0183825,8.2436727 6.5860963,7.6148204 7.3177428,7.1479625 8.0493828,6.6811228 8.8707561,6.4476984 9.7818647,6.4476886 c 0.7454403,9.8e-6 1.4097823,0.2282082 1.9930343,0.6845961 0.583237,0.4564062 1.019806,1.0329992 1.309712,1.729781 -9e-6,-0.7664607 -0.08284,-1.4998314 -0.248483,-2.2001143 C 12.670464,5.9616879 12.404726,5.304964 12.038912,4.6917779 11.673083,4.0786149 11.210629,3.556023 10.651552,3.1240005 L 6.4480528,5.0575926 c -0.1104392,0.055754 -0.2519362,0.083626 -0.4244917,0.083614 l -0.1242414,0 C 5.809588,5.1412185 5.6991514,5.1237988 5.5680091,5.0889481 5.4368641,5.0541199 5.3712924,5.0088286 5.3712936,4.9530741 l 0,-1.8917846 c -1.2e-6,-0.062698 0.063845,-0.1132151 0.1915388,-0.1515519 0.1276911,-0.03831 0.2398533,-0.057472 0.3364873,-0.057485 l 0.1242414,0 c 0.1035326,1.34e-5 0.219146,0.019175 0.3468406,0.057485 0.1276903,0.038337 0.1915365,0.088854 0.191539,0.1515519 l 0,1.24377 3.4891133,-1.5991329 C 8.8707561,1.9603757 7.5006504,1.5875933 5.9407336,1.5875786 5.8302949,1.5875933 5.7750765,1.5248824 5.7750783,1.3994453 l 0,-0.2612961 c -1.8e-6,-0.1114712 0.069021,-0.16721435 0.207069,-0.16722965 0.8696874,1.53e-5 1.7307487,0.11150155 2.5831866,0.33445925 0.852429,0.2229875 1.6548211,0.5469945 2.4071721,0.9720219 l 2.598717,-1.2019626 c 0.151842,-0.055728 0.286436,-0.0836 0.403785,-0.083615 l 0.134595,0 c 0.09662,1.53e-5 0.208785,0.0191769 0.336487,0.057485 0.127683,0.038339 0.191529,0.088856 0.19154,0.1515519 l 0,1.8813328 c -1.1e-5,0.062725 -0.06558,0.1114995 -0.196717,0.1463259 -0.131153,0.034853 -0.24159,0.052272 -0.33131,0.052259 l -0.134595,0 c -0.08974,1.31e-5 -0.200176,-0.017406 -0.33131,-0.052259 -0.131154,-0.034827 -0.196726,-0.083602 -0.196717,-0.1463259 l 0,-1.2333182 -1.842913,0.8256961 c 0.510762,0.3553761 0.969765,0.75603 1.377009,1.2019627 0.407226,0.4459575 0.762695,0.9371939 1.066405,1.4737107 0.303692,0.5365387 0.53837,1.097454 0.704035,1.6827477 C 14.917162,7.618304 14.999989,8.2279946 15,8.8620654 c -1.1e-5,1.0103522 -0.07077,1.9423076 -0.212245,2.7958696 -0.141508,0.853571 -0.391717,1.642686 -0.750626,2.367344 -0.262297,0.53653 -0.593608,1.013831 -0.993931,1.431903 -0.400343,0.418075 -0.859345,0.74034 -1.37701,0.966796 -0.51768,0.226456 -1.069861,0.339685 -1.656547,0.339685 z M 7.5765791,14.819619 c 0.5659848,0.843117 1.3701022,1.264674 2.4123545,1.264674 0.5521764,0 1.0215284,-0.135874 1.4080644,-0.407622 0.386521,-0.271747 0.700576,-0.62711 0.942165,-1.066088 0.241571,-0.438976 0.415855,-0.904083 0.52285,-1.395322 0.106976,-0.491233 0.160469,-1.005115 0.160477,-1.541648 -8e-6,-0.02787 -0.0018,-0.04877 -0.0053,-0.06271 -0.0035,-0.01393 -0.0087,-0.03135 -0.01552,-0.05226 0.01379,-0.111481 0.0207,-0.289162 0.0207,-0.533044 -10e-6,-0.487751 -0.06385,-0.96331 -0.191539,-1.4266809 C 12.703251,9.1355629 12.506535,8.7087795 12.240805,8.3185696 11.975058,7.9283756 11.642022,7.6113365 11.241697,7.3674513 10.841356,7.123584 10.389261,7.0016459 9.8853992,7.0016365 8.7465147,7.0016459 7.8975324,7.5451415 7.3384497,8.6321251 7.1451822,9.064142 7.0261176,9.4944094 6.9812556,9.9229288 c -0.044868,0.4285302 -0.0673,0.9807362 -0.067297,1.6566172 -2.9e-6,0.759505 0.036235,1.384874 0.1087112,1.876107 0.072471,0.491239 0.2571075,0.945894 0.5539097,1.363966 z"
       id="path3233" />
  </g>
</svg>
