<?xml version="1.0" encoding="UTF-8" standalone="no"?>
<!-- Created with Inkscape (http://www.inkscape.org/) -->

<svg
   xmlns:dc="http://purl.org/dc/elements/1.1/"
   xmlns:cc="http://creativecommons.org/ns#"
   xmlns:rdf="http://www.w3.org/1999/02/22-rdf-syntax-ns#"
   xmlns:svg="http://www.w3.org/2000/svg"
   xmlns="http://www.w3.org/2000/svg"
   version="1.0"
   width="128"
   height="128"
   id="svg2">
  <defs
     id="defs4">
    <linearGradient
       id="linearGradient3877">
      <stop
         id="stop3879"
         style="stop-color:#0000ff;stop-opacity:1"
         offset="0" />
    </linearGradient>
    <linearGradient
       id="linearGradient3877-4">
      <stop
         id="stop3879-7"
         style="stop-color:#0000ff;stop-opacity:1"
         offset="0" />
    </linearGradient>
  </defs>
  <metadata
     id="metadata7">
    <rdf:RDF>
      <cc:Work
         rdf:about="">
        <dc:format>image/svg+xml</dc:format>
        <dc:type
           rdf:resource="http://purl.org/dc/dcmitype/StillImage" />
        <dc:title></dc:title>
      </cc:Work>
    </rdf:RDF>
  </metadata>
  <g
     id="layer1">
    <g
       transform="translate(94.6653,-29.75048)"
       id="layer4"
       style="display:inline" />
    <g
       transform="translate(94.6653,-29.75048)"
       id="layer5"
       style="display:inline" />
    <rect
       width="1"
       height="0"
       x="8.1959171"
       y="-91.28315"
       id="rect1327"
       style="opacity:0.57786889;fill:#ffffff;fill-opacity:1;fill-rule:nonzero;stroke:none" />
    <rect
       width="1"
       height="0"
       x="-26.930899"
       y="-118.81076"
       id="rect2482"
       style="opacity:0.57786889;fill:#ffffff;fill-opacity:1;fill-rule:nonzero;stroke:none" />
    <g
       transform="matrix(-0.782995,0,0,0.650879,-2508.727,494.4908)"
       id="g4640"
       style="opacity:0.40163933" />
    <g
       transform="matrix(-0.782995,0,0,0.650879,-2508.727,494.4908)"
       id="g4646"
       style="opacity:0.40163933" />
    <g
       transform="matrix(1,0,0,0.650879,692.2361,501.8186)"
       id="g4730"
       style="opacity:0.40163933" />
    <g
       transform="matrix(1,0,0,0.650879,692.2361,501.8186)"
       id="g4748"
       style="opacity:0.40163933" />
    <rect
       width="0"
       height="116.36363"
       x="19.75"
       y="19.886364"
       id="rect3244"
       style="opacity:0.73000004;fill:#e5ff00;fill-opacity:1;stroke:none" />
    <text
       x="3.75"
       y="70.5"
       id="text3796"
       xml:space="preserve"
       style="font-size:72px;font-style:normal;font-weight:normal;line-height:125%;fill:#800000;fill-opacity:1;stroke:none;font-family:Bitstream Vera Sans"><tspan
         x="3.75"
         y="70.5"
         id="tspan3798"
         style="font-size:70px;font-style:normal;font-variant:normal;font-weight:bold;font-stretch:normal;text-align:start;line-height:125%;writing-mode:lr-tb;text-anchor:start;fill:#800000;font-family:Garamond;-inkscape-font-specification:Garamond Bold" /></text>
    <text
       x="34.75"
       y="91.75"
       id="text3800"
       xml:space="preserve"
       style="font-size:12px;font-style:normal;font-weight:normal;line-height:125%;fill:#800000;fill-opacity:1;stroke:none;font-family:Bitstream Vera Sans"><tspan
         x="34.75"
         y="91.75"
         id="tspan3802"
         style="font-size:70px;font-style:normal;font-variant:normal;font-weight:bold;font-stretch:normal;text-align:start;line-height:125%;writing-mode:lr-tb;text-anchor:start;fill:#800000;font-family:Garamond;-inkscape-font-specification:Garamond Bold" /></text>
    <text
       x="73.646484"
       y="70.957031"
       id="text3804"
       xml:space="preserve"
       style="font-size:72px;font-style:normal;font-weight:normal;line-height:125%;fill:#800000;fill-opacity:1;stroke:none;font-family:Bitstream Vera Sans"><tspan
         x="73.646484"
         y="70.957031"
         id="tspan3806"
         style="font-size:70px;font-style:normal;font-variant:normal;font-weight:bold;font-stretch:normal;text-align:start;line-height:125%;writing-mode:lr-tb;text-anchor:start;fill:#800000;font-family:Garamond;-inkscape-font-specification:Garamond Bold" /></text>
    <text
       x="77.75"
       y="55.5"
       id="text3099"
       xml:space="preserve"
       style="font-size:40px;font-style:normal;font-weight:normal;line-height:0%;letter-spacing:0px;word-spacing:0px;fill:#000000;fill-opacity:1;stroke:none;font-family:Sans"><tspan
         x="77.75"
         y="55.5"
         id="tspan3101" /></text>
    <g
       transform="matrix(6.3999955,0,0,6.3999955,0.0120408,0)"
       id="text40730"
       style="font-size:12px;font-style:normal;font-variant:normal;font-weight:normal;font-stretch:normal;text-align:start;line-height:125%;letter-spacing:0px;word-spacing:0px;writing-mode:lr-tb;text-anchor:start;fill:#000000;fill-opacity:1;stroke:none;font-family:Consolas;-inkscape-font-specification:Consolas">
      <path
         d="m 5.0243587,3.1322265 c -5.9e-6,0.1445344 -0.00196,0.4727843 -0.00586,0.5704376 -0.00391,0.097659 -0.00977,0.1894558 -0.017578,0.2753906 l -3.9668838,0 c 0.026631,0.4084751 0.1863992,0.5698543 0.290842,0.6898902 0.4163829,0.4785485 1.0733232,0.5766147 1.7061388,0.5766139 0.1718711,8e-7 0.3437459,-0.00684 0.515625,-0.020508 0.1718706,-0.013671 0.337886,-0.032226 0.4980468,-0.055664 0.1601514,-0.023437 0.3134716,-0.049804 0.459961,-0.079102 0.146479,-0.029296 0.2822211,-0.061522 0.4072265,-0.09668 l 0,0.8378906 C 4.6345285,5.9086214 4.3210522,5.9720979 3.9714478,6.020926 3.6218342,6.069754 3.2595298,6.0941681 2.8845338,6.0941682 2.3806245,6.0941681 1.9470312,6.0258088 1.5837525,5.8890901 1.2204694,5.7523715 0.92261813,5.5541296 0.69019783,5.2943635 0.45777486,5.0345988 0.28590004,4.7162398 0.17457287,4.3392854 0.06324401,3.9623343 0.00758,3.5355769 0.00758069,3.0590119 0.00758,2.6449528 0.06715025,2.2533516 0.18629162,1.8842072 0.30543127,1.5150711 0.47925923,1.1908527 0.70777603,0.911551 0.93629003,0.63225948 1.2165631,0.41058001 1.5485963,0.24651194 1.880625,0.08245534 2.2575777,4.2417447e-4 2.6794557,4.1818619e-4 3.0896081,4.2417447e-4 3.3022299,0.06487724 3.6186403,0.19377756 3.9350418,0.32268948 4.1483771,0.50530648 4.365179,0.74162912 4.5819704,0.97796226 4.7460327,1.2650713 4.8573665,1.6029572 4.9686888,1.9408519 5.0243528,2.7142614 5.0243587,3.1322265 z M 4.0170778,2.9857421 C 4.0287917,2.724027 4.0034011,2.2587808 3.9409059,2.04198 3.8784012,1.8251875 3.7817216,1.6386642 3.6508669,1.4824097 3.5200031,1.3261645 3.3569174,1.2040943 3.1616091,1.1161988 2.9662928,1.0283133 2.797174,0.98436802 2.5393651,0.98436284 2.3167057,0.98436802 2.1135809,1.0273367 1.9299901,1.1132691 1.7463938,1.1992115 1.5881908,1.3203051 1.4553807,1.4765503 1.3225661,1.6328048 1.2151443,1.8203046 1.1331151,2.0390503 1.051082,2.2578042 1.0003008,2.724027 0.98077132,2.9857421 z"
         id="path40801" />
      <path
         d="m 11.776163,5.9886994 -1.353515,0 -1.5878913,-2.2441406 -1.5703125,2.2441406 -1.3183594,0 2.2792969,-2.953125 -2.1738281,-2.92968746 1.3066406,0 1.546875,2.26171876 1.5175788,-2.26171876 1.259765,0 -2.2089842,2.95312496 z"
         id="path40803" />
      <path
         d="m 18.053651,2.9418244 c -6e-6,0.5234401 -0.07325,0.9804709 -0.219727,1.3710938 -0.14649,0.3906263 -0.348638,0.7148447 -0.606445,0.9726562 -0.257818,0.257813 -0.562505,0.4511722 -0.914063,0.5800782 -0.351566,0.1289062 -0.732425,0.1933593 -1.142578,0.1933593 -0.187503,0 -0.374026,-0.00977 -0.55957,-0.029297 -0.185549,-0.019531 -0.374026,-0.052734 -0.56543,-0.099609 l 0,2.4609375 -1.019531,0 0,-8.28515626 0.908203,0 0.06445,0.98437496 C 14.291927,0.68792369 14.604426,0.40569741 14.93646,0.24358245 15.268488,0.08147898 15.627863,4.2437447e-4 16.014585,4.1838619e-4 16.350518,4.2437447e-4 16.64544,0.0707368 16.899351,0.21135589 c 0.253901,0.14063063 0.466791,0.33887262 0.638672,0.59472656 0.171869,0.25586435 0.300775,0.56445775 0.386718,0.92578125 0.08593,0.361332 0.128901,0.7646519 0.12891,1.2099607 z m -1.042969,0.046875 C 17.010677,2.680109 16.988216,2.3969062 16.943299,2.1390901 16.898372,1.8812817 16.827083,1.6605788 16.729432,1.4769807 16.631771,1.2933916 16.506771,1.1498371 16.354432,1.0463166 16.202084,0.94280604 16.020443,0.89104828 15.80951,0.89104319 c -0.12891,5.09e-6 -0.259769,0.0205129 -0.392578,0.0615234 -0.132816,0.0410206 -0.270511,0.10938001 -0.413086,0.20507811 -0.142581,0.095708 -0.292972,0.2226609 -0.451172,0.3808594 -0.158205,0.1582074 -0.327151,0.3544963 -0.506836,0.5888672 l 0,2.8535156 c 0.187498,0.078126 0.384763,0.1396493 0.591797,0.1845703 0.207028,0.044923 0.410153,0.067384 0.609375,0.067383 0.550777,7e-7 0.982418,-0.1865225 1.294922,-0.5595704 0.312495,-0.3730451 0.468745,-0.934568 0.46875,-1.6845704 z"
         id="path40805" />
    </g>
    <g
       transform="matrix(6.3999955,0,0,6.3999955,0.0120408,-6.508469)"
       id="text40734"
       style="font-size:12px;font-style:normal;font-variant:normal;font-weight:normal;font-stretch:normal;text-align:start;line-height:125%;letter-spacing:0px;word-spacing:0px;writing-mode:lr-tb;text-anchor:start;fill:#000000;fill-opacity:1;stroke:none;font-family:Consolas;-inkscape-font-specification:Consolas">
      <path
         d="m 8.0619185,16.942451 c -0.2304742,0.05859 -0.4687552,0.100586 -0.7148438,0.125977 -0.2460984,0.02539 -0.4960982,0.03809 -0.75,0.03809 -0.7382847,0 -0.9673895,-0.209828 -1.2191987,-0.500977 -0.2719234,-0.314405 -0.3754304,-0.846682 -0.3754304,-1.53809 l 0,-3.070312 -1.6464844,0 0,-0.968463 1.6464844,0 0,-1.6171877 1.0195312,-0.2636718 0,1.8808595 2.0399417,0 0,0.968463 -2.0399417,0 0,2.988281 c 0,0.421877 -6.928e-4,0.859717 0.1297578,1.021619 0.1588386,0.139982 0.1776425,0.228275 0.5976839,0.238147 0.1874436,0.0044 0.3925733,-0.01465 0.6152343,-0.04395 0.2226511,-0.0293 0.4550727,-0.0752 0.6972657,-0.137696 z"
         id="path40808" />
      <path
         d="m 13.052313,17.024483 -0.02389,-0.791016 c -0.326534,0.316407 -0.65804,0.544922 -0.99452,0.685547 -0.336489,0.140625 -0.689896,0.210937 -1.060225,0.210937 -0.34246,0 -0.635142,-0.04297 -0.878045,-0.128906 C 9.8527228,16.915108 9.6526243,16.770311 9.4953342,16.61992 9.3380415,16.46953 9.2159035,16.262908 9.1422362,16.059783 9.0685672,15.856659 9.0184166,15.485297 9.0184174,15.247014 c -8e-7,-0.589841 0.2439649,-1.127085 0.6919483,-1.461072 0.4479803,-0.333981 1.1100993,-0.514255 1.9860543,-0.500977 l 1.298902,0 0,-0.515625 c -0.106536,-0.31436 -0.113493,-0.343485 -0.340467,-0.552474 -0.226982,-0.20898 -0.629918,-0.313472 -1.095815,-0.313477 -0.33848,5e-6 -0.671977,0.03711 -1.000495,0.111328 -0.328521,0.07422 -0.6679925,0.179692 -1.0184126,0.316406 l 0,-0.919922 c 0.1314067,-0.04687 0.2777475,-0.09277 0.4390229,-0.137695 0.1612717,-0.04492 0.3315047,-0.08495 0.5107007,-0.120117 0.179189,-0.03515 0.366346,-0.06347 0.56147,-0.08496 0.195118,-0.02148 0.39223,-0.03222 0.591337,-0.03223 0.362364,6e-6 0.688893,0.03907 0.979587,0.117188 0.290687,0.07813 0.536579,0.197271 0.737678,0.357422 0.201089,0.160161 0.355394,0.361333 0.462916,0.603515 0.107509,0.242193 0.161267,0.527349 0.161273,0.855469 l 0,4.054688 z m -0.05699,-2.960221 -1.376552,0 c -0.258837,3e-6 -0.481833,0.02539 -0.668987,0.07617 -0.187159,0.05078 -0.340468,0.12305 -0.459927,0.216797 -0.119465,0.09375 -0.283396,0.206057 -0.341134,0.336914 -0.05774,0.130861 -0.124274,0.353652 -0.124274,0.517713 -2e-6,0.113283 0.05558,0.37234 0.09141,0.475854 0.03583,0.103517 0.16891,0.251811 0.24855,0.331888 0.07964,0.08008 0.183174,0.143555 0.310602,0.19043 0.127424,0.04687 0.282724,0.07031 0.465901,0.07031 0.238921,1e-6 0.512688,-0.07129 0.821301,-0.213867 0.308607,-0.142577 0.690636,-0.368163 1.033099,-0.676758 z"
         id="path40810" />
      <path
         d="m 15.01501,11.14167 0.908204,0 0.04102,1.137543 c 0.171873,-0.20312 0.601542,-0.560389 0.7617,-0.69516 0.160154,-0.13476 0.31738,-0.243158 0.47168,-0.325195 0.154294,-0.08203 0.31152,-0.139643 0.471679,-0.172852 0.160153,-0.0332 0.326169,-0.0498 0.498047,-0.0498 0.605465,6e-6 1.063472,0.178717 1.374024,0.536133 0.310541,0.357427 0.465814,0.895513 0.46582,1.614258 l 0,3.837891 -1.019531,0 0,-3.75586 c -5e-6,-0.460933 -0.08594,-0.801753 -0.257813,-1.022461 -0.171879,-0.220698 -0.427738,-0.331049 -0.767578,-0.331054 -0.125003,5e-6 -0.247074,0.01856 -0.366211,0.05566 -0.119144,0.03711 -0.243167,0.101567 -0.37207,0.193359 -0.128909,0.0918 -0.268557,0.215825 -0.418945,0.37207 -0.150393,0.156255 -0.582991,0.539891 -0.770489,0.774262 l 0,3.71402 -1.019532,0 z"
         id="path40812" />
    </g>
  </g>
</svg>
