<?xml version="1.0" encoding="UTF-8" standalone="no"?>
<!-- Created with Inkscape (http://www.inkscape.org/) -->

<svg
   xmlns:dc="http://purl.org/dc/elements/1.1/"
   xmlns:cc="http://creativecommons.org/ns#"
   xmlns:rdf="http://www.w3.org/1999/02/22-rdf-syntax-ns#"
   xmlns:svg="http://www.w3.org/2000/svg"
   xmlns="http://www.w3.org/2000/svg"
   version="1.0"
   width="128"
   height="128"
   id="svg2">
  <defs
     id="defs4" />
  <metadata
     id="metadata7">
    <rdf:RDF>
      <cc:Work
         rdf:about="">
        <dc:format>image/svg+xml</dc:format>
        <dc:type
           rdf:resource="http://purl.org/dc/dcmitype/StillImage" />
        <dc:title></dc:title>
      </cc:Work>
    </rdf:RDF>
  </metadata>
  <g
     transform="matrix(-5.9583402,0,0,5.9596784,127.3659,0.54027645)"
     id="text3320"
     style="font-size:16px;font-style:normal;font-variant:normal;font-weight:bold;font-stretch:normal;text-align:start;line-height:125%;letter-spacing:0px;word-spacing:0px;writing-mode:lr-tb;text-anchor:start;fill:#000000;fill-opacity:1;stroke:none;font-family:msbm10;-inkscape-font-specification:msbm10 Bold" />
  <path
     d="m 16.62304,32 c -2.583776,5.8e-5 -4.969914,1.658893 -7,4.6 -2.0301056,2.94121 -3.6928128,6.642861 -5.2,11.2 -1.5071936,4.557222 -3.061984,9.543949 -4.4,15.2 -0.06144,0.387904 0,0.806093 0,1 1.28e-5,0.775718 0.06016,1.179885 0.6,1.6 0.9903168,0.461568 1.7231104,0.628544 2.6,0.4 0.534464,-0.22848 0.6404352,-0.552704 1,-1.4 2.1377472,-8.952736 4.308448,-15.693325 6.6,-20.8 2.291539,-5.106586 3.968813,-6.999949 5.8,-7 0.04928,0.04096 0.147712,1.3e-5 0.2,0 2.405677,0.360576 3.4008,2.606682 5.6,9.2 -3.337363,10.988992 -6.6,21.406918 -6.6,31.2 0,4.912723 0.59136,9.200838 1.8,13 1.545478,4.10649 4.382662,5.799987 7,5.8 2.597338,-1.3e-5 5.66135,-2.018509 7,-5.8 0.334656,-0.937293 0.561408,-1.989984 0.8,-3 0.224576,0.986797 0.505024,2.072781 0.8,3 1.545478,4.10649 4.382662,5.799987 7,5.8 2.597338,-1.3e-5 5.66135,-2.018509 7,-5.8 0.459648,-1.28745 0.718707,-2.775347 1,-4.2 0.273728,1.407213 0.589568,2.909792 1,4.2 1.545478,4.10649 4.382662,5.799987 7,5.8 2.597338,-1.3e-5 5.46135,-2.018509 6.8,-5.8 0.459712,-1.28745 0.718707,-2.775347 1,-4.2 0.273728,1.407213 0.589568,2.909792 1,4.2 1.545478,4.10649 4.382662,5.799987 7,5.8 2.597338,-1.3e-5 5.461382,-2.018509 6.8,-5.8 0.459648,-1.28745 0.718714,-2.775347 1,-4.2 0.273728,1.407213 0.589568,2.909792 1,4.2 1.545478,4.10649 4.182662,5.799987 6.8,5.8 2.597338,-1.3e-5 5.661382,-2.018509 7,-5.8 0.459648,-1.28745 0.718714,-2.775347 1,-4.2 0.27328,1.40231 0.390848,2.913926 0.8,4.2 1.545478,4.10649 4.38266,5.799987 7,5.8 2.59734,-1.3e-5 5.66138,-2.018509 7,-5.8 1.33861,-3.749165 1.79998,-8.087277 1.8,-13 -2e-5,-9.696115 -3.09343,-20.114048 -6.4,-31.2 2.15312,-6.593325 3.43504,-9.154752 5.4,-9.2 0.0378,0.01152 0.16154,6e-6 0.2,0 1.83119,5.1e-5 3.50846,1.893414 5.8,7 2.29155,5.106675 4.46225,11.847264 6.6,20.8 0.35955,0.84727 0.66549,1.171494 1.2,1.4 0.87689,0.228544 1.40968,0.06144 2.4,-0.4 0.5401,-0.420096 0.6,-0.824282 0.6,-1.6 0,-0.19392 0.0614,-0.612096 0,-1 -1.33802,-5.656051 -2.89281,-10.642778 -4.4,-15.2 -1.50719,-4.557139 -3.16989,-8.25879 -5.2,-11.2 -2.03009,-2.941107 -4.41622,-4.599942 -7,-4.6 -0.0397,-0.01024 -0.15814,6e-6 -0.2,0 -1.58407,5.8e-5 -4.15086,0.439616 -5.8,2.4 -1.05823,1.532678 -0.4704,0.586944 -2,3.4 -0.93884,-1.79904 -1.12765,-2.614054 -2.2,-3.8 -2.052192,-1.952563 -4.000531,-1.999942 -5.6,-2 -0.03968,-0.01024 -0.158144,6e-6 -0.2,0 -1.58407,5.8e-5 -3.950861,0.439616 -5.6,2.4 -1.058234,1.532678 -0.670394,0.586944 -2.2,3.4 -0.938842,-1.79904 -1.127654,-2.614054 -2.2,-3.8 -2.052192,-1.952563 -4.000531,-1.999942 -5.6,-2 -0.03968,-0.01024 -0.158144,6e-6 -0.2,0 -1.58407,5.8e-5 -3.950861,0.439616 -5.6,2.4 -1.058234,1.532678 -0.4704,0.586944 -2,3.4 -0.938842,-1.79904 -1.327654,-2.614054 -2.4,-3.8 -2.052192,-1.952563 -4.000531,-1.999942 -5.6,-2 -1.584109,5.8e-5 -4.150861,0.439616 -5.8,2.4 -1.058234,1.532678 -0.4704,0.586944 -2,3.4 -0.938848,-1.79904 -1.327654,-2.614054 -2.4,-3.8 -2.052192,-1.952563 -4.000531,-1.999942 -5.6,-2 -0.03968,-0.01024 -0.158144,6e-6 -0.2,0 -1.584109,5.8e-5 -4.150861,0.439616 -5.8,2.4 -1.058234,1.532678 -0.4704,0.586944 -2,3.4 -0.938848,-1.79904 -1.127654,-2.614054 -2.2,-3.8 -2.052192,-1.952563 -4.000531,-1.999942 -5.6,-2 -1.584109,5.8e-5 -4.150861,0.439616 -5.8,2.4 -1.058234,1.532678 -0.4704,0.586944 -2,3.4 -0.938848,-1.79904 -1.127654,-2.614054 -2.2,-3.8 -2.052192,-1.952563 -4.000531,-1.999942 -5.6,-2 -0.0416,-0.01088 -0.156416,6e-6 -0.2,0 z m 15.8,4.8 c 2.405677,0.360576 3.4008,2.606682 5.6,9.2 -2.261606,7.446829 -4.415866,14.502374 -5.6,21.4 -1.182778,-6.833632 -3.173843,-13.936397 -5.4,-21.4 2.15312,-6.593325 3.434995,-9.154752 5.4,-9.2 z m 15.6,0 c 0.0608,0.06144 0.134656,1.3e-5 0.2,0 2.405677,0.360576 3.4008,2.606682 5.6,9.2 -2.346995,7.728 -4.452282,15.063456 -5.6,22.2 -1.14759,-7.071866 -3.288019,-14.448659 -5.6,-22.2 2.15312,-6.593325 3.434995,-9.154752 5.4,-9.2 z m 16,0 c 2.405677,0.360576 3.4008,2.606682 5.6,9.2 -2.304947,7.589549 -4.433267,14.780909 -5.6,21.8 -1.166643,-6.95056 -3.331808,-14.195456 -5.6,-21.8 2.15312,-6.593325 3.634995,-9.154752 5.6,-9.2 z m 15.6,0 c 0.04928,0.04096 0.147712,1.3e-5 0.2,0 2.405677,0.360576 3.4008,2.606682 5.6,9.2 -2.282842,7.516749 -4.424122,14.64281 -5.6,21.6 -1.174694,-6.894042 -3.352154,-14.063648 -5.6,-21.6 2.15312,-6.593325 3.43504,-9.154752 5.4,-9.2 z m 15.8,0 c 0.04928,0.04096 0.147712,1.3e-5 0.2,0 2.405677,0.360576 3.4008,2.606682 5.6,9.2 -2.282842,7.516749 -4.424122,14.64281 -5.6,21.6 -1.174694,-6.894042 -3.352154,-14.063648 -5.6,-21.6 2.15312,-6.593325 3.43504,-9.154752 5.4,-9.2 z m -70.8,16.4 c 2.840634,9.918323 4.399981,15.402778 4.4,24 -1.9e-5,4.233997 -0.947392,8.788006 -1.4,10.4 -0.516416,1.839264 -1.36169,3.8 -3,3.8 -0.94889,0 -1.530541,-0.53088 -2.2,-1.6 -0.745395,-1.564371 -1.002842,-2.546963 -1.4,-5.2 -0.339584,-2.269754 -0.6,-4.749709 -0.6,-7.4 -1.3e-5,-4.589485 0.673562,-8.998138 1.6,-13.8 0.975475,-4.348691 1.205146,-5.204416 2.6,-10.2 z m 15.6,0 c 2.840634,9.918323 4.399981,15.402778 4.4,24 -1.9e-5,4.233997 -0.947392,8.788006 -1.4,10.4 -0.516416,1.839264 -1.36169,3.8 -3,3.8 -0.94889,0 -1.530541,-0.53088 -2.2,-1.6 -0.745395,-1.564371 -1.002842,-2.546963 -1.4,-5.2 -0.339584,-2.269754 -0.6,-4.749709 -0.6,-7.4 -1.3e-5,-4.589485 0.673562,-8.998138 1.6,-13.8 0.975475,-4.348691 1.205146,-5.204416 2.6,-10.2 z m 16,0 c 2.840634,9.918323 4.199981,15.402778 4.2,24 -1.9e-5,4.233997 -0.747392,8.788006 -1.2,10.4 -0.516416,1.839264 -1.36169,3.8 -3,3.8 -0.94889,0 -1.730541,-0.53088 -2.4,-1.6 -0.745395,-1.564371 -1.002842,-2.546963 -1.4,-5.2 -0.339584,-2.269754 -0.4,-4.749709 -0.4,-7.4 -1.3e-5,-4.589485 0.473536,-8.998138 1.4,-13.8 0.975475,-4.348691 1.405146,-5.204416 2.8,-10.2 z m 15.8,0 c 2.840634,9.918323 4.199981,15.402778 4.2,24 -1.9e-5,4.233997 -0.747392,8.788006 -1.2,10.4 -0.516416,1.839264 -1.36169,3.8 -3,3.8 -0.94889,0 -1.730541,-0.53088 -2.4,-1.6 -0.745402,-1.564371 -1.002816,-2.546963 -1.4,-5.2 -0.339584,-2.269754 -0.4,-4.749709 -0.4,-7.4 -1.3e-5,-4.589485 0.473536,-8.998138 1.4,-13.8 0.975482,-4.348691 1.405146,-5.204416 2.8,-10.2 z m 15.6,0 c 2.840634,9.918323 4.399981,15.402778 4.4,24 -1.9e-5,4.233997 -0.747392,8.788006 -1.2,10.4 -0.516416,1.839264 -1.56169,3.8 -3.2,3.8 -0.94889,0 -1.530541,-0.53088 -2.2,-1.6 -0.745402,-1.564371 -1.002816,-2.546963 -1.4,-5.2 -0.339584,-2.269754 -0.4,-4.749709 -0.4,-7.4 -1.3e-5,-4.589485 0.473536,-8.998138 1.4,-13.8 0.975482,-4.348691 1.205146,-5.204416 2.6,-10.2 z m 15.8,0 c 2.84063,9.918323 4.39998,15.402778 4.4,24 -2e-5,4.233997 -0.74739,8.788006 -1.2,10.4 -0.51642,1.839264 -1.56169,3.8 -3.2,3.8 -0.94889,0 -1.53054,-0.53088 -2.2,-1.6 -0.7454,-1.564371 -1.00282,-2.546963 -1.4,-5.2 -0.339584,-2.269754 -0.6,-4.749709 -0.6,-7.4 -1.3e-5,-4.589485 0.673562,-8.998138 1.6,-13.8 0.97548,-4.348691 1.20515,-5.204416 2.6,-10.2 z"
     id="path4168"
     style="font-size:20px;font-style:normal;font-variant:normal;font-weight:normal;font-stretch:normal;text-align:start;line-height:125%;letter-spacing:0px;word-spacing:0px;writing-mode:lr-tb;text-anchor:start;fill:#000000;fill-opacity:1;stroke:none;font-family:wasy10;-inkscape-font-specification:wasy10" />
</svg>
