<?xml version="1.0" encoding="UTF-8" standalone="no"?>
<!-- Created with Inkscape (http://www.inkscape.org/) -->

<svg
   xmlns:dc="http://purl.org/dc/elements/1.1/"
   xmlns:cc="http://creativecommons.org/ns#"
   xmlns:rdf="http://www.w3.org/1999/02/22-rdf-syntax-ns#"
   xmlns:svg="http://www.w3.org/2000/svg"
   xmlns="http://www.w3.org/2000/svg"
   version="1.0"
   width="128"
   height="128"
   id="svg2">
  <defs
     id="defs4" />
  <metadata
     id="metadata7">
    <rdf:RDF>
      <cc:Work
         rdf:about="">
        <dc:format>image/svg+xml</dc:format>
        <dc:type
           rdf:resource="http://purl.org/dc/dcmitype/StillImage" />
        <dc:title></dc:title>
      </cc:Work>
    </rdf:RDF>
  </metadata>
  <path
     d="m 28.8,10 0,7 52,24.4 -52,24.4 0,7 64,-30 0,-2.4 L 28.8,10 z M 47,76.8 C 29.421638,76.8 25.6,93 25.6,93 l 2.8,1.2 c 0,-0.246016 4.664211,-11 16.2,-11 6.866451,0 11.244154,4.309318 16.6,8 L 55,97 c -2.334605,-0.861178 -4.978765,-1.6 -8,-1.6 -17.578362,0 -21.4,16.4 -21.4,16.4 l 2.8,1 c 0,-0.24602 4.664211,-11 16.2,-11 1.647968,0 3.026733,0.3079 4.4,0.8 l -13,12.2 9.4,0 9.6,-9.2 c 6.042605,3.93676 11.312179,9.6 21.2,9.6 16.617062,0 19.8,-14 19.8,-14 L 92.6,100 c 0,0.24602 -3.774822,9 -13.8,9 -7.003808,0 -12.232102,-4.78631 -18,-8.6 L 67,94.6 c 2.609306,1.107206 5.492128,2 9.2,2 C 92.817062,96.6 96,82.4 96,82.4 l -3.4,-1.2 c 0,0.245952 -3.774822,9.2 -13.8,9.2 -2.059898,0 -4.014682,-0.661798 -5.8,-1.4 l 12.6,-11.8 -9.4,0 -9.2,8.6 c -5.90512,-3.936672 -11.485568,-9 -20,-9 z"
     id="path4906" />
</svg>
