<?xml version="1.0" encoding="UTF-8" standalone="no"?>
<!-- Created with Inkscape (http://www.inkscape.org/) -->

<svg
   xmlns:dc="http://purl.org/dc/elements/1.1/"
   xmlns:cc="http://creativecommons.org/ns#"
   xmlns:rdf="http://www.w3.org/1999/02/22-rdf-syntax-ns#"
   xmlns:svg="http://www.w3.org/2000/svg"
   xmlns="http://www.w3.org/2000/svg"
   version="1.0"
   width="128"
   height="128"
   id="svg2">
  <defs
     id="defs4" />
  <metadata
     id="metadata7">
    <rdf:RDF>
      <cc:Work
         rdf:about="">
        <dc:format>image/svg+xml</dc:format>
        <dc:type
           rdf:resource="http://purl.org/dc/dcmitype/StillImage" />
        <dc:title></dc:title>
      </cc:Work>
    </rdf:RDF>
  </metadata>
  <path
     d="m 32,10.2 0,7 L 84,41.6 32,66 32,73 96,43 96,40.4 32,10.2 z m 46,66.8 -6,6.2 -40,0 0,6.6 33.8,0 -12.2,12.4 -21.6,0 0,6.6 15.4,0 -6,6.2 8.4,0 6,-6.4 40.2,0.2 0,-6.6 -33.8,0 12,-12.6 21.8,0 0,-6.4 -15.4,0 6,-6.2 -8.6,0 z"
     id="path4589" />
</svg>
