<?xml version="1.0" encoding="UTF-8" standalone="no"?>
<!-- Created with Inkscape (http://www.inkscape.org/) -->

<svg
   xmlns:dc="http://purl.org/dc/elements/1.1/"
   xmlns:cc="http://creativecommons.org/ns#"
   xmlns:rdf="http://www.w3.org/1999/02/22-rdf-syntax-ns#"
   xmlns:svg="http://www.w3.org/2000/svg"
   xmlns="http://www.w3.org/2000/svg"
   version="1.0"
   width="128"
   height="128"
   id="svg2">
  <defs
     id="defs4" />
  <metadata
     id="metadata7">
    <rdf:RDF>
      <cc:Work
         rdf:about="">
        <dc:format>image/svg+xml</dc:format>
        <dc:type
           rdf:resource="http://purl.org/dc/dcmitype/StillImage" />
        <dc:title></dc:title>
      </cc:Work>
    </rdf:RDF>
  </metadata>
  <path
     d="m 28.4,11.8 0,7.4 52.6,25.6 -52.6,25.4 0,7.4 64.8,-31.4 0,-2.6 -64.8,-31.8 z m 39.8,76.2 -7,8.8 c -3.994419,-3.635968 -8.61495,-7 -14.4,-7 -17.630643,0 -21.2,20.8 -21.2,20.8 l 2.6,1 C 28.2,111.28384 33.567654,96 45,96 c 4.545466,0 7.894253,3.996339 11.2,7 l -11.4,13.8 8.6,0 7.4,-8.8 c 3.994413,3.636 7.926278,7.2 14.4,7.2 C 94.483546,115.2 96,91.4 96,91.4 L 93.6,91 c 0,0.31616 -4.541216,17.6 -16.8,17.6 -4.545338,0 -7.994163,-3.92579 -11,-7 l 11,-13.6 -8.6,0 z"
     id="path4808" />
</svg>
