<?xml version="1.0" encoding="UTF-8" standalone="no"?>
<!-- Created with Inkscape (http://www.inkscape.org/) -->

<svg
   xmlns:dc="http://purl.org/dc/elements/1.1/"
   xmlns:cc="http://creativecommons.org/ns#"
   xmlns:rdf="http://www.w3.org/1999/02/22-rdf-syntax-ns#"
   xmlns:svg="http://www.w3.org/2000/svg"
   xmlns="http://www.w3.org/2000/svg"
   version="1.0"
   width="128"
   height="128"
   id="svg2">
  <defs
     id="defs4" />
  <metadata
     id="metadata7">
    <rdf:RDF>
      <cc:Work
         rdf:about="">
        <dc:format>image/svg+xml</dc:format>
        <dc:type
           rdf:resource="http://purl.org/dc/dcmitype/StillImage" />
        <dc:title></dc:title>
      </cc:Work>
    </rdf:RDF>
  </metadata>
  <path
     d="M 32,12.8 32,19.2 78.8,41.8 32,64.2 32,70.6 89.6,43 89.6,40.6 32,12.8 z m 25.6,64 0,6.4 -25.6,0 0,6.6 25.6,0 0,12.6 -25.6,0 0,6.4 25.6,0 0,6.4 6.4,0 0,-6.4 25.6,0 0,-6.6 -25.6,0 0,-12.6 25.6,0 0,-6.6 -25.6,0 0,-6.2 -6.4,0 z"
     id="path4687" />
</svg>
