<?xml version="1.0" encoding="UTF-8" standalone="no"?>
<!-- Created with Inkscape (http://www.inkscape.org/) -->

<svg
   xmlns:dc="http://purl.org/dc/elements/1.1/"
   xmlns:cc="http://creativecommons.org/ns#"
   xmlns:rdf="http://www.w3.org/1999/02/22-rdf-syntax-ns#"
   xmlns:svg="http://www.w3.org/2000/svg"
   xmlns="http://www.w3.org/2000/svg"
   version="1.0"
   width="128"
   height="128"
   id="svg2">
  <defs
     id="defs4" />
  <metadata
     id="metadata7">
    <rdf:RDF>
      <cc:Work
         rdf:about="">
        <dc:format>image/svg+xml</dc:format>
        <dc:type
           rdf:resource="http://purl.org/dc/dcmitype/StillImage" />
        <dc:title></dc:title>
      </cc:Work>
    </rdf:RDF>
  </metadata>
  <g
     transform="matrix(-5.9583402,0,0,5.9596784,127.3659,0.54027645)"
     id="text3320"
     style="font-size:16px;font-style:normal;font-variant:normal;font-weight:bold;font-stretch:normal;text-align:start;line-height:125%;letter-spacing:0px;word-spacing:0px;writing-mode:lr-tb;text-anchor:start;fill:#000000;fill-opacity:1;stroke:none;font-family:msbm10;-inkscape-font-specification:msbm10 Bold" />
  <path
     d="m 43.4,19.8 c -0.602112,0.01152 -1.488966,0.285184 -2.4,0.8 -1.822003,1.029626 -2.263872,1.979053 -1.8,2.8 l 19.4,34.4 c -13.640365,0.0083 -25.828966,0 -39.4,0 -0.942906,0 -1.8,1.282022 -1.8,3.2 0,1.917978 0.857088,3 1.8,3 l 39.4,0 c -6.691878,11.859072 -12.735693,22.406528 -19.4,34.2 -0.463872,0.820902 0.130176,2.25641 1.8,3.2 1.669818,0.94359 3.136115,0.62093 3.6,-0.2 L 64,67 83.2,101.2 c 0.463872,0.82091 1.930182,1.14359 3.6,0.2 1.669811,-0.94359 2.263872,-2.379098 1.8,-3.2 C 81.935693,86.406528 75.891878,75.859072 69.2,64 l 39.4,0 c 0.94295,0 1.6,-0.907142 1.6,-3 0,-2.092858 -0.65708,-3.2 -1.6,-3.2 -11.201888,-0.02752 -26.040544,-0.005 -39.4,0 L 88.6,23.4 C 89.063872,22.579053 88.62176,21.629626 86.8,20.6 84.977933,19.570374 83.663891,19.579078 83.2,20.4 77.68887,30.096698 70.536998,43.021875 64,54.6 57.445056,42.989997 50.124966,30.121037 44.6,20.4 44.368064,19.989568 44.002112,19.788544 43.4,19.8 z"
     id="path3199" />
</svg>
