<?xml version="1.0" encoding="UTF-8" standalone="no"?>
<svg
   xmlns:dc="http://purl.org/dc/elements/1.1/"
   xmlns:cc="http://creativecommons.org/ns#"
   xmlns:rdf="http://www.w3.org/1999/02/22-rdf-syntax-ns#"
   xmlns:svg="http://www.w3.org/2000/svg"
   xmlns="http://www.w3.org/2000/svg"
   id="svg2"
   height="128"
   width="128"
   version="1.0">
  <defs
     id="defs4" />
  <metadata
     id="metadata7">
    <rdf:RDF>
      <cc:Work
         rdf:about="">
        <dc:format>image/svg+xml</dc:format>
        <dc:type
           rdf:resource="http://purl.org/dc/dcmitype/StillImage" />
        <dc:title></dc:title>
      </cc:Work>
    </rdf:RDF>
  </metadata>
  <path
     id="g0-93-3"
     d="M 45.391634,82.228585 19.375841,67.209186 45.391634,52.189776 Z M 12.536712,64.929387 c -0.268166,0.134083 -0.67051,0.53646 -0.938715,0.938785 -0.26823,0.402312 -0.26823,0.938663 -0.26823,1.341007 0,0.93867 0.402313,1.877455 1.20692,2.279671 L 46.73261,89.201815 c 0.402376,0.268166 0.804561,0.402313 1.341007,0.402313 1.475116,0 2.682009,-1.20697 2.682009,-2.682093 l 0,-17.030847 26.609848,0 0,17.030847 c 0,1.475123 1.206893,2.682093 2.682009,2.682093 0.536459,0 0.93867,-0.134147 1.341002,-0.402313 L 115.58468,69.48885 c 0.80393,-0.402248 1.20714,-1.341001 1.20714,-2.279671 0,-0.402312 0,-0.938765 -0.26925,-1.341007 -0.26919,-0.402185 -0.67,-0.804676 -0.93788,-0.938798 L 81.388498,45.216526 c -0.402314,-0.26823 -0.80453,-0.402377 -1.341002,-0.402377 -1.475117,0 -2.691808,1.206925 -2.682009,2.682009 l 0,17.030974 -26.609854,0 0,-17.030974 c 0,-1.475116 -1.206893,-2.682009 -2.68201,-2.682009 -0.536459,0 -0.938669,0.134147 -1.341007,0.402377 z m 70.192819,17.299198 0,-30.038809 26.015789,15.01941 z" />
</svg>
