<?xml version="1.0" encoding="UTF-8" standalone="no"?>
<svg
   xmlns:dc="http://purl.org/dc/elements/1.1/"
   xmlns:cc="http://creativecommons.org/ns#"
   xmlns:rdf="http://www.w3.org/1999/02/22-rdf-syntax-ns#"
   xmlns:svg="http://www.w3.org/2000/svg"
   xmlns="http://www.w3.org/2000/svg"
   id="svg2"
   height="128"
   width="128"
   version="1.0">
  <defs
     id="defs4" />
  <metadata
     id="metadata7">
    <rdf:RDF>
      <cc:Work
         rdf:about="">
        <dc:format>image/svg+xml</dc:format>
        <dc:type
           rdf:resource="http://purl.org/dc/dcmitype/StillImage" />
        <dc:title></dc:title>
      </cc:Work>
    </rdf:RDF>
  </metadata>
  <path
     id="path3622"
     d="M 18.630537,44.788141 0.04286416,67.288433 18.630537,89.576224 22.086133,87.134572 10.746434,70.238468 l 11.521295,0 c 2.585826,0 11.526773,-11.437646 13.191595,-11.437646 2.154224,0 9.031605,24.535705 14.483618,24.450314 5.287134,-0.08281 11.597988,-22.132012 14.092756,-24.087806 2.492122,1.936249 8.813811,24.004958 14.103613,24.087806 5.452014,0.08538 12.329396,-24.450314 14.483613,-24.450314 1.664827,0 10.594916,11.437646 13.180746,11.437646 l 11.66165,0 -11.4692,16.755757 3.45559,2.581999 18.58767,-22.287791 -18.58767,-22.500292 -3.45559,2.581999 11.4692,16.75575 -10.54335,0 c -1.2134,0 -11.015253,-12.750163 -14.96134,-12.750163 -4.932819,0 -10.886566,21.117062 -13.799609,24.512819 -2.987323,-3.385773 -8.730354,-24.468338 -13.94075,-24.512819 -0.06516,-0.009 -0.12333,0.08045 -0.184579,0.112514 -0.05888,-0.0288 -0.11149,-0.121345 -0.173698,-0.112514 -5.210363,0.0448 -10.9534,21.127046 -13.940728,24.512819 -2.913043,-3.395757 -8.866791,-24.512819 -13.79961,-24.512819 -3.946086,0 -13.747929,12.750163 -14.961333,12.750163 l -10.413851,0 11.33968,-16.75575 z" />
</svg>
