<?xml version="1.0" encoding="UTF-8" standalone="no"?>
<!-- Created with Inkscape (http://www.inkscape.org/) -->

<svg
   xmlns:dc="http://purl.org/dc/elements/1.1/"
   xmlns:cc="http://creativecommons.org/ns#"
   xmlns:rdf="http://www.w3.org/1999/02/22-rdf-syntax-ns#"
   xmlns:svg="http://www.w3.org/2000/svg"
   xmlns="http://www.w3.org/2000/svg"
   version="1.0"
   width="128"
   height="128"
   id="svg2">
  <defs
     id="defs4" />
  <metadata
     id="metadata7">
    <rdf:RDF>
      <cc:Work
         rdf:about="">
        <dc:format>image/svg+xml</dc:format>
        <dc:type
           rdf:resource="http://purl.org/dc/dcmitype/StillImage" />
        <dc:title></dc:title>
      </cc:Work>
    </rdf:RDF>
  </metadata>
  <g
     transform="matrix(0.49474207,0,0,0.49474207,-74.607441,-102.12809)"
     id="text2991"
     style="font-size:32px;font-style:normal;font-weight:normal;line-height:0%;letter-spacing:0.25599998px;word-spacing:0px;fill:#000000;fill-opacity:1;stroke:none;font-family:Sans">
    <path
       d="m 214.77866,336.36639 c -4e-5,7.21881 0.17183,14.41607 0.51562,21.5918 0.34371,7.17582 1.00973,14.17972 1.99805,21.01172 0.98824,6.83205 2.44918,13.44923 4.38281,19.85156 1.93355,6.40234 4.49019,12.41796 7.66992,18.04688 3.17964,5.62888 7.08979,10.87106 11.73047,15.72656 4.64056,4.85543 10.18352,9.13082 16.62891,12.82617 l 0,10.82813 c -11.5157,-6.10162 -21.50592,-12.74028 -29.97071,-19.91602 -8.46488,-7.17581 -15.51175,-15.46877 -21.14062,-24.87891 -5.62893,-9.41015 -9.81838,-20.21678 -12.56836,-32.41992 -2.75001,-12.20309 -4.12501,-26.42573 -4.125,-42.66797 -1e-5,-16.2421 1.37499,-30.44326 4.125,-42.60351 2.74998,-12.16004 6.93943,-22.9237 12.56836,-32.29102 5.62887,-9.36704 12.67574,-17.61703 21.14062,-24.75 8.46479,-7.13264 18.45501,-13.74982 29.97071,-19.85156 l 0,10.82813 c -9.71101,5.5861 -17.40241,12.35367 -23.07422,20.30273 -5.67193,7.94936 -9.99028,16.67201 -12.95508,26.16797 -2.96488,9.49621 -4.85551,19.5294 -5.67187,30.09961 -0.81645,10.5704 -1.22465,21.2696 -1.22461,32.09765 z"
       id="path3238"
       style="font-size:264px;font-variant:normal;font-stretch:normal;font-family:Liberation Serif;-inkscape-font-specification:Liberation Serif" />
    <path
       d="m 302.51968,456.24921 0,-10.82813 c 6.4453,-3.69535 11.98826,-7.97074 16.62891,-12.82617 4.64059,-4.8555 8.55075,-10.09768 11.73047,-15.72656 3.17964,-5.62892 5.73628,-11.64454 7.66992,-18.04688 1.93355,-6.40233 3.39448,-13.01951 4.38281,-19.85156 0.98823,-6.832 1.65425,-13.8359 1.99805,-21.01172 0.3437,-7.17573 0.51557,-14.37299 0.51562,-21.5918 -5e-5,-10.82805 -0.40825,-21.52725 -1.22461,-32.09765 -0.81645,-10.57021 -2.70708,-20.6034 -5.67187,-30.09961 -2.96489,-9.49596 -7.28324,-18.21861 -12.95508,-26.16797 -5.6719,-7.94906 -13.3633,-14.71663 -23.07422,-20.30273 l 0,-10.82813 c 11.42967,6.10174 21.39841,12.71892 29.90625,19.85156 8.50777,7.13297 15.57612,15.38296 21.20508,24.75 5.62884,9.36732 9.81829,20.13098 12.56836,32.29102 2.74992,12.16025 4.12492,26.36141 4.125,42.60351 -8e-5,16.24224 -1.37508,30.46488 -4.125,42.66797 -2.75007,12.20314 -6.93952,23.00977 -12.56836,32.41992 -5.62896,9.41014 -12.69731,17.7031 -21.20508,24.87891 -8.50784,7.17574 -18.47658,13.8144 -29.90625,19.91602 z"
       id="path3240"
       style="font-size:264px;font-variant:normal;font-stretch:normal;font-family:Liberation Serif;-inkscape-font-specification:Liberation Serif" />
  </g>
</svg>
