<?xml version="1.0" encoding="UTF-8" standalone="no"?>
<!-- Created with Inkscape (http://www.inkscape.org/) -->

<svg
   xmlns:dc="http://purl.org/dc/elements/1.1/"
   xmlns:cc="http://creativecommons.org/ns#"
   xmlns:rdf="http://www.w3.org/1999/02/22-rdf-syntax-ns#"
   xmlns:svg="http://www.w3.org/2000/svg"
   xmlns="http://www.w3.org/2000/svg"
   version="1.0"
   width="128"
   height="128"
   id="svg2">
  <defs
     id="defs4" />
  <metadata
     id="metadata7">
    <rdf:RDF>
      <cc:Work
         rdf:about="">
        <dc:format>image/svg+xml</dc:format>
        <dc:type
           rdf:resource="http://purl.org/dc/dcmitype/StillImage" />
        <dc:title></dc:title>
      </cc:Work>
    </rdf:RDF>
  </metadata>
  <g
     transform="matrix(-5.9583402,0,0,5.9596784,127.3659,0.54027645)"
     id="text3320"
     style="font-size:16px;font-style:normal;font-variant:normal;font-weight:bold;font-stretch:normal;text-align:start;line-height:125%;letter-spacing:0px;word-spacing:0px;writing-mode:lr-tb;text-anchor:start;fill:#000000;fill-opacity:1;stroke:none;font-family:msbm10;-inkscape-font-specification:msbm10 Bold" />
  <g
     transform="matrix(8,0,0,8,-10.90924,0.368416)"
     id="text3027"
     style="font-size:20px;font-style:normal;font-variant:normal;font-weight:normal;font-stretch:normal;line-height:125%;letter-spacing:0px;word-spacing:0px;fill:#0000aa;fill-opacity:1;stroke:none;font-family:cmsy10;-inkscape-font-specification:cmsy10">
    <path
       d="m 1.5374835,14.215667 c -5e-7,-0.227864 0.083007,-0.545246 0.2490235,-0.952149 0.1660146,-0.406899 0.3499337,-0.610349 0.5517578,-0.610351 0.039061,2e-6 0.069986,0.01791 0.092773,0.05371 0.022785,0.03581 0.039061,0.08464 0.048828,0.146484 0.00976,0.06185 0.017902,0.115562 0.024414,0.161133 0.091144,0.29297 0.2832013,0.537111 0.5761719,0.732422 0.2929663,0.195313 0.5924452,0.292969 0.8984375,0.292969 0.4231736,0 0.9342408,-0.379231 1.5332031,-1.137696 0.5989532,-0.758461 1.2011661,-1.599931 1.8066406,-2.524414 L 7.7191241,9.8016043 C 8.3701584,8.8120271 8.9398193,7.9103353 9.4281085,7.0965261 9.9163808,6.2827327 10.4128,5.405455 10.917366,4.4646902 11.421913,3.5239464 11.889035,2.5945854 12.318734,1.6766043 l 0.185546,0 c -1.1e-5,-0.1822782 0.08462,-0.3645697 0.253907,-0.546875 0.169259,-0.18227769 0.372709,-0.33364472 0.610351,-0.45410159 0.237618,-0.12042831 0.428047,-0.1806496 0.571289,-0.18066406 l 0.22461,0 c 0.07811,0.0325665 0.117174,0.0944154 0.117187,0.18554687 -1.3e-5,0.38412848 -0.0016,0.70151098 -0.0049,0.95214848 -0.0033,0.2506641 -0.0082,0.5257289 -0.01465,0.8251953 -1.3e-5,1.3671986 0.02766,2.6904395 0.08301,3.9697265 0.05532,1.2793042 0.148098,2.6774147 0.27832,4.1943362 0.03905,0.390629 0.08625,0.764977 0.141602,1.123047 0.05532,0.358075 0.128566,0.737307 0.219726,1.137695 0.09113,0.400392 0.182278,0.753582 0.273438,1.05957 0.03905,0.130209 0.115545,0.236004 0.229492,0.317383 0.113917,0.08138 0.239243,0.122071 0.375976,0.12207 0.377589,-0.214843 0.696599,-0.335285 0.957032,-0.361328 l 0.117187,0 c 0.09764,0.05208 0.146468,0.104168 0.146485,0.15625 -1.7e-5,0.175782 -0.164404,0.372722 -0.493165,0.590821 -0.328791,0.218099 -0.699884,0.403645 -1.113281,0.55664 -0.413425,0.152994 -0.724297,0.229492 -0.932617,0.229492 l -0.126953,0 c -0.403659,0 -0.703138,-0.179036 -0.898438,-0.537109 -0.1172,-0.260416 -0.255546,-0.815429 -0.415039,-1.665039 -0.159517,-0.849607 -0.239269,-1.407875 -0.239257,-1.674805 l -5.4003911,0 C 6.9378682,12.470878 6.4837671,13.128429 6.1029132,13.649261 5.7220491,14.170095 5.2695756,14.684417 4.7454913,15.192229 4.2213995,15.700041 3.760788,15.953947 3.3636554,15.953948 2.9079243,15.953947 2.4896304,15.776538 2.1087726,15.421721 1.7279125,15.066904 1.537483,14.664886 1.5374835,14.215667 z m 6.5039063,-3.417969 c 0.3645759,-0.175777 0.6510339,-0.276688 0.859375,-0.302734 l 3.8574222,0 C 12.575883,8.0535643 12.484738,5.667499 12.484749,3.3367605 l 0,-0.3222656 C 11.788124,4.4402867 11.067096,5.8009624 10.321663,7.0965261 9.5762119,8.3921056 8.8161215,9.6258284 8.0413898,10.797698 z"
       id="path3032"
       style="fill:#0000aa" />
  </g>
</svg>
