<?xml version="1.0" encoding="UTF-8" standalone="no"?>
<!-- Created with Inkscape (http://www.inkscape.org/) -->

<svg
   xmlns:dc="http://purl.org/dc/elements/1.1/"
   xmlns:cc="http://creativecommons.org/ns#"
   xmlns:rdf="http://www.w3.org/1999/02/22-rdf-syntax-ns#"
   xmlns:svg="http://www.w3.org/2000/svg"
   xmlns="http://www.w3.org/2000/svg"
   version="1.0"
   width="128"
   height="128"
   id="svg2">
  <defs
     id="defs4" />
  <metadata
     id="metadata7">
    <rdf:RDF>
      <cc:Work
         rdf:about="">
        <dc:format>image/svg+xml</dc:format>
        <dc:type
           rdf:resource="http://purl.org/dc/dcmitype/StillImage" />
        <dc:title></dc:title>
      </cc:Work>
    </rdf:RDF>
  </metadata>
  <g
     id="text4755"
     style="font-size:140.09941101px;font-style:normal;font-variant:normal;font-weight:normal;font-stretch:normal;text-align:start;line-height:125%;letter-spacing:0px;word-spacing:0px;writing-mode:lr-tb;text-anchor:start;fill:#000000;fill-opacity:1;stroke:none;font-family:msbm10;-inkscape-font-specification:msbm10">
    <path
       d="m 16.929849,108.80107 c -0.592873,0 -1.117333,-0.27363 -1.573382,-0.82089 -0.456055,-0.54727 -0.684082,-1.11733 -0.684079,-1.7102 -3e-6,-1.27695 0.752484,-2.07504 2.257461,-2.39428 l 0.410447,0 c 3.055546,1e-5 5.187591,-0.12541 6.396141,-0.37624 1.208527,-0.25083 2.075026,-0.94631 2.5995,-2.08644 0.524447,-1.14013 0.786677,-3.078349 0.786691,-5.814677 l 0,-69.844481 c -1.4e-5,-2.599415 -0.296448,-4.457829 -0.889303,-5.575245 -0.592881,-1.11724 -1.527789,-1.801318 -2.804724,-2.052238 -1.276958,-0.250738 -3.443206,-0.376152 -6.498752,-0.376243 -0.638478,9.1e-5 -1.174339,-0.284942 -1.607586,-0.855099 -0.433253,-0.569974 -0.649878,-1.128638 -0.649875,-1.675994 -3e-6,-1.276853 0.752484,-2.074945 2.257461,-2.394277 l 46.312159,0 c 5.791813,9.6e-5 11.572276,0.877996 17.341406,2.633704 5.768994,1.755895 10.534741,4.58342 14.297255,8.482582 3.762349,3.899332 5.643561,8.881704 5.643651,14.947129 -9e-5,4.971041 -1.026204,9.121117 -3.078354,12.450241 -2.052321,3.329239 -4.902648,5.928738 -8.55099,7.798502 -3.648495,1.869865 -7.980992,3.238022 -12.997504,4.104475 3.648355,5.7007 7.296774,11.298742 10.945267,16.794144 3.648344,5.495459 7.650203,10.842672 12.005589,16.041656 4.355212,5.199011 7.627392,7.798511 9.816532,7.798501 0.59278,1e-5 1.11724,0.25083 1.57339,0.75249 0.45595,0.50166 0.68398,1.04892 0.68407,1.64179 -9e-5,1.36816 -0.75258,2.21185 -2.25746,2.53109 l -24.216398,0 c -0.50173,0 -1.071795,-0.31924 -1.710198,-0.95771 l -27.705206,-43.028579 -5.062186,0 0,31.125602 c -3.7e-5,2.553906 0.296397,4.389517 0.889303,5.506837 0.59283,1.11734 1.527737,1.80141 2.804725,2.05224 1.276905,0.25083 3.443153,0.37625 6.498752,0.37624 0.638425,1e-5 1.174287,0.23943 1.607586,0.71828 0.4332,0.47886 0.649825,1.03753 0.649875,1.676 -5e-5,1.36816 -0.752537,2.21185 -2.257461,2.53109 z m 13.818399,-4.92537 15.597005,0 c -0.866534,-1.86981 -1.299783,-4.514912 -1.299751,-7.935317 l 0,-72.85443 c -3.2e-5,-1.960939 0.615638,-3.739543 1.847014,-5.335817 l -16.144268,0 c 0.866481,1.869905 1.299731,4.537811 1.29975,8.003726 l 0,70.186521 c -1.9e-5,3.420405 -0.433269,6.065507 -1.29975,7.935317 z m 55.205188,0 13.613175,0 C 96.374158,100.77455 93.17039,97.103329 89.955299,92.862027 86.740052,88.620756 83.958133,84.698706 81.609533,81.095865 79.260794,77.49308 75.578172,71.792426 70.561655,63.993886 c -4.013319,0.364887 -7.274093,0.592913 -9.782332,0.68408 z M 49.970872,59.889412 c 5.746222,4.8e-5 10.078719,-0.170971 12.997504,-0.51306 2.918684,-0.34199 5.392768,-1.140081 7.422259,-2.394277 2.029375,-1.254092 3.545749,-3.306327 4.549126,-6.156712 1.003253,-2.850269 1.50491,-6.829326 1.504974,-11.937182 -6.4e-5,-7.387977 -1.311214,-12.757993 -3.933455,-16.110064 -2.622361,-3.351898 -7.467916,-5.02789 -14.536682,-5.027981 -2.052281,9.1e-5 -3.899293,0.467544 -5.541041,1.402362 -1.641828,0.934997 -2.462722,2.337358 -2.462685,4.207087 z m 26.884311,-1.778606 c 3.921985,-0.820844 7.262569,-1.960975 10.02176,-3.420396 2.759042,-1.459313 4.913889,-3.477345 6.464548,-6.054101 1.550497,-2.576635 2.325785,-5.826008 2.325869,-9.748128 -8.4e-5,-5.335742 -1.892701,-9.634035 -5.677857,-12.894892 -3.785312,-3.260691 -8.482651,-5.552354 -14.092031,-6.874995 3.648355,4.241376 5.472564,10.831332 5.472633,19.769887 -6.9e-5,4.423778 -0.250897,8.140604 -0.752487,11.150491 -0.501725,3.010004 -1.755869,5.700712 -3.762435,8.072134 z"
       id="path4948" />
  </g>
</svg>
