<?xml version="1.0" encoding="UTF-8" standalone="no"?>
<!-- Created with Inkscape (http://www.inkscape.org/) -->

<svg
   xmlns:dc="http://purl.org/dc/elements/1.1/"
   xmlns:cc="http://creativecommons.org/ns#"
   xmlns:rdf="http://www.w3.org/1999/02/22-rdf-syntax-ns#"
   xmlns:svg="http://www.w3.org/2000/svg"
   xmlns="http://www.w3.org/2000/svg"
   version="1.0"
   width="128"
   height="128"
   id="svg2">
  <defs
     id="defs4" />
  <metadata
     id="metadata7">
    <rdf:RDF>
      <cc:Work
         rdf:about="">
        <dc:format>image/svg+xml</dc:format>
        <dc:type
           rdf:resource="http://purl.org/dc/dcmitype/StillImage" />
        <dc:title></dc:title>
      </cc:Work>
    </rdf:RDF>
  </metadata>
  <g
     transform="matrix(-5.9583402,0,0,5.9596784,127.3659,0.54027645)"
     id="text3320"
     style="font-size:16px;font-style:normal;font-variant:normal;font-weight:bold;font-stretch:normal;text-align:start;line-height:125%;letter-spacing:0px;word-spacing:0px;writing-mode:lr-tb;text-anchor:start;fill:#000000;fill-opacity:1;stroke:none;font-family:msbm10;-inkscape-font-specification:msbm10 Bold" />
  <g
     transform="matrix(8,0,0,8,-0.346984,0.582376)"
     id="text3263"
     style="font-size:20px;font-style:normal;font-variant:normal;font-weight:normal;font-stretch:normal;line-height:125%;letter-spacing:0px;word-spacing:0px;fill:#0000aa;fill-opacity:1;stroke:none;font-family:msbm10;-inkscape-font-specification:msbm10">
    <path
       d="m 1.6142541,14.927203 c -0.2148442,-0.04557 -0.322266,-0.166015 -0.3222657,-0.361328 -3e-7,-0.07813 0.030924,-0.154622 0.092774,-0.229492 0.061848,-0.07487 0.1383458,-0.112304 0.2294922,-0.112305 0.2799469,10e-7 0.5322253,-0.08138 0.7568359,-0.24414 0.2246077,-0.16276 0.3857404,-0.374348 0.4833984,-0.634766 L 7.5712853,1.0502501 c 0.039056,-0.13670478 0.1464776,-0.20506409 0.3222656,-0.20507817 0.1432221,1.408e-5 0.2473887,0.0683734 0.3125,0.20507817 L 13.391598,12.92525 c 0.117175,0.266929 0.226224,0.485028 0.327148,0.654297 0.100899,0.169272 0.23599,0.319011 0.405274,0.449219 0.169257,0.130209 0.358059,0.195313 0.566406,0.195312 0.09113,0.01953 0.167629,0.06022 0.229492,0.12207 0.06184,0.06185 0.09276,0.135092 0.09277,0.219727 -1.5e-5,0.09115 -0.03419,0.174154 -0.10254,0.249023 -0.06837,0.07487 -0.141615,0.112305 -0.219726,0.112305 l -5.9179688,0 C 8.5576058,14.88163 8.4501841,14.761188 8.4501916,14.565875 c -7.5e-6,-0.07813 0.030917,-0.154622 0.092773,-0.229492 0.061841,-0.07487 0.1383386,-0.112304 0.2294922,-0.112305 0.1953045,10e-7 0.4573485,-0.0651 0.7861328,-0.195312 C 9.8873567,13.898558 10.051745,13.758585 10.051754,13.608844 10.051745,13.322387 9.976875,12.938273 9.8271443,12.4565 9.6773964,11.974732 9.5048705,11.486451 9.3095666,10.991656 l -4.3945313,0 c -0.1888059,0.820316 -0.2832068,1.471357 -0.2832031,1.953125 -3.7e-6,0.390627 0.060218,0.701499 0.180664,0.932617 0.1204388,0.231121 0.3596963,0.346681 0.7177735,0.34668 0.2148389,0.05208 0.3222607,0.166016 0.3222656,0.341797 -4.9e-6,0.09766 -0.035812,0.182292 -0.1074219,0.253906 -0.071619,0.07161 -0.1432338,0.107422 -0.2148437,0.107422 z m 1.5136718,-0.703125 1.0839844,0 c -0.1888051,-0.33854 -0.2832061,-0.764972 -0.2832031,-1.279297 -3e-6,-0.0651 0.00651,-0.152992 0.019531,-0.263672 0.013018,-0.110674 0.019528,-0.19531 0.019531,-0.253906 L 3.5087853,13.608844 C 3.385085,13.882282 3.258132,14.08736 3.1279259,14.224078 z m 7.3632811,0 2.861328,0 C 13.163721,14.015746 12.961898,13.677204 12.747067,13.208453 L 7.9130822,2.1244688 7.1708947,4.0482969 c 0.2864518,0.5664166 0.7275321,1.5592541 1.3232422,2.9785157 0.595695,1.4192773 1.1214106,2.7669322 1.5771481,4.0429684 0.45572,1.276045 0.683584,2.122398 0.683594,2.539063 -1e-5,0.234376 -0.0879,0.439454 -0.263672,0.615234 z m -5.4003904,-3.935547 3.9550781,0 C 8.8245326,9.7156198 8.520171,8.9685503 8.1328087,8.0473204 7.7454322,7.1261042 7.3238831,6.1511703 6.8681603,5.1225157 6.6533109,5.7084624 6.4335845,6.3090477 6.2089806,6.9242735 5.9843662,7.5395153 5.7695227,8.154749 5.5644494,8.7699766 5.3593668,9.3852165 5.2014894,9.8914009 5.0908166,10.288531 z"
       id="path3268"
       style="fill:#0000aa" />
  </g>
</svg>
