<?xml version="1.0" encoding="UTF-8" standalone="no"?>
<!-- Created with Inkscape (http://www.inkscape.org/) -->

<svg
   xmlns:dc="http://purl.org/dc/elements/1.1/"
   xmlns:cc="http://creativecommons.org/ns#"
   xmlns:rdf="http://www.w3.org/1999/02/22-rdf-syntax-ns#"
   xmlns:svg="http://www.w3.org/2000/svg"
   xmlns="http://www.w3.org/2000/svg"
   version="1.0"
   width="128"
   height="128"
   id="svg2">
  <defs
     id="defs4" />
  <metadata
     id="metadata7">
    <rdf:RDF>
      <cc:Work
         rdf:about="">
        <dc:format>image/svg+xml</dc:format>
        <dc:type
           rdf:resource="http://purl.org/dc/dcmitype/StillImage" />
        <dc:title></dc:title>
      </cc:Work>
    </rdf:RDF>
  </metadata>
  <g
     transform="matrix(6.4003335,0,0,6.4003335,-0.00138225,-0.00144233)"
     id="text4755"
     style="font-size:21px;font-style:normal;font-variant:normal;font-weight:normal;font-stretch:normal;text-align:start;line-height:125%;letter-spacing:0px;word-spacing:0px;writing-mode:lr-tb;text-anchor:start;fill:#000000;fill-opacity:1;stroke:none;font-family:cmsy10;-inkscape-font-specification:cmsy10">
    <path
       d="m 4.314564,17.053183 c -2.9e-6,-0.03418 0.00683,-0.07178 0.020508,-0.112793 0.2119107,-0.533204 0.4597132,-1.19458 0.743408,-1.984131 0.2836875,-0.789549 0.5417438,-1.551755 0.7741699,-2.286621 0.2324172,-0.734859 0.447749,-1.450923 0.6459961,-2.148194 l -1.9174804,0 C 4.4854594,10.473599 4.4376078,10.415493 4.4376109,10.347128 4.4376078,10.114712 4.6426858,9.8857086 5.0528452,9.6601162 5.4629974,9.4345372 5.797958,9.3080725 6.0577281,9.2807217 l 0.7690429,0 C 7.0660232,8.37155 7.276228,7.4452814 7.4573863,6.5019131 7.6385324,5.5585645 7.7291085,4.7621786 7.7291148,4.1127529 7.7291085,3.8666717 7.6368234,3.6615937 7.4522593,3.4975185 7.2676831,3.3334691 7.0523513,3.2514379 6.8062632,3.2514248 6.0064539,3.2514379 5.3690034,3.3984104 4.8939097,3.6923428 4.418809,3.9863004 4.0069442,4.4921593 3.658314,5.2099209 3.5215931,5.4423537 3.2891715,5.6611035 2.9610484,5.8661709 2.6329221,6.0712593 2.3423951,6.1737983 2.0894663,6.1737881 l -0.1333007,0 C 1.860462,6.1259467 1.8126105,6.0678413 1.8126109,5.9994717 c -4e-7,-0.041005 0.00684,-0.075185 0.020508,-0.1025391 C 2.1270633,5.3022171 2.5013305,4.7638876 2.9559214,4.2819424 3.4105093,3.8000213 3.9180771,3.3915745 4.4786265,3.0566006 5.0391697,2.7216533 5.6441496,2.4635969 6.2935679,2.2824306 6.9429764,2.1012926 7.5923898,2.0107165 8.2418101,2.0107021 l 0.1230469,0 c 0.3349536,1.44e-5 0.6254807,0.1162252 0.871582,0.3486328 0.2460857,0.2324357 0.3691324,0.5161268 0.3691406,0.8510743 -8.2e-6,0.7929811 -0.119637,1.7551383 -0.3588867,2.8864746 C 9.0074275,7.2282406 8.7476621,8.2895188 8.467396,9.2807217 l 5.444824,0 c 0.587878,-2.0302644 1.298815,-4.132313 2.132813,-6.3061524 0.150376,-0.259752 0.375961,-0.4767928 0.676758,-0.651123 0.300765,-0.1743022 0.601546,-0.2785502 0.902343,-0.3127442 l 0.123047,0 c 0.102523,0.047866 0.153792,0.1059713 0.153809,0.1743164 -1.7e-5,0.027358 -0.0069,0.061538 -0.02051,0.1025391 -0.225602,0.5537245 -0.478532,1.2236457 -0.758789,2.0097656 -0.280289,0.7861441 -0.504166,1.4389755 -0.671631,1.9584961 -0.167495,0.5195409 -0.398208,1.2749112 -0.692139,2.2661133 -0.895521,3.2539104 -1.343274,5.5166034 -1.343261,6.7880864 -1.3e-5,0.225586 0.08031,0.422119 0.240966,0.589599 0.160632,0.167481 0.360583,0.251221 0.599854,0.251221 0.314439,0 0.656235,-0.04443 1.025391,-0.133301 0.05467,-0.11621 0.09911,-0.21704 0.1333,-0.30249 0.03416,-0.08545 0.08031,-0.162353 0.138428,-0.230713 0.05809,-0.06836 0.148666,-0.15039 0.271729,-0.246094 0.403304,-0.293944 0.79637,-0.46826 1.179199,-0.522949 l 0.102539,0 c 0.09569,0.04785 0.143538,0.11963 0.143555,0.215332 -0.157244,0.560548 -0.478532,1.023682 -0.963868,1.389404 -0.485367,0.365723 -1.042495,0.634033 -1.671386,0.804932 -0.62892,0.170897 -1.254408,0.256347 -1.876465,0.256348 -0.348645,-1e-6 -0.635754,-0.112794 -0.861328,-0.338379 -0.225597,-0.225587 -0.33839,-0.502442 -0.338379,-0.830567 -1.1e-5,-1.250975 0.365711,-3.219723 1.097168,-5.90625 -0.266614,0.129889 -0.492199,0.201666 -0.676758,0.215332 l -4.8500977,0 c -0.2597721,0.888677 -0.5485901,1.802983 -0.8664551,2.74292 -0.3178766,0.939944 -0.6784719,1.936281 -1.0817871,2.989014 -0.1367233,0.239258 -0.3606001,0.451171 -0.6716308,0.635742 -0.311039,0.18457 -0.6203648,0.293945 -0.9279786,0.328125 l -0.102539,0 c -0.027347,-0.01367 -0.058109,-0.03418 -0.092285,-0.06152 -0.034183,-0.02735 -0.051272,-0.06152 -0.05127,-0.102539 z"
       id="path5170" />
  </g>
</svg>
