<?xml version="1.0" encoding="UTF-8" standalone="no"?>
<!-- Created with Inkscape (http://www.inkscape.org/) -->

<svg
   xmlns:dc="http://purl.org/dc/elements/1.1/"
   xmlns:cc="http://creativecommons.org/ns#"
   xmlns:rdf="http://www.w3.org/1999/02/22-rdf-syntax-ns#"
   xmlns:svg="http://www.w3.org/2000/svg"
   xmlns="http://www.w3.org/2000/svg"
   version="1.0"
   width="128"
   height="128"
   id="svg2">
  <defs
     id="defs4" />
  <metadata
     id="metadata7">
    <rdf:RDF>
      <cc:Work
         rdf:about="">
        <dc:format>image/svg+xml</dc:format>
        <dc:type
           rdf:resource="http://purl.org/dc/dcmitype/StillImage" />
        <dc:title></dc:title>
      </cc:Work>
    </rdf:RDF>
  </metadata>
  <g
     transform="matrix(6.4003395,0,0,6.4003395,-0.00144233,-0.00144233)"
     id="text4755"
     style="font-size:21px;font-style:normal;font-variant:normal;font-weight:normal;font-stretch:normal;text-align:start;line-height:125%;letter-spacing:0px;word-spacing:0px;writing-mode:lr-tb;text-anchor:start;fill:#000000;fill-opacity:1;stroke:none;font-family:cmsy10;-inkscape-font-specification:cmsy10">
    <path
       d="m 3.1336257,16.968 c -0.088868,0 -0.1333014,-0.04785 -0.1333007,-0.143554 -7e-7,-0.05469 0.023925,-0.119629 0.071777,-0.194824 0.1025383,-0.164063 0.2563467,-0.346924 0.4614258,-0.548584 0.2050767,-0.20166 0.3520492,-0.360595 0.440918,-0.476807 0.355467,-0.512694 0.6357402,-0.967283 0.8408206,-1.36377 C 5.1707323,13.502183 5.4783492,12.654528 5.7381179,11.697493 6.1209267,10.173085 6.4678501,8.9357814 6.7788894,7.9855785 7.0899198,7.0353927 7.4983667,6.1364678 8.0042312,5.2888012 8.4007095,4.6325631 8.8894786,4.0327102 9.4705398,3.4892406 10.051587,2.9457972 10.695873,2.5117156 11.403401,2.1869946 12.110911,1.8623022 12.833811,1.6999488 13.572102,1.699934 l 0.123047,0 c 0.362293,1.48e-5 0.666492,0.090591 0.912598,0.2717285 0.246081,0.1811667 0.43236,0.4238423 0.558838,0.7280274 0.126452,0.3042127 0.189684,0.6306284 0.189697,0.979248 -1.3e-5,0.5332154 -0.08546,0.9023557 -0.256348,1.1074219 -0.485363,0.5263784 -1.059582,0.8339952 -1.722656,0.9228515 l -0.123047,0 c -0.08204,1.08e-5 -0.123057,-0.047841 -0.123047,-0.1435546 -10e-6,-0.013661 0.01708,-0.1196179 0.05127,-0.3178711 0.03417,-0.1982308 0.05126,-0.3657111 0.05127,-0.5024414 C 13.233713,4.2941845 13.12092,3.9011185 12.895344,3.5661449 12.669748,3.2311973 12.334788,3.063717 11.890462,3.0637035 11.370921,3.063717 11.111156,3.1081505 11.111165,3.1970043 10.728344,3.4636189 10.360913,3.9062454 10.00887,4.5248852 9.6568118,5.1435489 9.3491949,5.8134701 9.0860183,6.5346508 8.8228283,7.2558515 8.5886976,7.9804601 8.3836257,8.7084789 8.1785418,9.4365133 7.9973896,10.118397 7.8401687,10.754133 7.669265,11.444568 7.4488062,12.105944 7.1787918,12.738264 6.9087677,13.370591 6.5891879,13.967026 6.2200515,14.527571 6.38411,14.472885 6.58577,14.445542 6.825032,14.445539 l 0.1333008,0 c 0.4853465,3e-6 0.9706975,0.04956 1.4560547,0.148682 0.485345,0.09912 1.0663991,0.244387 1.7431645,0.435791 0.676749,0.191408 1.240713,0.333253 1.691894,0.425537 0.451162,0.09229 0.926259,0.141847 1.425293,0.148682 0.15038,10e-7 0.273426,-0.06836 0.369141,-0.205078 0.09569,-0.136718 0.189685,-0.326415 0.281982,-0.569092 0.09227,-0.242674 0.169178,-0.405027 0.230713,-0.487061 0.211902,-0.232419 0.471667,-0.434079 0.779297,-0.60498 0.307604,-0.170896 0.615221,-0.276852 0.922851,-0.317871 l 0.123047,0 c 0.041,3e-6 0.07518,0.01367 0.102539,0.04101 0.02733,0.02735 0.041,0.06153 0.04102,0.10254 -1.4e-5,2e-6 -0.0069,0.02051 -0.02051,0.06152 -0.136732,0.546877 -0.458021,1.085207 -0.963867,1.61499 -0.505872,0.529786 -1.081799,0.950196 -1.727783,1.261231 -0.646009,0.311043 -1.239026,0.46656 -1.779055,0.46656 l -0.123047,0 c -0.48536,0 -0.960457,-0.04443 -1.425293,-0.1333 C 9.6209232,16.745832 9.050123,16.605696 8.3733718,16.414289 7.6966087,16.222884 7.1172636,16.075911 6.6353347,15.973372 6.1533973,15.870833 5.6697552,15.816146 5.184407,15.809309 4.5623345,16.492903 3.919757,16.879133 3.2566726,16.968 z"
       id="path5201" />
  </g>
</svg>
