<?xml version="1.0" encoding="UTF-8" standalone="no"?>
<!-- Created with Inkscape (http://www.inkscape.org/) -->

<svg
   xmlns:dc="http://purl.org/dc/elements/1.1/"
   xmlns:cc="http://creativecommons.org/ns#"
   xmlns:rdf="http://www.w3.org/1999/02/22-rdf-syntax-ns#"
   xmlns:svg="http://www.w3.org/2000/svg"
   xmlns="http://www.w3.org/2000/svg"
   version="1.0"
   width="128"
   height="128"
   id="svg2">
  <defs
     id="defs4" />
  <metadata
     id="metadata7">
    <rdf:RDF>
      <cc:Work
         rdf:about="">
        <dc:format>image/svg+xml</dc:format>
        <dc:type
           rdf:resource="http://purl.org/dc/dcmitype/StillImage" />
        <dc:title></dc:title>
      </cc:Work>
    </rdf:RDF>
  </metadata>
  <g
     transform="matrix(6.4003365,0,0,6.4003365,-0.00144233,-0.00138225)"
     id="text4755"
     style="font-size:21px;font-style:normal;font-variant:normal;font-weight:normal;font-stretch:normal;text-align:start;line-height:125%;letter-spacing:0px;word-spacing:0px;writing-mode:lr-tb;text-anchor:start;fill:#000000;fill-opacity:1;stroke:none;font-family:cmsy10;-inkscape-font-specification:cmsy10">
    <path
       d="M 7.3733776,17.080994 C 5.8352871,17.080993 4.6321633,16.535828 3.7640026,15.445496 2.8958369,14.355166 2.4617553,13.017032 2.4617565,11.431091 2.4617553,9.3598095 3.1453483,7.4081513 4.5125377,5.5761108 4.8338232,5.1522942 5.3020845,4.6464353 5.9173229,4.0585327 6.532552,3.4706552 7.1580396,2.9613784 7.7937877,2.5307007 8.4295227,2.1000511 8.9695613,1.8607936 9.4139049,1.8129272 l 0.1025391,0 C 9.612139,1.8607932 9.6599903,1.918899 9.6599987,1.9872437 9.6599903,2.0419457 9.6326467,2.110305 9.5779677,2.1923218 9.4959279,2.2948752 9.1455865,2.5648944 8.526942,3.0023804 7.908283,3.4398936 7.5647775,3.689405 7.4964244,3.7509155 6.8538407,4.3114747 6.3001303,4.9335444 5.8352916,5.6171265 5.349936,6.3417461 4.9773778,7.1244602 4.7176158,7.965271 4.457847,8.8060991 4.3279643,9.6674264 4.3279674,10.549255 c -3.1e-6,0.936529 0.1726042,1.809819 0.5178223,2.619873 0.3452109,0.810062 0.8647416,1.457766 1.5585937,1.943116 0.6938418,0.485352 1.5192805,0.728028 2.4763184,0.728027 1.0048742,1e-6 1.9362702,-0.254638 2.7941892,-0.763916 0.857899,-0.509275 1.580799,-1.17407 2.168701,-1.994385 0.587878,-0.820308 1.045885,-1.734614 1.374024,-2.74292 C 15.545727,9.3307568 15.709789,8.3515097 15.709803,7.4013062 15.709789,6.6356911 15.595287,5.9264633 15.366297,5.2736206 15.13728,4.6208006 14.776684,4.087598 14.28451,3.6740112 13.79231,3.2604504 13.166823,3.0536635 12.408046,3.0536499 12.100418,3.0536635 11.806472,3.1151868 11.52621,3.2382202 11.068192,3.4843271 10.632401,3.9269536 10.218837,4.5661011 9.8052538,5.2052726 9.4583303,5.863231 9.1780651,6.539978 9.0345026,6.7860816 8.8054989,7.0014134 8.4910533,7.1859741 8.1765933,7.3705537 7.8723944,7.4765106 7.5784557,7.5038452 l -0.1025391,0 c -0.02735,-0.013663 -0.058112,-0.034171 -0.092285,-0.061523 -0.034186,-0.027335 -0.051276,-0.061514 -0.05127,-0.1025391 -6e-6,-0.027334 0.00683,-0.061514 0.020508,-0.102539 0.6288997,-1.579091 1.4902269,-2.8334843 2.5839845,-3.763184 0.5878809,-0.5058458 1.2065329,-0.9091657 1.8559569,-1.209961 0.649403,-0.3007666 1.319324,-0.451157 2.009766,-0.4511719 l 0.123047,0 c 0.847642,1.49e-5 1.541489,0.2187646 2.081543,0.65625 0.540023,0.4375138 0.936507,1.0134409 1.189453,1.7277832 0.252913,0.7143672 0.379378,1.4817004 0.379394,2.302002 -1.6e-5,0.9091889 -0.121354,1.8012779 -0.364013,2.6762695 -0.242692,0.8750071 -0.587906,1.6953181 -1.035645,2.4609371 -0.447768,0.76563 -0.996352,1.473148 -1.645752,2.122559 -0.663098,0.649416 -1.368908,1.220217 -2.117432,1.712402 -0.748545,0.492189 -1.54664,0.883546 -2.394287,1.174073 -0.8476638,0.290527 -1.6953192,0.43579 -2.5429684,0.435791 z"
       id="path5139" />
  </g>
</svg>
