<?xml version="1.0" encoding="UTF-8" standalone="no"?>
<!-- Created with Inkscape (http://www.inkscape.org/) -->

<svg
   xmlns:dc="http://purl.org/dc/elements/1.1/"
   xmlns:cc="http://creativecommons.org/ns#"
   xmlns:rdf="http://www.w3.org/1999/02/22-rdf-syntax-ns#"
   xmlns:svg="http://www.w3.org/2000/svg"
   xmlns="http://www.w3.org/2000/svg"
   version="1.0"
   width="128"
   height="128"
   id="svg2">
  <defs
     id="defs4" />
  <metadata
     id="metadata7">
    <rdf:RDF>
      <cc:Work
         rdf:about="">
        <dc:format>image/svg+xml</dc:format>
        <dc:type
           rdf:resource="http://purl.org/dc/dcmitype/StillImage" />
        <dc:title></dc:title>
      </cc:Work>
    </rdf:RDF>
  </metadata>
  <g
     transform="matrix(6.2384926,0,0,6.4002879,1.6882343,-0.00328013)"
     id="text4755"
     style="font-size:22px;font-style:normal;font-variant:normal;font-weight:normal;font-stretch:normal;text-align:start;line-height:125%;letter-spacing:0px;word-spacing:0px;writing-mode:lr-tb;text-anchor:start;fill:#000000;fill-opacity:1;stroke:none;font-family:msbm10;-inkscape-font-specification:msbm10">
    <path
       d="M 3.3373718,17 C 3.2514338,17 3.1708672,16.95882 3.0956726,16.876465 3.0204766,16.794105 2.9828791,16.7028 2.9828796,16.602539 c -5e-7,-0.0931 0.034016,-0.173665 0.1020508,-0.241699 0.068033,-0.06803 0.1521802,-0.112792 0.2524414,-0.134278 0.458332,10e-7 0.7985009,-0.04655 1.0205078,-0.139648 0.2220031,-0.0931 0.3670225,-0.259602 0.4350586,-0.499512 0.068032,-0.239907 0.1020484,-0.589028 0.1020508,-1.047363 l 0,-10.9999999 c -2.4e-6,-0.021471 0.00716,-0.050117 0.021484,-0.085937 0.01432,-0.035794 0.021482,-0.060859 0.021484,-0.075195 C 4.5512369,2.9277484 4.1072269,2.7021627 3.6059265,2.7021484 3.505665,2.7021627 3.421518,2.6574037 3.3534851,2.5678711 3.2854504,2.4783674 3.2514335,2.3906396 3.2514343,2.3046875 3.2514335,2.1041816 3.3695975,1.9788562 3.6059265,1.9287109 l 4.5976563,0 c 0.071609,1.51e-5 0.1575461,0.050145 0.2578125,0.1503907 l 6.7783207,9.1308594 0,-6.8212891 C 15.239703,3.6868623 15.134071,3.2303198 14.922821,3.019043 14.711546,2.8077941 14.251423,2.7021627 13.54245,2.7021484 13.44934,2.7021627 13.366983,2.659194 13.29538,2.5732422 13.223754,2.4873192 13.187947,2.3978011 13.187958,2.3046875 c -1.1e-5,-0.093084 0.03401,-0.1736505 0.102051,-0.2416992 0.06802,-0.068019 0.15217,-0.1127779 0.252441,-0.1342774 l 3.985352,0 c 0.09308,1.51e-5 0.17544,0.039403 0.24707,0.1181641 0.0716,0.078791 0.107406,0.1647283 0.107422,0.2578125 -1.6e-5,0.2148582 -0.11818,0.3473451 -0.354492,0.3974609 -0.630223,1.43e-5 -1.015151,0.1145976 -1.154786,0.34375 -0.139662,0.2291804 -0.209486,0.6767711 -0.209472,1.3427735 l 0,12.6757811 c -1.4e-5,0.107422 -0.04298,0.193359 -0.128907,0.257813 -0.08595,0.06445 -0.168307,0.09668 -0.24707,0.09668 -0.09311,0 -0.196953,-0.05013 -0.311523,-0.15039 L 5.8188171,4.5283203 l 0,10.0546877 c -3.3e-6,0.479819 0.046546,0.830731 0.1396485,1.052734 0.093095,0.222007 0.2595991,0.375978 0.4995117,0.461914 0.2399046,0.08594 0.5926061,0.128907 1.0581055,0.128906 0.1002552,10e-7 0.1844023,0.0376 0.2524414,0.112793 0.068028,0.0752 0.1020453,0.162924 0.1020508,0.263184 C 7.8705695,16.817383 7.7524056,16.94987 7.5160828,17 z m 12.0527342,-1.117187 0,-3.168946 -7.4121092,-10.0117186 -2.6210937,0 c 0.00716,1.43e-5 0.032224,0.02866 0.075195,0.085937 0.143226,0.1432433 0.2506478,0.2614072 0.3222656,0.3544922 z"
       id="path4760" />
  </g>
</svg>
