<?xml version="1.0" encoding="UTF-8" standalone="no"?>
<!-- Created with Inkscape (http://www.inkscape.org/) -->

<svg
   xmlns:dc="http://purl.org/dc/elements/1.1/"
   xmlns:cc="http://creativecommons.org/ns#"
   xmlns:rdf="http://www.w3.org/1999/02/22-rdf-syntax-ns#"
   xmlns:svg="http://www.w3.org/2000/svg"
   xmlns="http://www.w3.org/2000/svg"
   version="1.0"
   width="128"
   height="128"
   id="svg2">
  <defs
     id="defs4" />
  <metadata
     id="metadata7">
    <rdf:RDF>
      <cc:Work
         rdf:about="">
        <dc:format>image/svg+xml</dc:format>
        <dc:type
           rdf:resource="http://purl.org/dc/dcmitype/StillImage" />
        <dc:title></dc:title>
      </cc:Work>
    </rdf:RDF>
  </metadata>
  <g
     transform="matrix(6.4662286,0,0,6.4000622,-0.87383595,2.4094288)"
     id="text4755"
     style="font-size:20.46978951px;font-style:normal;font-variant:normal;font-weight:normal;font-stretch:normal;text-align:start;line-height:125%;letter-spacing:0px;word-spacing:0px;writing-mode:lr-tb;text-anchor:start;fill:#000000;fill-opacity:1;stroke:none;font-family:msbm10;-inkscape-font-specification:msbm10">
    <path
       d="M 7.2800128,16.343613 C 6.1872199,16.0371 5.2643478,15.544013 4.5113938,14.864351 3.7584338,14.184692 3.1191574,13.098117 2.7426801,12.131929 2.3662004,11.16575 2.2525198,10.116274 2.2525205,8.9834999 2.2525198,7.8973831 2.4257666,6.8962168 2.7722613,5.9799981 3.1187535,5.0637993 3.6101746,4.2791915 4.2465259,3.6261722 4.8828718,2.9731776 5.654153,2.4700957 6.5603717,2.116925 7.4665805,1.763782 8.4594176,1.5872036 9.538886,1.5871892 c 1.086116,1.44e-5 2.082285,0.1782587 2.988509,0.5347333 0.906203,0.3565024 1.675818,0.8595843 2.308849,1.5092472 0.633003,0.6496876 1.122759,1.4326296 1.469267,2.3488284 0.346479,0.9162187 0.519725,1.917385 0.519741,3.0035018 -1.6e-5,0.8862307 -0.04206,1.7241451 -0.275267,2.5137461 -0.233232,0.78961 -0.65595,1.764574 -1.119038,2.397589 -0.463116,0.633019 -1.034497,1.166086 -1.714145,1.599202 -0.679672,0.433118 -1.465946,0.749626 -2.358823,0.949526 0.31983,0.672997 0.79959,0.947408 1.439282,1.350542 0.639669,0.40313 1.332656,0.604696 2.078963,0.604698 0.119926,-2e-6 0.356475,-0.03165 0.709646,-0.09495 0.353143,-0.0633 0.559706,-0.09496 0.619691,-0.09495 0.09327,-2e-6 0.174898,0.03831 0.244877,0.114943 0.06995,0.07663 0.104933,0.161583 0.104948,0.254873 -1.5e-5,0.219887 -0.259885,0.413124 -0.779611,0.579711 -0.519754,0.16658 -1.086138,0.293183 -1.699152,0.37981 -0.61304,0.08662 -1.062815,0.129932 -1.349327,0.129935 -0.766295,-3e-6 -1.510923,-0.148263 -2.233886,-0.444778 C 9.770429,18.92687 9.0578558,18.508746 8.5048059,17.969018 7.951742,17.429286 7.5931838,17.063253 7.2800128,16.343613 z m 0.9095463,0.209895 c 0.4397735,0.806264 1.0727905,1.187289 1.8990529,1.670383 0.826245,0.483089 1.705805,0.724635 2.638684,0.724638 0.173235,-3e-6 0.426442,-0.01333 0.759621,-0.03998 -0.639692,-0.199903 -1.282301,-0.526406 -1.778709,-0.979511 -0.496429,-0.453109 -0.803346,-0.722523 -1.06987,-1.33555 -0.366493,0.03998 -0.7329765,0.05997 -1.099452,0.05997 -0.3998081,-1e-6 -0.8495833,-0.03332 -1.3493269,-0.09995 z m 1.3493269,-0.61969 c 0.999492,0 1.772439,-0.356489 2.318843,-1.069467 0.546384,-0.712976 0.909535,-1.829536 1.089457,-2.822377 0.179899,-0.992833 0.269854,-2.00566 0.269865,-3.0384841 C 13.21704,7.9706798 13.127085,6.9528552 12.947186,5.950013 12.767264,4.947191 12.404113,4.0892864 11.857729,3.3762968 11.311325,2.6633324 10.538378,2.306844 9.538886,2.3068303 8.5393776,2.306844 7.7647648,2.6633324 7.2150452,3.3762968 6.6653143,4.0892864 6.3004966,4.9405276 6.1205911,5.930023 5.9406765,6.9195385 5.8507214,7.9273681 5.8507257,8.9535148 l 0,0.029985 c -4.3e-6,1.0261612 0.089951,2.0406542 0.2698654,3.0434822 0.1799055,1.002836 0.5447232,2.124393 1.0944541,2.837369 0.5497196,0.712978 1.3243324,1.069467 2.3238408,1.069467 z M 6.750277,15.404082 C 6.1239182,14.704432 5.6974647,13.549558 5.4709151,12.466762 5.2443578,11.383974 5.1310811,10.222887 5.1310847,8.9834999 5.1310811,8.2438766 5.1727269,7.4975829 5.2560223,6.7446167 5.3393104,5.9916689 5.4975646,5.2753603 5.7307855,4.5956886 5.9639981,3.9160397 6.3038283,3.3296661 6.750277,2.836566 5.9106914,3.1764093 5.2077095,3.6545037 4.6413289,4.2708506 4.0749423,4.8872209 3.6534863,5.5968662 3.3769596,6.3997887 3.1004294,7.2027303 2.9621651,8.0639665 2.9621665,8.9834999 c -1.4e-6,0.9128841 0.063704,1.7757861 0.3402344,2.5887091 0.2765267,0.812931 0.7692097,1.787895 1.328933,2.397588 0.5597172,0.609698 1.2660309,1.087792 2.1189431,1.434285 z m 5.567223,0 c 0.852896,-0.346493 1.55921,-0.824587 2.118943,-1.434285 0.559707,-0.609693 1.052391,-1.584657 1.328933,-2.397588 0.276515,-0.812923 0.34022,-1.675825 0.340234,-2.5887091 C 16.105596,8.0639665 15.967332,7.2027303 15.690817,6.3997887 15.414275,5.5968662 14.992819,4.8872209 14.426448,4.2708506 13.860052,3.6545037 13.15707,3.1764093 12.3175,2.836566 c 0.626343,0.6863368 1.052796,1.5708947 1.279362,2.6536764 0.226541,1.0828026 0.339818,2.2472206 0.33983,3.4932575 -1.2e-5,2.9118851 -0.539742,5.2278451 -1.619192,6.4205821 z"
       id="path4824" />
  </g>
</svg>
