<?xml version="1.0" encoding="UTF-8" standalone="no"?>
<!-- Created with Inkscape (http://www.inkscape.org/) -->

<svg
   xmlns:dc="http://purl.org/dc/elements/1.1/"
   xmlns:cc="http://creativecommons.org/ns#"
   xmlns:rdf="http://www.w3.org/1999/02/22-rdf-syntax-ns#"
   xmlns:svg="http://www.w3.org/2000/svg"
   xmlns="http://www.w3.org/2000/svg"
   version="1.0"
   width="128"
   height="128"
   id="svg2">
  <defs
     id="defs4" />
  <metadata
     id="metadata7">
    <rdf:RDF>
      <cc:Work
         rdf:about="">
        <dc:format>image/svg+xml</dc:format>
        <dc:type
           rdf:resource="http://purl.org/dc/dcmitype/StillImage" />
        <dc:title></dc:title>
      </cc:Work>
    </rdf:RDF>
  </metadata>
  <g
     transform="matrix(-5.9583402,0,0,5.9596784,127.3659,0.54027645)"
     id="text3320"
     style="font-size:16px;font-style:normal;font-variant:normal;font-weight:bold;font-stretch:normal;text-align:start;line-height:125%;letter-spacing:0px;word-spacing:0px;writing-mode:lr-tb;text-anchor:start;fill:#000000;fill-opacity:1;stroke:none;font-family:msbm10;-inkscape-font-specification:msbm10 Bold" />
  <g
     transform="matrix(8,0,0,8,-2.743504,-2.605088)"
     id="text2984"
     style="font-size:20px;font-style:normal;font-variant:normal;font-weight:normal;font-stretch:normal;line-height:125%;letter-spacing:0px;word-spacing:0px;fill:#0000aa;fill-opacity:1;stroke:none;font-family:eufm10;-inkscape-font-specification:eufm10">
    <path
       d="m 1.9991769,14.185016 -0.3125,-0.214844 C 2.7348523,13.162882 3.4737838,12.596476 3.9034737,12.270953 4.4177933,11.893352 4.897936,11.519003 5.3439034,11.147906 5.7898622,10.776817 6.2146665,10.395958 6.6183175,10.005328 7.080551,9.543094 7.4386236,9.1215449 7.6925362,8.7406797 7.9464356,8.3598269 8.1287271,7.9496711 8.2394112,7.510211 8.350081,7.0707657 8.4054195,6.5287741 8.4054269,5.8842344 8.4054195,5.2332025 8.2589353,4.6309895 7.9659737,4.0775938 7.6729984,3.5242198 7.2677253,3.0847671 6.7501534,2.7592344 6.2325701,2.4337261 5.651516,2.2709658 5.0069894,2.2709532 4.6554232,2.2709658 4.3054887,2.3572288 3.9571847,2.5297422 3.6088748,2.7022805 3.3224168,2.9350277 3.0978097,3.2279844 2.8731985,3.5209646 2.7608939,3.8399747 2.7608956,4.1850157 c -1.7e-6,0.1888126 0.071613,0.3759869 0.2148438,0.5615234 0.143227,0.1855569 0.3515602,0.4248145 0.625,0.7177735 0.7096321,0.7096441 1.0644495,1.2760498 1.0644531,1.6992187 -3.6e-6,0.5338614 -0.236006,1.0335354 -0.7080078,1.4990234 C 3.485177,9.1280553 2.9399302,9.5170523 2.3214425,9.8295469 L 1.9991769,9.6049376 C 2.8520396,9.1166621 3.2784715,8.5828085 3.2784737,8.0033751 3.2784715,7.7234343 2.9985239,7.3035129 2.43863,6.7436094 2.1326393,6.4180971 1.8966369,6.1039698 1.7306222,5.8012266 1.564606,5.4985017 1.4815983,5.1746088 1.4815987,4.8295469 1.4815983,4.178516 1.8364156,3.5046886 2.5460519,2.8080626 3.0603728,2.2807314 3.6560753,1.8819688 4.3331612,1.6117735 5.0102406,1.3416048 5.7263857,1.2065138 6.4815987,1.2065001 7.1977384,1.2065138 7.8194826,1.336722 8.3468331,1.5971251 8.874169,1.8575548 9.2778145,2.2432966 9.5577706,2.7543516 9.8377097,3.265431 9.9776835,3.8822923 9.9776925,4.6049376 9.9776835,5.0476558 9.9418763,5.5001293 9.8702706,5.9623594 9.7986473,6.4246075 9.6928531,6.8656878 9.5528878,7.2856016 9.4129055,7.7055307 9.2354968,8.1270798 9.0206612,8.5502501 L 5.6222237,11.851031 c 0.4947866,3e-6 1.0221298,0.279951 1.5820313,0.839844 l 0.9570312,0.957031 2.8808598,-1.796875 0,-6.3867184 c -1e-5,-0.7486878 -0.03256,-1.6015515 -0.09766,-2.5585938 l 2.558594,-1.9140625 0.322266,0.2148438 c -0.195325,0.1757947 -0.367851,0.3320446 -0.517578,0.46875 -0.149752,0.1367318 -0.275077,0.283216 -0.375977,0.4394531 -0.100923,0.1562626 -0.1644,0.3483197 -0.19043,0.5761719 -0.03256,0.3711056 -0.05698,0.9635529 -0.07324,1.7773437 -0.01629,0.8138117 -0.02443,1.7806076 -0.02441,2.9003906 -1.1e-5,0.403653 0.01138,0.9570379 0.03418,1.6601563 0.02278,0.7031302 0.04393,1.3574263 0.06348,1.9628903 -1.1e-5,0.25391 0.14159,0.719405 0.424805,1.396485 0.283191,0.677085 0.522448,1.015626 0.717773,1.015625 0.06509,1e-6 0.149727,-0.02604 0.253907,-0.07813 0.20832,-0.09114 0.37759,-0.161131 0.507812,-0.209961 0.130195,-0.04883 0.283189,-0.118813 0.458985,-0.209961 l 0.09766,0.322265 -2.88086,2.236329 -1.279296,-2.978516 -4.0429691,2.978516 c -0.8658905,-1.425781 -1.7513063,-2.138671 -2.65625,-2.138672 -0.3710967,1e-6 -0.7438177,0.07487 -1.1181641,0.224609 -0.3743508,0.149741 -0.782879,0.361329 -1.2255859,0.634766 z"
       id="path2989"
       style="fill:#0000aa" />
  </g>
</svg>
