<?xml version="1.0" encoding="UTF-8" standalone="no"?>
<!-- Created with Inkscape (http://www.inkscape.org/) -->

<svg
   xmlns:dc="http://purl.org/dc/elements/1.1/"
   xmlns:cc="http://creativecommons.org/ns#"
   xmlns:rdf="http://www.w3.org/1999/02/22-rdf-syntax-ns#"
   xmlns:svg="http://www.w3.org/2000/svg"
   xmlns="http://www.w3.org/2000/svg"
   version="1.0"
   width="128"
   height="128"
   id="svg2">
  <defs
     id="defs4" />
  <metadata
     id="metadata7">
    <rdf:RDF>
      <cc:Work
         rdf:about="">
        <dc:format>image/svg+xml</dc:format>
        <dc:type
           rdf:resource="http://purl.org/dc/dcmitype/StillImage" />
        <dc:title></dc:title>
      </cc:Work>
    </rdf:RDF>
  </metadata>
  <g
     transform="matrix(6.0798568,0,0,6.0798568,1.6537263,3.1590287)"
     id="text4755"
     style="font-size:21.89003944px;font-style:normal;font-variant:normal;font-weight:normal;font-stretch:normal;text-align:start;line-height:125%;letter-spacing:0px;word-spacing:0px;writing-mode:lr-tb;text-anchor:start;fill:#000000;fill-opacity:1;stroke:none;font-family:msbm10;-inkscape-font-specification:msbm10">
    <path
       d="m 10.786531,17.416851 c -1.1614902,0 -2.2249944,-0.192393 -3.1905155,-0.577178 C 6.6304836,16.454887 5.8074702,15.911556 5.1269729,15.209677 4.4464698,14.507802 3.9245154,13.666974 3.5611083,12.687192 3.1976984,11.707418 3.0159942,10.643914 3.015995,9.4966759 3.0159942,8.342327 3.1994798,7.2752599 3.5664525,6.2954714 3.9334225,5.3157043 4.4607211,4.4748768 5.1483499,3.7729864 5.8359728,3.0711225 6.6572048,2.531354 7.6120482,2.1536793 8.5668808,1.7760343 9.6250408,1.5872044 10.786531,1.587189 c 0.855071,1.54e-5 1.670958,0.174594 2.447666,0.5237363 0.691178,0.3206695 1.339612,0.4809967 1.945306,0.4809823 0.178129,1.44e-5 0.329549,-0.062335 0.454261,-0.1870486 0.124686,-0.1246844 0.187035,-0.2796675 0.187049,-0.4649496 -1.4e-5,-0.085493 0.04096,-0.1656565 0.122918,-0.2404912 0.08193,-0.074804 0.172783,-0.1122138 0.272556,-0.1122292 0.09262,1.54e-5 0.178128,0.035644 0.256524,0.106885 0.07837,0.071272 0.117559,0.1532169 0.117574,0.2458354 l 0,4.3822833 c -1.5e-5,0.09977 -0.03921,0.1852777 -0.117574,0.2565239 -0.0784,0.071267 -0.163904,0.1068952 -0.256524,0.1068849 C 15.988252,6.6856118 15.863553,6.5929783 15.84219,6.4077006 15.742417,5.9445435 15.51974,5.468906 15.174159,4.9807864 14.828552,4.492691 14.409919,4.0509003 13.918261,3.655413 13.426579,3.2599524 12.906406,2.944642 12.35774,2.7094811 11.809055,2.4743487 11.285319,2.3567754 10.786531,2.3567607 10.031203,2.3567754 9.3970198,2.5937035 8.8839792,3.0675457 8.3709252,3.5414158 7.9647628,4.1560037 7.6654907,4.9113112 7.3662076,5.6666429 7.1577822,6.4433395 7.0402137,7.2414033 6.9226355,8.0394866 6.8638488,8.7983691 6.8638535,9.5180529 c -4.7e-6,1.8384271 0.2992729,3.4399181 0.8978336,4.8044791 0.5985496,1.364566 1.6994636,2.046847 3.3027449,2.046847 1.026086,0 2.016552,-0.222676 2.971402,-0.668031 0.954826,-0.445352 1.7529,-1.056378 2.394223,-1.833077 0.128248,-0.09976 0.23157,-0.149636 0.309967,-0.149639 0.121121,3e-6 0.228006,0.04276 0.320655,0.128262 0.09262,0.08551 0.138935,0.188833 0.13895,0.309966 -1.5e-5,0.09264 -0.02139,0.171019 -0.06413,0.235147 -0.790963,0.961966 -1.738675,1.706597 -2.84314,2.233896 -1.104489,0.527299 -2.273097,0.790948 -3.505827,0.790948 z M 8.4457509,16.326625 C 7.5407862,15.649688 6.9244169,14.703757 6.5966411,13.488829 6.2688565,12.273908 6.1049664,10.943192 6.1049703,9.4966759 6.1049664,8.8696256 6.1370318,8.2550377 6.2011667,7.6529104 6.2652937,7.0508018 6.3703971,6.4629351 6.5164774,5.8893086 6.662549,5.3157043 6.8638488,4.7599031 7.1203774,4.2219032 7.3768961,3.6839289 7.7011135,3.2082913 8.0930305,2.7949891 6.6678933,3.3080505 5.5919191,4.1613479 4.8651048,5.3548838 4.1382851,6.548443 3.7748766,7.9290389 3.7748782,9.4966759 c -1.6e-6,1.6602851 0.3901281,3.0925421 1.1703903,4.2967751 0.7802567,1.204239 1.947083,2.04863 3.5004824,2.533174 z m 7.3750621,-11.7359686 0,-1.378816 c -0.06414,0.035642 -0.14609,0.07127 -0.245835,0.1068849 -0.17103,0.028516 -0.292166,0.042768 -0.363409,0.042754 -0.220909,1.37e-5 -0.391924,-0.00711 -0.513048,-0.021377 0.470281,0.4204274 0.844378,0.8372784 1.122292,1.2505541 z"
       id="path4953" />
  </g>
</svg>
