<?xml version="1.0" encoding="UTF-8" standalone="no"?>
<!-- Created with Inkscape (http://www.inkscape.org/) -->

<svg
   xmlns:dc="http://purl.org/dc/elements/1.1/"
   xmlns:cc="http://creativecommons.org/ns#"
   xmlns:rdf="http://www.w3.org/1999/02/22-rdf-syntax-ns#"
   xmlns:svg="http://www.w3.org/2000/svg"
   xmlns="http://www.w3.org/2000/svg"
   version="1.0"
   width="128"
   height="128"
   id="svg2">
  <defs
     id="defs4" />
  <metadata
     id="metadata7">
    <rdf:RDF>
      <cc:Work
         rdf:about="">
        <dc:format>image/svg+xml</dc:format>
        <dc:type
           rdf:resource="http://purl.org/dc/dcmitype/StillImage" />
        <dc:title></dc:title>
      </cc:Work>
    </rdf:RDF>
  </metadata>
  <g
     transform="matrix(-5.9583402,0,0,5.9596784,127.3659,0.54027645)"
     id="text3320"
     style="font-size:16px;font-style:normal;font-variant:normal;font-weight:bold;font-stretch:normal;text-align:start;line-height:125%;letter-spacing:0px;word-spacing:0px;writing-mode:lr-tb;text-anchor:start;fill:#000000;fill-opacity:1;stroke:none;font-family:msbm10;-inkscape-font-specification:msbm10 Bold" />
  <g
     transform="matrix(8,0,0,9.7744416,-0.011472,-17.839072)"
     id="text3060"
     style="font-size:16px;font-style:normal;font-variant:normal;font-weight:normal;font-stretch:normal;text-align:start;line-height:125%;letter-spacing:0px;word-spacing:0px;writing-mode:lr-tb;text-anchor:start;fill:#0000aa;fill-opacity:1;stroke:none;font-family:rsfs10;-inkscape-font-specification:rsfs10">
    <path
       d="m 15.249482,2.5439453 c 0.01073,-0.010731 0.128076,-0.016102 0.352051,-0.016113 0.223942,1.15e-5 0.351871,0.010754 0.383789,0.032227 0.02147,0.042655 0.03221,0.074556 0.03223,0.095703 -1.6e-5,0.032238 -1.00799,1.6803482 -3.023926,4.944336 L 9.9535833,12.496094 c 0.031891,1e-6 0.1759337,-0.06933 0.4321287,-0.208008 0.362619,-0.223956 0.666493,-0.453286 0.911621,-0.687988 0.106759,-0.127928 0.181466,-0.191892 0.224121,-0.191895 0.06412,-0.02148 0.11213,0.005 0.144043,0.07959 0.01073,0.04265 -0.01059,0.144045 -0.06396,0.304199 l -0.09619,0.271973 -0.159668,0.144043 c -0.522798,0.512045 -1.109548,0.874675 -1.7602537,1.08789 l -0.1757813,0.06397 -0.1762695,0.3042 C 9.1269136,13.845378 9.0575778,13.951986 9.0253607,13.983887 9.0041924,13.994629 8.7162695,14 8.1615911,14 l -0.8159179,0 -0.04834,-0.03223 c -0.053068,-0.0638 -0.021004,-0.175781 0.096191,-0.335937 l 0.1279297,-0.191895 -0.063965,0 c -0.031909,1e-6 -0.1225663,-0.01058 -0.2719727,-0.03174 -0.89584,-0.08561 -1.6852272,-0.256347 -2.368164,-0.512207 l -0.1757813,-0.08008 -0.1762695,0.12793 c -0.8317098,0.618815 -1.652998,1.002929 -2.4638672,1.152343 -0.2773459,0.04264 -0.581382,0.04264 -0.9121094,0 C 0.8015639,14.021322 0.57760579,13.90918 0.41745052,13.759766 0.2253926,13.589193 0.14010623,13.365235 0.16159114,13.087891 c 0.0107416,-0.149413 0.0587559,-0.314778 0.14404297,-0.496094 0.14941321,-0.309243 0.33072813,-0.538572 0.54394531,-0.687988 0.18131368,-0.117186 0.35188638,-0.19173 0.51171878,-0.223633 0.1708965,-0.05338 0.3523742,-0.05875 0.5444336,-0.01611 0.3199843,0.09603 0.4692355,0.32536 0.4477539,0.687988 -0.010745,0.09603 -0.032067,0.165366 -0.063965,0.208008 -0.1705754,0.277345 -0.4584983,0.447917 -0.8637695,0.511718 -0.064129,0.01074 -0.1282569,0.01611 -0.1923828,0.01611 -0.09603,1e-6 -0.1386734,0.01611 -0.1279297,0.04834 0.064126,0.08529 0.1974267,0.154624 0.3999023,0.208008 0.1813131,0.04264 0.4319639,0.04264 0.7519532,0 0.5227832,-0.10677 1.0774702,-0.373534 1.6640625,-0.800293 l 0.063965,-0.06397 -0.1435547,-0.09619 C 3.2870757,12.021161 2.9190748,11.567874 2.737763,11.023926 2.6736323,10.842614 2.6361975,10.613285 2.6254583,10.335938 c -3e-6,-0.223955 0.00537,-0.3839483 0.016113,-0.479981 C 2.7375971,9.2052457 3.0362622,8.511887 3.5375677,7.7758789 3.7615219,7.4451563 4.0281232,7.1998766 4.3373724,7.0400391 4.8067682,6.7946036 5.4202116,6.6932039 6.1777044,6.7358398 7.0842725,6.7999746 7.8254827,7.0559965 8.4013372,7.5039062 l 0.128418,0.096191 0.2558594,-0.2241211 C 10.236125,6.1171954 11.841429,4.9384856 13.601533,3.8398438 l 1.151855,-0.7036133 c 0.06411,-0.042958 0.15477,-0.1443575 0.271973,-0.3041992 0.09601,-0.1386606 0.17072,-0.2346892 0.224121,-0.288086 z M 13.841767,4.512207 c 0.08527,-0.1067612 0.117173,-0.1601466 0.0957,-0.1601562 -0.01076,9.6e-6 -0.202814,0.1173598 -0.576172,0.3520508 -1.525077,0.9492271 -2.901052,1.9892651 -4.1279295,3.1201171 L 8.9613958,8.0639648 9.0737005,8.2241211 C 9.2123628,8.448085 9.3349213,8.6933647 9.4413763,8.9599609 9.5696215,9.3225958 9.6496996,9.7119184 9.6816107,10.12793 l 0.031738,0.224121 2.0000003,-2.8320315 z M 5.7773138,7.487793 C 5.4895475,7.4666406 5.2922821,7.4773828 5.1855169,7.5200195 4.9827121,7.6267967 4.7480118,7.8774475 4.4814154,8.2719727 4.1936504,8.6987358 3.9963849,9.0988005 3.8896185,9.472168 c -0.074874,0.2347048 -0.1123089,0.4799845 -0.1123047,0.73584 -4.2e-6,0.202803 0.010738,0.346846 0.032227,0.432129 0.053381,0.223961 0.1440386,0.415856 0.2719726,0.575683 0.1279251,0.202802 0.3199822,0.389488 0.5761719,0.560059 l 0.080078,0.04834 0.1279297,-0.128418 C 5.0470024,11.493329 5.1962535,11.301435 5.3134466,11.120117 5.5907844,10.736006 5.9268843,10.309248 6.3217474,9.8398438 6.8975865,9.1679736 7.3562448,8.6826225 7.697724,8.3837891 7.7937444,8.2985083 7.8256454,8.2452857 7.7934271,8.2241211 7.7826767,8.2026425 7.7400335,8.1652077 7.6654974,8.1118164 7.1856721,7.7599346 6.5562782,7.551927 5.7773138,7.487793 z M 8.3534857,8.8959961 C 8.3108337,8.821457 8.2841411,8.7788138 8.2734075,8.7680664 8.2307557,8.7465873 7.8681258,9.1305387 7.1855169,9.9199219 6.8762649,10.261397 6.588342,10.629398 6.3217474,11.023926 5.9695275,11.493329 5.7027634,11.818687 5.5214544,12 l -0.1440429,0.160156 0.1440429,0.04785 c 0.5973242,0.234702 1.4186125,0.394695 2.4638672,0.47998 l 0.064453,0.01611 0.3515625,-0.512207 0.3681641,-0.511719 0.016113,-0.192383 c 0.042634,-0.287758 0.048005,-0.655759 0.016113,-1.104004 -0.010751,-0.05306 -0.016122,-0.0957 -0.016113,-0.12793 C 8.700319,9.6692752 8.5562762,9.2159879 8.3534857,8.8959961 z"
       id="path3065"
       style="fill:#0000aa" />
  </g>
</svg>
