<?xml version="1.0" encoding="UTF-8" standalone="no"?>
<!-- Created with Inkscape (http://www.inkscape.org/) -->

<svg
   xmlns:dc="http://purl.org/dc/elements/1.1/"
   xmlns:cc="http://creativecommons.org/ns#"
   xmlns:rdf="http://www.w3.org/1999/02/22-rdf-syntax-ns#"
   xmlns:svg="http://www.w3.org/2000/svg"
   xmlns="http://www.w3.org/2000/svg"
   version="1.0"
   width="128"
   height="128"
   id="svg2">
  <defs
     id="defs4" />
  <metadata
     id="metadata7">
    <rdf:RDF>
      <cc:Work
         rdf:about="">
        <dc:format>image/svg+xml</dc:format>
        <dc:type
           rdf:resource="http://purl.org/dc/dcmitype/StillImage" />
        <dc:title></dc:title>
      </cc:Work>
    </rdf:RDF>
  </metadata>
  <g
     transform="matrix(-5.9583402,0,0,5.9596784,127.3659,0.54027645)"
     id="text3320"
     style="font-size:16px;font-style:normal;font-variant:normal;font-weight:bold;font-stretch:normal;text-align:start;line-height:125%;letter-spacing:0px;word-spacing:0px;writing-mode:lr-tb;text-anchor:start;fill:#000000;fill-opacity:1;stroke:none;font-family:msbm10;-inkscape-font-specification:msbm10 Bold" />
  <g
     transform="matrix(8,0,0,8,-4.289544,-0.568568)"
     id="text3197"
     style="font-size:20px;font-style:normal;font-variant:normal;font-weight:normal;font-stretch:normal;line-height:125%;letter-spacing:0px;word-spacing:0px;fill:#0000aa;fill-opacity:1;stroke:none;font-family:cmti10;-inkscape-font-specification:cmti10">
    <path
       d="m 2.3995675,15.111111 c -0.1302096,0 -0.1953137,-0.08789 -0.1953125,-0.263672 0.00651,-0.03255 0.021158,-0.09115 0.043945,-0.175781 0.022785,-0.08464 0.052082,-0.149739 0.087891,-0.195313 0.035806,-0.04557 0.083007,-0.06836 0.1416016,-0.06836 0.4882793,0 0.9228492,-0.112304 1.3037109,-0.336914 0.3808563,-0.224608 0.6884732,-0.545246 0.9228516,-0.961914 -3.7e-6,-0.0065 0.00651,-0.01627 0.019531,-0.0293 0.013017,-0.01302 0.019528,-0.02278 0.019531,-0.0293 L 11.559724,1.0095482 c 0.0716,-0.14321493 0.192046,-0.21482945 0.361328,-0.21484376 l 0.263672,0 c 0.06509,1.431e-5 0.123686,0.0179179 0.175781,0.0537109 0.05207,0.0358215 0.07811,0.0895324 0.07813,0.16113286 l 0.839844,12.9394528 c 0.03254,0.13672 0.12694,0.239259 0.283203,0.307617 0.156237,0.06836 0.325508,0.110678 0.507812,0.126954 0.182279,0.01628 0.393867,0.02441 0.634766,0.02441 0.130195,0 0.195299,0.08789 0.195312,0.263672 -0.04559,0.188802 -0.08139,0.309244 -0.107421,0.361328 -0.02606,0.05208 -0.104181,0.07813 -0.234375,0.07813 l -4.619141,0 c -0.1302171,0 -0.1953212,-0.08789 -0.1953125,-0.263672 0.0065,-0.03255 0.019523,-0.08789 0.039063,-0.166016 0.019523,-0.07812 0.045564,-0.143228 0.078125,-0.195312 0.032543,-0.05208 0.081371,-0.07813 0.1464835,-0.07813 0.390616,0 0.735668,-0.03255 1.035157,-0.09766 0.299468,-0.0651 0.471994,-0.218098 0.517578,-0.458984 l -0.214844,-3.222656 -4.5019526,0 -1.4648438,2.626953 c -0.1041709,0.182293 -0.1562542,0.354819 -0.15625,0.517578 -4.2e-6,0.227866 0.09928,0.390626 0.2978516,0.488281 0.198563,0.09766 0.4182893,0.146485 0.6591797,0.146485 0.1367134,0 0.2050727,0.08789 0.2050781,0.263672 -0.045578,0.188802 -0.081385,0.309244 -0.1074219,0.361328 -0.026047,0.05208 -0.1041718,0.07813 -0.234375,0.07813 z m 4.84375,-5.1757816 4.0624995,0 -0.419921,-6.40625 z"
       id="path3202"
       style="fill:#0000aa" />
  </g>
</svg>
