<?xml version="1.0" encoding="UTF-8" standalone="no"?>
<!-- Created with Inkscape (http://www.inkscape.org/) -->

<svg
   xmlns:dc="http://purl.org/dc/elements/1.1/"
   xmlns:cc="http://creativecommons.org/ns#"
   xmlns:rdf="http://www.w3.org/1999/02/22-rdf-syntax-ns#"
   xmlns:svg="http://www.w3.org/2000/svg"
   xmlns="http://www.w3.org/2000/svg"
   version="1.0"
   width="128"
   height="128"
   id="svg2">
  <defs
     id="defs4" />
  <metadata
     id="metadata7">
    <rdf:RDF>
      <cc:Work
         rdf:about="">
        <dc:format>image/svg+xml</dc:format>
        <dc:type
           rdf:resource="http://purl.org/dc/dcmitype/StillImage" />
        <dc:title></dc:title>
      </cc:Work>
    </rdf:RDF>
  </metadata>
  <g
     transform="matrix(6.4001412,0,0,6.4001412,-0.00138225,-0.00138225)"
     id="text4755"
     style="font-size:21.89003944px;font-style:normal;font-variant:normal;font-weight:normal;font-stretch:normal;text-align:start;line-height:125%;letter-spacing:0px;word-spacing:0px;writing-mode:lr-tb;text-anchor:start;fill:#000000;fill-opacity:1;stroke:none;font-family:msbm10;-inkscape-font-specification:msbm10">
    <path
       d="M 1.6498842,17 C 1.4147368,16.95012 1.2971635,16.818296 1.2971639,16.604526 c -4e-7,-0.199518 0.1175729,-0.324217 0.3527203,-0.374098 l 0.064131,0 c 0.4774182,1e-6 0.8087612,-0.01959 0.9940301,-0.05879 0.1852653,-0.03919 0.3170899,-0.147857 0.3954743,-0.326 0.07838,-0.17814 0.1175712,-0.48098 0.1175735,-0.908522 l 0,-10.9129539 C 3.2210908,3.6180166 3.1765554,3.3276461 3.0874869,3.1530537 2.998414,2.9784889 2.8559009,2.8716041 2.6599471,2.8323988 2.4639898,2.7932218 2.1273025,2.7736263 1.6498842,2.7736121 1.4147368,2.7237467 1.2971635,2.591922 1.2971639,2.3781377 c -4e-7,-0.085493 0.033846,-0.1692197 0.1015407,-0.2511796 0.067693,-0.08193 0.1514197,-0.1229027 0.2511796,-0.1229177 l 6.7123754,0 C 8.5973988,2.053935 8.7149722,2.1786339 8.71498,2.3781377 8.7149722,2.591922 8.5973988,2.7237467 8.3622596,2.7736121 l -0.064131,0 C 7.8207022,2.7736263 7.4875778,2.7932221 7.2987543,2.8323991 7.109918,2.8716041 6.9780933,2.982052 6.9032799,3.1637425 6.8284549,3.3454605 6.7910448,3.6465195 6.7910507,4.0669204 l 0,4.9441945 5.4414643,0 0,-4.9869485 C 12.232504,3.6251423 12.18975,3.3365532 12.104253,3.1583979 12.018734,2.9802703 11.876221,2.8716041 11.676713,2.8323988 11.477184,2.7932218 11.138716,2.7736263 10.661306,2.7736121 10.42615,2.7237467 10.308577,2.591922 10.308586,2.3781377 c -9e-6,-0.092619 0.03562,-0.1781268 0.106885,-0.2565239 0.07125,-0.078367 0.153192,-0.1175584 0.245835,-0.1175734 l 6.723064,0 c 0.09974,0.021392 0.183469,0.065927 0.25118,0.1336062 0.06768,0.067709 0.101524,0.1478722 0.10154,0.2404911 -1.6e-5,0.2137843 -0.11759,0.345609 -0.35272,0.3954744 l -0.06413,0 c -0.484561,1.42e-5 -0.819467,0.01961 -1.004718,0.058787 -0.185283,0.039205 -0.317107,0.1478715 -0.395475,0.3259991 -0.0784,0.1781553 -0.117588,0.4809957 -0.117573,0.9085222 l 0,10.9236426 c -1.5e-5,0.399039 0.04452,0.685846 0.133606,0.860424 0.08906,0.174579 0.23335,0.281464 0.432884,0.320655 0.199503,0.03919 0.537972,0.05879 1.015407,0.05879 0.09974,0.02138 0.183469,0.06591 0.25118,0.133606 0.06768,0.0677 0.101524,0.147859 0.10154,0.240492 -1.6e-5,0.09976 -0.03743,0.190611 -0.112229,0.272556 C 17.550025,16.959027 17.469862,17 17.38437,17 l -6.723064,0 c -0.235156,-0.04988 -0.352729,-0.181704 -0.35272,-0.395474 -9e-6,-0.09263 0.03384,-0.172797 0.101541,-0.240492 0.06768,-0.06769 0.15141,-0.112228 0.251179,-0.133606 l 0.06413,0 c 0.47741,0 0.810534,-0.01959 0.999375,-0.05879 0.188819,-0.03919 0.320643,-0.149638 0.395474,-0.331344 0.07481,-0.181703 0.112218,-0.482762 0.112229,-0.903178 l 0,-4.921287 -5.4414643,0 0,4.97473 c -5.9e-6,0.399039 0.044529,0.685846 0.1336062,0.860424 0.089065,0.174579 0.2315778,0.281464 0.4275398,0.320655 0.1959492,0.03919 0.5326364,0.05879 1.0100629,0.05879 0.2351392,0.04988 0.3527126,0.17458 0.3527204,0.374098 -7.8e-6,0.106885 -0.035636,0.199518 -0.106885,0.277901 C 8.5368307,16.960809 8.4548857,17 8.3622596,17 z m 2.1376992,-0.769572 2.436977,0 C 6.0891676,15.938277 6.0214739,15.524989 6.021479,14.990563 l 0,-10.9663969 c -5.1e-6,-0.541537 0.067689,-0.9583879 0.2030814,-1.250554 l -2.436977,0 c 0.1353846,0.2921661 0.2030783,0.709017 0.2030814,1.250554 l 0,10.9663969 c -3.1e-6,0.534426 -0.067697,0.947714 -0.2030814,1.239865 z m 9.0221106,0 2.426288,0 C 15.107706,15.931151 15.043576,15.517863 15.04359,14.990563 l 0,-10.9663969 c -1.4e-5,-0.5344113 0.06412,-0.9512622 0.192392,-1.250554 l -2.426288,0 c 0.12825,0.2992918 0.192381,0.7161427 0.192393,1.250554 l 0,10.9663969 c -1.2e-5,0.5273 -0.06414,0.940588 -0.192393,1.239865 z"
       id="path4984" />
  </g>
</svg>
