<?xml version="1.0" encoding="UTF-8" standalone="no"?>
<!-- Created with Inkscape (http://www.inkscape.org/) -->

<svg
   xmlns:dc="http://purl.org/dc/elements/1.1/"
   xmlns:cc="http://creativecommons.org/ns#"
   xmlns:rdf="http://www.w3.org/1999/02/22-rdf-syntax-ns#"
   xmlns:svg="http://www.w3.org/2000/svg"
   xmlns="http://www.w3.org/2000/svg"
   version="1.0"
   width="128"
   height="128"
   id="svg2">
  <defs
     id="defs4" />
  <metadata
     id="metadata7">
    <rdf:RDF>
      <cc:Work
         rdf:about="">
        <dc:format>image/svg+xml</dc:format>
        <dc:type
           rdf:resource="http://purl.org/dc/dcmitype/StillImage" />
        <dc:title></dc:title>
      </cc:Work>
    </rdf:RDF>
  </metadata>
  <g
     transform="matrix(6.4001382,0,0,6.4001382,-0.00162267,-0.0011419)"
     id="text4755"
     style="font-size:21.89003944px;font-style:normal;font-variant:normal;font-weight:normal;font-stretch:normal;text-align:start;line-height:125%;letter-spacing:0px;word-spacing:0px;writing-mode:lr-tb;text-anchor:start;fill:#000000;fill-opacity:1;stroke:none;font-family:msbm10;-inkscape-font-specification:msbm10">
    <path
       d="m 3.3539584,17 c -0.085509,0 -0.1656725,-0.04097 -0.2404912,-0.122918 -0.07482,-0.08195 -0.1122298,-0.172797 -0.1122292,-0.272556 -6e-7,-0.06413 0.021376,-0.128262 0.064131,-0.192393 l 8.369092,-13.6385209 -1.7101591,0 C 9.1399907,2.7736263 8.5645939,2.8270687 7.9981098,2.9339395 7.4316145,3.0408384 6.8936274,3.2225427 6.384147,3.4790528 5.8746585,3.7355899 5.4578076,4.0687144 5.1335929,4.4784271 4.8093728,4.8881649 4.6045102,5.3994308 4.5190044,6.0122263 4.4976253,6.0906195 4.4477457,6.1583132 4.3693655,6.2153077 4.2909813,6.2723238 4.2161619,6.3008264 4.1449071,6.3008157 4.0308948,6.3008264 3.9364799,6.2598539 3.8616619,6.177898 3.7868411,6.0959637 3.7494314,5.997986 3.7494327,5.8839643 L 4.1449071,2.3567607 C 4.1662823,2.1643826 4.2838556,2.0468093 4.4976274,2.0040404 l 10.7846926,0 c 0.09975,1.5e-5 0.183472,0.037425 0.251179,0.1122292 0.06768,0.074834 0.101528,0.1621235 0.101541,0.2618681 -1.3e-5,0.071271 -0.01426,0.1354021 -0.04275,0.1923929 l -8.3797806,13.6598974 3.1744836,0 c 0.619924,1e-6 1.223823,-0.09976 1.8117,-0.299278 0.587857,-0.199517 1.115155,-0.484543 1.581897,-0.855079 0.466719,-0.370532 0.855067,-0.815886 1.165046,-1.336062 0.309954,-0.52017 0.511253,-1.090222 0.6039,-1.71016 0.0071,-0.09263 0.04987,-0.174573 0.128262,-0.245835 0.07837,-0.07125 0.16744,-0.10688 0.267212,-0.106885 0.09975,5e-6 0.187035,0.04098 0.261869,0.122918 0.07481,0.08195 0.112215,0.172802 0.112229,0.272556 l -0.619933,4.5533 C 15.677781,16.832547 15.560207,16.957246 15.346451,17 z m 0.7268177,-0.769572 2.2338956,0 8.2515193,-13.4568159 -2.233896,0 z m 9.3417449,0 1.560521,0 0.192393,-1.485701 c -0.463181,0.619935 -1.047485,1.115168 -1.752914,1.485701 z M 4.7541513,3.7783307 C 5.1531858,3.3579301 5.5985393,3.0230243 6.0902133,2.7736121 l -1.229177,0 z"
       id="path4791" />
  </g>
</svg>
