<?xml version="1.0" encoding="UTF-8" standalone="no"?>
<!-- Created with Inkscape (http://www.inkscape.org/) -->

<svg
   xmlns:dc="http://purl.org/dc/elements/1.1/"
   xmlns:cc="http://creativecommons.org/ns#"
   xmlns:rdf="http://www.w3.org/1999/02/22-rdf-syntax-ns#"
   xmlns:svg="http://www.w3.org/2000/svg"
   xmlns="http://www.w3.org/2000/svg"
   version="1.0"
   width="128"
   height="128"
   id="svg2">
  <defs
     id="defs4" />
  <metadata
     id="metadata7">
    <rdf:RDF>
      <cc:Work
         rdf:about="">
        <dc:format>image/svg+xml</dc:format>
        <dc:type
           rdf:resource="http://purl.org/dc/dcmitype/StillImage" />
        <dc:title></dc:title>
      </cc:Work>
    </rdf:RDF>
  </metadata>
  <g
     transform="matrix(6.4003395,0,0,6.4003395,-0.00144233,-0.00144233)"
     id="text4755"
     style="font-size:21px;font-style:normal;font-variant:normal;font-weight:normal;font-stretch:normal;text-align:start;line-height:125%;letter-spacing:0px;word-spacing:0px;writing-mode:lr-tb;text-anchor:start;fill:#000000;fill-opacity:1;stroke:none;font-family:cmsy10;-inkscape-font-specification:cmsy10">
    <path
       d="m 0.98063505,15.374893 c -3.6e-7,-0.246092 0.19824165,-0.487059 0.59472655,-0.7229 0.396483,-0.235838 0.7280257,-0.36743 0.9946289,-0.394776 l 0.1333008,0 c 0.047849,0.02735 0.1623513,0.1897 0.3435059,0.487061 0.1811497,0.297365 0.4033174,0.543458 0.6665039,0.738281 0.2631802,0.194825 0.6340294,0.292237 1.1125488,0.292237 0.095699,-0.123047 0.17773,-0.242675 0.2460937,-0.358887 C 6.076821,13.556537 6.9313123,11.659566 7.6354202,9.7249908 8.0182253,8.6722641 8.3617308,7.5836422 8.6659378,6.4591217 8.9701287,5.334621 9.2076772,4.2528349 9.3785843,3.2137604 l -0.881836,0 C 7.1022106,3.2137735 6.2203755,3.8666049 5.8512405,5.1722565 5.7145167,5.4183611 5.4906399,5.6336929 5.1796097,5.8182526 4.8685703,6.0028332 4.5660803,6.1087901 4.272139,6.1361237 l -0.1230469,0 C 4.0533855,6.0746105 4.005534,6.0028332 4.0055374,5.9207916 4.2174479,5.1756856 4.6361486,4.5023464 5.2616409,3.9007721 5.8871239,3.2992226 6.6134416,2.8275434 7.440596,2.485733 8.2677368,2.1439503 9.0675407,1.9730521 9.84001,1.9730377 l 6.152344,0 c 1.360335,1.44e-5 2.04051,0.2666157 2.040527,0.7998047 -1.7e-5,0.3076304 -0.184587,0.5861946 -0.553711,0.8356934 -0.369157,0.2495241 -0.731461,0.3913697 -1.086914,0.4255371 l -0.102539,0 c -0.102555,-0.054675 -0.153824,-0.095691 -0.153809,-0.1230469 0.0068,-0.041003 0.01366,-0.085437 0.02051,-0.1333008 0.0068,-0.047839 0.01024,-0.082019 0.01025,-0.102539 -1.5e-5,-0.3076043 -0.581069,-0.4614127 -1.743164,-0.4614258 l -3.322265,0 c -0.396495,1.9619252 -0.90919,3.8110444 -1.5380864,5.5473633 l 5.3012694,0 c 0.09569,0.047859 0.14354,0.1093824 0.143555,0.1845703 -0.08888,0.3349679 -0.297378,0.6203681 -0.625488,0.8562011 -0.328139,0.2358459 -0.673353,0.3708559 -1.035645,0.4050289 l -0.123047,0 c -0.102551,-0.05468 -0.153821,-0.109368 -0.153808,-0.164062 l 0,-0.04102 -3.9682622,0 C 8.4864866,11.574117 7.7584599,13.139545 6.9176468,14.698135 6.569008,15.320207 6.073403,15.861954 5.4308304,16.32338 4.7882481,16.784805 4.1456706,17.015517 3.503096,17.015518 l -0.112793,0 C 2.8434258,17.015517 2.3512388,16.870254 1.9137405,16.579727 1.4762397,16.2892 1.1652048,15.887589 0.98063505,15.374893 z"
       id="path5232" />
  </g>
</svg>
