<?xml version="1.0" encoding="UTF-8" standalone="no"?>
<!-- Created with Inkscape (http://www.inkscape.org/) -->

<svg
   xmlns:dc="http://purl.org/dc/elements/1.1/"
   xmlns:cc="http://creativecommons.org/ns#"
   xmlns:rdf="http://www.w3.org/1999/02/22-rdf-syntax-ns#"
   xmlns:svg="http://www.w3.org/2000/svg"
   xmlns="http://www.w3.org/2000/svg"
   version="1.0"
   width="128"
   height="128"
   id="svg2">
  <defs
     id="defs4" />
  <metadata
     id="metadata7">
    <rdf:RDF>
      <cc:Work
         rdf:about="">
        <dc:format>image/svg+xml</dc:format>
        <dc:type
           rdf:resource="http://purl.org/dc/dcmitype/StillImage" />
        <dc:title></dc:title>
      </cc:Work>
    </rdf:RDF>
  </metadata>
  <path
     d="m 92.438925,19 c -0.610432,-0.04414 -1,0.2 -1,0.2 l -25.399955,25.6 -8.399988,0 0,-25.565011 -6.2,0 0,40.365011 -13,13 0,-53.365011 -6.2,0 0,59.565011 -6.4,6.4 c 0,0 -0.975417,1.192205 1,3.2 1.739034,1.767501 3.4,1.2 3.4,1.2 l 2,-2 0,2 6.2,0 0,-8.2 13,-13 0,21.2 6.2,0 0,-19.2 38.599943,0 0,-6.4 -38.599943,0 0,-1.8 10.799962,-11 27.799981,0 0,-6.4 -21.4,0 21.2,-21.2 c 0,0 0.729453,-1.778368 -1,-3.4 -0.969139,-0.90871 -1.989568,-1.155859 -2.6,-1.2 z m -34.799943,32.2 2,0 -2,2 z"
     id="path3881"
     style="color:#000000;fill:#000000;fill-opacity:1;fill-rule:nonzero;stroke:none;visibility:visible;display:inline;overflow:visible;enable-background:accumulate" />
</svg>
