<?xml version="1.0" encoding="UTF-8" standalone="no"?>
<!-- Created with Inkscape (http://www.inkscape.org/) -->

<svg
   xmlns:dc="http://purl.org/dc/elements/1.1/"
   xmlns:cc="http://creativecommons.org/ns#"
   xmlns:rdf="http://www.w3.org/1999/02/22-rdf-syntax-ns#"
   xmlns:svg="http://www.w3.org/2000/svg"
   xmlns="http://www.w3.org/2000/svg"
   version="1.0"
   width="128"
   height="128"
   id="svg2">
  <defs
     id="defs4" />
  <metadata
     id="metadata7">
    <rdf:RDF>
      <cc:Work
         rdf:about="">
        <dc:format>image/svg+xml</dc:format>
        <dc:type
           rdf:resource="http://purl.org/dc/dcmitype/StillImage" />
        <dc:title></dc:title>
      </cc:Work>
    </rdf:RDF>
  </metadata>
  <path
     d="m 86,19 c -0.610432,-0.04414 -1,0.2 -1,0.2 l -23,25.6 -17.2,0 0,-25.565011 -6.2,0 0,51.565011 -13,14.4 c 0,0 -0.775424,1.192205 1.2,3.2 1.739034,1.767501 3.2,1.2 3.2,1.2 l 8.6,-9.6 0,9.6 6.2,0 0,-16.4 2.6,-2.8 42.4,0 0,-6.4 -36.6,0 11.4,-12.8 25.2,0 0,-6.4 -19.4,0 19.2,-21.2 c 0,0 0.729453,-1.778368 -1,-3.4 C 87.630861,19.29129 86.610432,19.044141 86,19 z m -41.2,32.2 11.4,0 -11.4,12.6 z"
     id="path3881"
     style="color:#000000;fill:#000000;fill-opacity:1;fill-rule:nonzero;stroke:none;visibility:visible;display:inline;overflow:visible;enable-background:accumulate" />
</svg>
