<?xml version="1.0" encoding="UTF-8" standalone="no"?>
<!-- Created with Inkscape (http://www.inkscape.org/) -->

<svg
   xmlns:dc="http://purl.org/dc/elements/1.1/"
   xmlns:cc="http://creativecommons.org/ns#"
   xmlns:rdf="http://www.w3.org/1999/02/22-rdf-syntax-ns#"
   xmlns:svg="http://www.w3.org/2000/svg"
   xmlns="http://www.w3.org/2000/svg"
   version="1.0"
   width="128"
   height="128"
   id="svg2">
  <defs
     id="defs4" />
  <metadata
     id="metadata7">
    <rdf:RDF>
      <cc:Work
         rdf:about="">
        <dc:format>image/svg+xml</dc:format>
        <dc:type
           rdf:resource="http://purl.org/dc/dcmitype/StillImage" />
        <dc:title></dc:title>
      </cc:Work>
    </rdf:RDF>
  </metadata>
  <path
     d="m 32.125581,19.02999 0,59.80018 -6.4,6.4 c 0,0 -0.975424,1.192204 1,3.2 1.739033,1.7675 3.4,1.2 3.4,1.2 l 2,-2 0,2 6.2,0 0,-8.2 13,-13 0,21.2 6.2,0 0,-27.400052 4.6,-4.600128 34.000051,0 0,-6.4 -27.600013,0 27.400013,-27.4 c 0,0 0.729453,-1.778368 -1,-3.4 -1.938272,-1.81742 -3.6,-1.2 -3.6,-1.2 l -31.800051,32 -2,0 0,-32.2 -6.2,0 0,40.400052 -13,13.200128 0,-53.60018 -6.2,0 z"
     id="path3881"
     style="color:#000000;fill:#000000;fill-opacity:1;fill-rule:nonzero;stroke:none;visibility:visible;display:inline;overflow:visible;enable-background:accumulate" />
</svg>
