<?xml version="1.0" encoding="UTF-8" standalone="no"?>
<svg
   xmlns:dc="http://purl.org/dc/elements/1.1/"
   xmlns:cc="http://creativecommons.org/ns#"
   xmlns:rdf="http://www.w3.org/1999/02/22-rdf-syntax-ns#"
   xmlns:svg="http://www.w3.org/2000/svg"
   xmlns="http://www.w3.org/2000/svg"
   version="1.0"
   width="128"
   height="128"
   id="svg2">
  <defs
     id="defs4" />
  <metadata
     id="metadata7">
    <rdf:RDF>
      <cc:Work
         rdf:about="">
        <dc:format>image/svg+xml</dc:format>
        <dc:type
           rdf:resource="http://purl.org/dc/dcmitype/StillImage" />
        <dc:title></dc:title>
      </cc:Work>
    </rdf:RDF>
  </metadata>
  <path
     id="path3629"
     d="m 60.851109,31.951795 c -9.318298,0 -18.322951,3.697611 -24.888078,10.262744 -6.671049,6.671126 -10.375245,15.682301 -10.375245,25.000584 0,9.318299 3.704196,18.317026 10.375245,24.988088 6.565127,6.565159 15.56978,10.262729 24.888078,10.262729 9.318309,0 18.322955,-3.69757 24.888088,-10.262729 C 92.304421,85.532149 96.00194,76.533422 96.00194,67.215123 96.00194,57.89684 92.304421,48.885665 85.739197,42.214539 79.174064,35.649406 70.169418,31.951795 60.851109,31.951795 Z m -2.803662,5.787637 0,58.938886 C 50.722508,96.36119 45.210864,93.313355 39.975625,88.078116 34.518851,82.525538 31.362924,75.06526 31.362924,67.215123 c 0,-7.850224 3.155932,-15.322975 8.612701,-20.875489 5.235239,-5.23524 10.746883,-8.283049 18.071822,-8.600202 z m 5.754582,0 c 7.326035,0.317063 12.671959,3.364891 17.812073,8.600202 5.552598,5.552514 8.625201,13.025259 8.625201,20.875489 0,7.850137 -3.072603,15.310415 -8.625201,20.862993 -5.140114,5.23531 -10.486038,8.283138 -17.812073,8.600202 z" />
</svg>
