<?xml version="1.0" encoding="UTF-8" standalone="no"?>
<svg
   xmlns:dc="http://purl.org/dc/elements/1.1/"
   xmlns:cc="http://creativecommons.org/ns#"
   xmlns:rdf="http://www.w3.org/1999/02/22-rdf-syntax-ns#"
   xmlns:svg="http://www.w3.org/2000/svg"
   xmlns="http://www.w3.org/2000/svg"
   version="1.0"
   width="128"
   height="128"
   id="svg2">
  <defs
     id="defs4" />
  <metadata
     id="metadata7">
    <rdf:RDF>
      <cc:Work
         rdf:about="">
        <dc:format>image/svg+xml</dc:format>
        <dc:type
           rdf:resource="http://purl.org/dc/dcmitype/StillImage" />
        <dc:title></dc:title>
      </cc:Work>
    </rdf:RDF>
  </metadata>
  <path
     id="path3629"
     d="m 35.906156,42.236546 c -6.589032,6.589031 -10.341683,15.570888 -10.341676,24.855385 5e-5,9.434339 3.75265,18.425462 10.341676,25.014487 6.589031,6.589031 15.571354,10.332832 25.005649,10.332842 9.284522,2e-5 18.266358,-3.752649 24.85539,-10.341681 C 92.356233,85.508548 96.108891,76.526712 96.108872,67.242193 96.03405,57.882731 92.285517,48.905125 85.696486,42.316094 79.107461,35.727069 70.121055,31.969752 60.761542,31.894864 c -9.284499,6e-6 -18.266355,3.752644 -24.855386,10.341682 z m 2.109982,6.074965 41.676091,41.676087 c -5.403768,4.955265 -11.456223,6.697443 -18.859972,6.697443 -7.784784,-0.06772 -15.291578,-3.111375 -20.842466,-8.662257 -5.550946,-5.550953 -8.603395,-13.066567 -8.671096,-20.851307 -7e-6,-7.403748 1.742191,-13.456185 6.697443,-18.859966 z m 4.069107,-4.0691 c 5.404505,-4.956071 11.339761,-6.581095 18.676297,-6.513778 7.852501,-5.8e-5 15.309189,3.111311 20.860141,8.662264 5.550883,5.550882 8.653439,12.998756 8.653426,20.851296 0.06733,7.336537 -1.557688,13.271812 -6.513779,18.676298 z" />
</svg>
