<?xml version="1.0" encoding="UTF-8" standalone="no"?>
<!-- Created with Inkscape (http://www.inkscape.org/) -->

<svg
   xmlns:dc="http://purl.org/dc/elements/1.1/"
   xmlns:cc="http://creativecommons.org/ns#"
   xmlns:rdf="http://www.w3.org/1999/02/22-rdf-syntax-ns#"
   xmlns:svg="http://www.w3.org/2000/svg"
   xmlns="http://www.w3.org/2000/svg"
   version="1.0"
   width="128"
   height="128"
   id="svg2">
  <defs
     id="defs4" />
  <metadata
     id="metadata7">
    <rdf:RDF>
      <cc:Work
         rdf:about="">
        <dc:format>image/svg+xml</dc:format>
        <dc:type
           rdf:resource="http://purl.org/dc/dcmitype/StillImage" />
        <dc:title></dc:title>
      </cc:Work>
    </rdf:RDF>
  </metadata>
  <g
     transform="matrix(-5.9583402,0,0,5.9596784,127.3659,0.54027645)"
     id="text3320"
     style="font-size:16px;font-style:normal;font-variant:normal;font-weight:bold;font-stretch:normal;text-align:start;line-height:125%;letter-spacing:0px;word-spacing:0px;writing-mode:lr-tb;text-anchor:start;fill:#000000;fill-opacity:1;stroke:none;font-family:msbm10;-inkscape-font-specification:msbm10 Bold" />
  <path
     d="M 8.8046272,44.8 C 7.1090496,44.800058 5.4350656,46.569466 4.0940288,49.769414 2.7684032,52.9224 1.535264,57.016518 0.1479744,62.192941 0.0246464,62.757683 0,63.294163 0,64 c 0,0.89415 0.0064,1.695219 0.176,2.212832 0.1696,0.517632 1.1434112,0.723635 1.4362816,0.723635 0.308288,2.6e-5 1.1898944,-0.244672 1.3902912,-0.903526 1.0944064,-4.752903 1.9516928,-8.241779 2.908896,-11.294112 0.6799808,-2.404346 1.613792,-5.140768 2.893184,-5.140819 0.8477696,5.1e-5 1.6921022,1.60199 2.2331202,3.107872 0.602432,1.362617 1.185824,3.1624 1.925721,5.421177 0.709293,2.488813 1.522912,4.894151 2.293639,7.905882 0.832352,3.152966 1.698637,5.863558 2.515609,8.357645 0.816935,2.494144 1.704794,4.630611 2.737568,6.32471 1.032736,1.694138 2.792967,2.484717 3.979892,2.484704 1.726368,1.3e-5 3.94286,-1.411744 5.237689,-4.517645 3.415488,-8.311366 4.732615,-15.211635 7.620807,-23.943526 1.125235,-2.682311 1.695635,-5.140768 2.975027,-5.140819 1.215699,5.1e-5 1.660774,1.128723 2.386765,3.107872 0.618048,1.840211 1.167827,3.1624 1.784409,5.421177 0.72496,2.566138 1.446599,4.894151 2.217325,7.905882 0.832358,3.152966 1.762618,5.863558 2.57959,8.357645 0.816941,2.494144 1.778791,4.630611 2.811565,6.32471 1.03273,1.694138 2.792967,2.484717 3.979885,2.484704 1.726368,1.3e-5 3.86887,-1.411744 5.163699,-4.517645 1.243738,-2.993024 2.474279,-6.978438 3.98537,-11.971769 1.157837,-3.729895 2.431699,-8.209152 3.709408,-11.971751 1.125235,-2.682304 1.621651,-5.140761 2.901043,-5.140813 0.84777,5.2e-5 1.784083,1.744282 2.325101,3.107872 0.740377,1.54658 1.167833,3.1624 1.907725,5.421178 0.709299,2.442822 1.430937,4.84816 2.293644,7.905882 0.832352,3.152966 1.624647,5.863558 2.44162,8.357644 0.816934,2.494144 1.778784,4.630612 2.811558,6.324711 1.032736,1.694137 2.792966,2.484717 3.979885,2.484704 1.726374,1.3e-5 3.868877,-1.411744 5.163705,-4.517645 1.254247,-3.01831 2.58233,-7.01273 3.921383,-11.97177 1.178899,-3.943168 2.525869,-8.200096 3.773395,-11.971763 1.03804,-2.682304 1.56484,-5.140761 2.97503,-5.140813 1.27937,5.2e-5 1.57111,1.374343 2.31277,3.107872 0.75604,2.03984 1.16783,3.224058 1.84607,5.544493 0.69362,2.382176 1.3996,4.770835 2.29364,7.782567 0.83236,3.152966 1.69863,5.863558 2.51561,8.357644 0.81694,2.494144 1.7048,4.630612 2.73757,6.324711 1.03273,1.694137 2.79297,2.484717 3.97989,2.484704 1.72636,1.3e-5 3.21846,-1.411744 4.51329,-4.517645 1.31018,-3.152922 2.66664,-7.378803 4.06936,-12.649414 0.16954,-0.658797 0.29594,-1.421146 0.29594,-2.032941 -3e-5,-0.799968 0.0729,-1.284237 -0.112,-1.848979 -0.18503,-0.564672 -1.04777,-0.861536 -1.30976,-0.861607 -0.33914,3.9e-5 -1.41128,0.244736 -1.5808,0.903527 -0.73991,2.917683 -1.38498,5.415001 -2.15566,7.905881 -0.72476,2.535859 -1.01424,3.598727 -1.58579,5.421178 -0.66357,1.638509 -1.25601,3.107897 -2.13461,3.107872 -0.86323,2.5e-5 -1.60015,-1.515328 -2.18714,-3.107872 -0.75557,-1.823514 -1.31077,-3.108691 -2.04569,-5.421178 -0.69365,-2.182541 -1.41811,-4.803238 -2.34296,-7.905894 -1.51058,-5.299738 -2.80538,-9.147226 -3.94602,-12.423527 -1.31022,-3.199948 -3.43731,-4.969363 -5.1637,-4.969414 -2.17516,0.08723 -3.896659,1.769466 -5.23769,4.969414 -1.744569,4.46162 -3.011091,8.797344 -4.143347,12.423527 -0.877888,3.055648 -1.494957,5.415001 -2.219654,7.905875 -0.770739,2.305907 -1.428147,3.966656 -1.999706,5.421184 -0.571584,1.500538 -1.354534,3.107898 -2.233126,3.107866 -0.863219,3.2e-5 -1.508167,-1.791271 -2.18713,-3.107866 -0.6176,-1.409606 -1.290419,-3.115264 -2.045702,-5.421184 C 82.61417,67.792979 81.889702,65.110624 81.149837,62.192941 79.639219,56.831546 78.591053,53.600627 77.080474,49.769414 75.770246,46.569466 73.569165,44.800058 71.842784,44.8 c -1.695578,5.8e-5 -3.822669,1.769466 -5.163706,4.969414 -1.74142,4.479514 -2.990912,8.748992 -4.143347,12.423527 -0.785907,2.825702 -1.586944,5.552979 -2.357625,7.905881 -0.678765,2.397888 -1.152199,3.828685 -1.861735,5.421184 -0.571584,1.408557 -1.354541,3.107892 -2.233126,3.107866 -0.863219,2.6e-5 -1.692135,-1.699283 -2.233127,-3.107866 C 53.27847,74.018419 52.605683,72.404742 51.850406,70.098822 51.095091,67.792979 50.370618,65.110624 49.630752,62.192941 48.058483,56.831546 46.887002,53.230688 45.561389,49.769414 44.251168,46.569466 42.050086,44.800058 40.323699,44.8 38.628128,44.800058 36.50103,46.569466 35.16,49.769414 32.508083,57.467885 30.837037,62.74647 28.631021,70.098822 27.860282,72.40473 27.294861,74.019482 26.677306,75.52 26.105722,76.974547 25.368762,78.627898 24.49017,78.627872 23.62695,78.627898 22.890016,77.02057 22.395021,75.52 21.777421,74.202381 21.086611,72.404742 20.331328,70.098822 19.576013,67.792979 18.777555,65.110624 18.03769,62.192941 16.650394,57.016518 15.293939,52.922406 13.968326,49.769414 12.658099,46.569466 10.531008,44.800058 8.8046272,44.8 z"
     id="path4117"
     style="font-size:20px;font-style:normal;font-variant:normal;font-weight:normal;font-stretch:normal;text-align:start;line-height:125%;letter-spacing:0px;word-spacing:0px;writing-mode:lr-tb;text-anchor:start;fill:#000000;fill-opacity:1;stroke:none;font-family:wasy10;-inkscape-font-specification:wasy10" />
</svg>
