<?xml version="1.0" encoding="UTF-8" standalone="no"?>
<!-- Created with Inkscape (http://www.inkscape.org/) -->

<svg
   xmlns:dc="http://purl.org/dc/elements/1.1/"
   xmlns:cc="http://creativecommons.org/ns#"
   xmlns:rdf="http://www.w3.org/1999/02/22-rdf-syntax-ns#"
   xmlns:svg="http://www.w3.org/2000/svg"
   xmlns="http://www.w3.org/2000/svg"
   version="1.0"
   width="128"
   height="128"
   id="svg2">
  <defs
     id="defs4">
    <linearGradient
       id="linearGradient3877">
      <stop
         id="stop3879"
         style="stop-color:#0000ff;stop-opacity:1"
         offset="0" />
    </linearGradient>
    <linearGradient
       id="linearGradient3877-4">
      <stop
         id="stop3879-7"
         style="stop-color:#0000ff;stop-opacity:1"
         offset="0" />
    </linearGradient>
  </defs>
  <metadata
     id="metadata7">
    <rdf:RDF>
      <cc:Work
         rdf:about="">
        <dc:format>image/svg+xml</dc:format>
        <dc:type
           rdf:resource="http://purl.org/dc/dcmitype/StillImage" />
        <dc:title></dc:title>
      </cc:Work>
    </rdf:RDF>
  </metadata>
  <g
     transform="matrix(6.4,0,0,6.4,0.00386095,0.00386101)"
     id="text3082"
     style="font-size:18px;font-style:normal;font-variant:normal;font-weight:normal;font-stretch:normal;text-align:start;line-height:0%;letter-spacing:0.31999999px;word-spacing:0px;writing-mode:lr-tb;text-anchor:start;fill:#000000;fill-opacity:1;stroke:none;font-family:Cambria Math;-inkscape-font-specification:Cambria Math">
    <path
       d="m 3.6047423,9.8503933 3.102539,6.8203127 4.1158077,-14.6639468 7.201612,0 0,1.0182861 -6.551221,0 -4.5025268,15.9659727 -0.8525391,0 -3.6386718,-7.822265 -1.4853516,0.659179 -0.27246094,-0.659179 z"
       id="path4000"
       style="font-family:Cambria Math;-inkscape-font-specification:Cambria Math" />
  </g>
  <path
     d="m 76.80386,44.803861 0,76.799999 38.4,0 0,-76.799999 z m 6.4,6.4 25.6,0 0,63.999999 -25.6,0 z"
     id="rect4002"
     style="fill:#0000ff;fill-opacity:1;fill-rule:evenodd;stroke:none" />
  <path
     d="m 6.5846544,12.852072 0,38.665159 38.1830456,0 0,-38.665159 z m 6.4000006,6.4 25.383045,0 0,25.865159 -25.383045,0 z"
     id="rect4002-1"
     style="fill:#0000ff;fill-opacity:1;fill-rule:evenodd;stroke:none" />
</svg>
