<?xml version="1.0" encoding="UTF-8" standalone="no"?>
<!-- Created with Inkscape (http://www.inkscape.org/) -->

<svg
   xmlns:dc="http://purl.org/dc/elements/1.1/"
   xmlns:cc="http://creativecommons.org/ns#"
   xmlns:rdf="http://www.w3.org/1999/02/22-rdf-syntax-ns#"
   xmlns:svg="http://www.w3.org/2000/svg"
   xmlns="http://www.w3.org/2000/svg"
   version="1.0"
   width="128"
   height="128"
   id="svg2">
  <defs
     id="defs4" />
  <metadata
     id="metadata7">
    <rdf:RDF>
      <cc:Work
         rdf:about="">
        <dc:format>image/svg+xml</dc:format>
        <dc:type
           rdf:resource="http://purl.org/dc/dcmitype/StillImage" />
        <dc:title></dc:title>
      </cc:Work>
    </rdf:RDF>
  </metadata>
  <path
     d="m 83.203072,12.802688 0,38.402303 38.402298,0 0,-38.402303 -38.402298,0 z m 12.800768,12.800767 12.80077,0 0,12.800768 -12.80077,0 0,-12.800768 z"
     id="rect40070"
     style="fill:#0000ff;fill-opacity:1;fill-rule:evenodd;stroke:none" />
  <path
     d="m 83.203072,76.806528 0,38.402312 38.402298,0 0,-38.402312 -38.402298,0 z m 12.800768,12.800767 12.80077,0 0,12.800775 -12.80077,0 0,-12.800775 z"
     id="path40075"
     style="fill:#0000ff;fill-opacity:1;fill-rule:evenodd;stroke:none" />
  <g
     transform="matrix(5.9993988,0,0,6.8979261,-0.00391635,0.00191943)"
     id="text40433"
     style="font-size:21.34102821px;font-style:normal;font-variant:normal;font-weight:normal;font-stretch:normal;text-align:start;line-height:125%;letter-spacing:0px;word-spacing:0px;writing-mode:lr-tb;text-anchor:start;fill:#000000;fill-opacity:1;stroke:none;font-family:Gungsuh;-inkscape-font-specification:Gungsuh">
    <path
       d="M 6.4219853,7.9485174 4.3795822,4.7390268 C 4.1294868,4.35001 3.983601,4.0929732 3.9419244,3.9679155 3.8863438,3.8428832 3.9349724,3.7803608 4.0878103,3.7803478 c 0.458493,-0.041669 1.3338078,-0.062509 2.6259469,-0.062523 1.2782295,1.3e-5 2.1952259,0.027801 2.7509919,0.083363 0.1945038,0.013907 0.3126018,0.222315 0.3542944,0.6252254 0.013883,0.2639961 -1.09e-5,0.6947065 -0.041682,1.2921326 -0.055586,0.2917825 0.034724,0.5279786 0.2709315,0.7085888 0.194503,0.152843 0.45154,0.2292594 0.771111,0.2292493 0.319548,1.01e-5 0.590478,-0.076406 0.812793,-0.2292493 C 11.868381,6.2465253 11.972585,6.0103292 11.94481,5.7185467 11.861434,5.0655451 11.819752,4.5097897 11.819765,4.0512789 11.819752,3.6483688 11.861434,3.1759768 11.94481,2.6341012 11.986479,2.3145559 11.875328,2.0922538 11.611356,1.9671941 11.333466,1.8421638 10.861074,1.8143761 10.194179,1.8838307 9.3049589,1.9533149 7.9155704,1.9880496 6.0260092,1.9880349 4.2336909,1.9741557 2.899878,1.939421 2.0245664,1.8838307 1.5382773,1.8421638 1.2256649,1.9741557 1.0867282,2.2798068 0.94778722,2.5854867 1.0103097,2.9675685 1.2742959,3.4260534 L 4.6713541,8.7196288 0.44066195,14.617589 c -0.41681807,0.611333 -0.51407526,1.11846 -0.29177187,1.521382 0.22230092,0.430711 0.75026854,0.625225 1.58390442,0.583543 1.0281447,-0.06947 2.6259414,-0.104204 4.793395,-0.104204 2.0146057,0 3.5498795,0.03473 4.6058275,0.104204 0.250078,0 0.444592,-0.118098 0.583544,-0.354294 0.125032,-0.208408 0.166713,-0.444604 0.125045,-0.708589 -0.05559,-0.347346 -0.09032,-0.778056 -0.104205,-1.292132 -0.01391,-0.694692 0.01388,-1.306023 0.08336,-1.833995 0.02778,-0.361237 -0.06254,-0.653008 -0.270931,-0.875316 -0.194527,-0.194509 -0.43767,-0.298713 -0.72943,-0.312612 -0.305677,-0.01389 -0.562714,0.06947 -0.771111,0.25009 -0.2362074,0.194519 -0.3543054,0.472397 -0.3542946,0.833634 l 0.020841,0.97952 c 0.027777,0.569652 0.00694,0.93784 -0.062523,1.104564 -0.097268,0.222305 -0.3404109,0.354297 -0.7294297,0.395977 -0.5418715,0.01389 -1.5283373,0.02084 -2.9594004,0.02084 -1.2365628,2e-6 -2.0563019,-0.0069 -2.45922,-0.02084 C 3.1152289,14.867681 2.8998737,14.791264 2.858196,14.680111 2.81651,14.568962 2.913768,14.332766 3.1499679,13.971522 L 6.2760993,9.7616712 C 6.5678636,9.4004371 6.7206963,9.0808778 6.734598,8.8029922 6.7484841,8.5529101 6.6442799,8.2680855 6.4219853,7.9485174 z"
       id="path40440" />
  </g>
</svg>
