<?xml version="1.0" encoding="UTF-8" standalone="no"?>
<!-- Created with Inkscape (http://www.inkscape.org/) -->

<svg
   xmlns:dc="http://purl.org/dc/elements/1.1/"
   xmlns:cc="http://creativecommons.org/ns#"
   xmlns:rdf="http://www.w3.org/1999/02/22-rdf-syntax-ns#"
   xmlns:svg="http://www.w3.org/2000/svg"
   xmlns="http://www.w3.org/2000/svg"
   version="1.0"
   width="128"
   height="128"
   id="svg2">
  <defs
     id="defs4" />
  <metadata
     id="metadata7">
    <rdf:RDF>
      <cc:Work
         rdf:about="">
        <dc:format>image/svg+xml</dc:format>
        <dc:type
           rdf:resource="http://purl.org/dc/dcmitype/StillImage" />
        <dc:title></dc:title>
      </cc:Work>
    </rdf:RDF>
  </metadata>
  <path
     d="M 61.8,12.8 C 44.855226,12.8 32,25.386656 32,41.6 32,57.81335 44.855226,70.4 61.8,70.4 l 34.2,-0.2 0,-6 -34.6,0 c -11.824774,0 -23,-8.946707 -23,-22.6 0,-12.921862 9.712371,-22.6 23,-22.6 l 34.6,0 0,-6.2 -34.2,0 z m 16.2,64 -6,6.4 -40,0 0,6.4 33.6,0 -12,12.6 -21.6,0 0,6.4 15.2,0 -6,6.4 8.6,0 6,-6.4 40.2,0 0,-6.6 -34,0 12.2,-12.4 21.8,0 0,-6.6 -15.6,0 6,-6.2 -8.4,0 z"
     id="path3228" />
</svg>
