<?xml version="1.0" encoding="UTF-8" standalone="no"?>
<!-- Created with Inkscape (http://www.inkscape.org/) -->

<svg
   xmlns:dc="http://purl.org/dc/elements/1.1/"
   xmlns:cc="http://creativecommons.org/ns#"
   xmlns:rdf="http://www.w3.org/1999/02/22-rdf-syntax-ns#"
   xmlns:svg="http://www.w3.org/2000/svg"
   xmlns="http://www.w3.org/2000/svg"
   version="1.0"
   width="128"
   height="128"
   id="svg2">
  <defs
     id="defs4" />
  <metadata
     id="metadata7">
    <rdf:RDF>
      <cc:Work
         rdf:about="">
        <dc:format>image/svg+xml</dc:format>
        <dc:type
           rdf:resource="http://purl.org/dc/dcmitype/StillImage" />
        <dc:title></dc:title>
      </cc:Work>
    </rdf:RDF>
  </metadata>
  <path
     d="m 29.6,10.2 0,9 c 0,0.116608 11.35047,15.7864 42,22.2 l 0,0.2 c -30.64953,6.530176 -42,22.283328 -42,22.4 l 0,9 c 0,0 11.266182,-22.303776 60,-30 l 0,-2.8 c -48.733818,-7.696237 -60,-29.883379 -60,-30 z M 47,76.8 C 29.421638,76.8 25.6,93 25.6,93 l 2.8,1.2 c 0,-0.246016 4.464211,-11 16,-11 6.866451,0 11.444154,4.309318 16.8,8 L 54.8,97 c -2.334605,-0.861178 -4.778765,-1.6 -7.8,-1.6 -17.578362,0 -21.4,16.4 -21.4,16.4 l 2.8,1 c 0,-0.24602 4.464211,-11 16,-11 1.647968,0 3.226733,0.3079 4.6,0.8 l -13,12.2 9.2,0 9.8,-9.2 c 6.042605,3.93676 11.312128,9.6 21.2,9.6 16.617062,0 19.8,-14 19.8,-14 l -3.6,-1.4 c 0,0.24602 -3.574822,9.2 -13.6,9.2 -7.003814,0 -12.23209,-4.78631 -18,-8.6 L 67,94.6 c 2.609325,1.107206 5.492128,2 9.2,2 C 92.817062,96.6 96,82.4 96,82.4 l -3.6,-1.2 c 0,0.245952 -3.574822,9 -13.6,9 -2.059898,0 -4.214682,-0.461824 -6,-1.2 l 12.6,-11.8 -9.2,0 -9.2,8.6 c -5.905139,-3.936672 -11.485568,-9 -20,-9 z"
     id="path3130" />
</svg>
