<?xml version="1.0" encoding="UTF-8" standalone="no"?>
<!-- Created with Inkscape (http://www.inkscape.org/) -->

<svg
   xmlns:dc="http://purl.org/dc/elements/1.1/"
   xmlns:cc="http://creativecommons.org/ns#"
   xmlns:rdf="http://www.w3.org/1999/02/22-rdf-syntax-ns#"
   xmlns:svg="http://www.w3.org/2000/svg"
   xmlns="http://www.w3.org/2000/svg"
   version="1.0"
   width="128"
   height="128"
   id="svg2">
  <defs
     id="defs4" />
  <metadata
     id="metadata7">
    <rdf:RDF>
      <cc:Work
         rdf:about="">
        <dc:format>image/svg+xml</dc:format>
        <dc:type
           rdf:resource="http://purl.org/dc/dcmitype/StillImage" />
        <dc:title></dc:title>
      </cc:Work>
    </rdf:RDF>
  </metadata>
  <path
     d="m 32,13 0,8.4 c 0,0.110336 12.174918,14.933043 44.8,21 l 0,0.2 C 44.174918,48.777203 32,63.689651 32,63.8 l 0,8.4 c 0,0 12.125024,-20.919648 64,-28.2 l 0,-2.8 C 44.125024,33.919648 32,13.110323 32,13 z m 19.2,69.8 c -16.000013,0 -19.2,16 -19.2,16 l 2.4,1.2 c 0,-0.242496 4.025011,-10.8 14.4,-10.8 11.124986,0 14.775091,13.2 28.4,13.2 C 94.700058,102.4 96,84.2 96,84.2 L 93.6,83 c 0,0.242496 -2.875014,13.2 -14,13.2 -10.87495,0 -16.02505,-13.4 -28.4,-13.4 z"
     id="path3801" />
</svg>
