<?xml version="1.0" encoding="UTF-8" standalone="no"?>
<!-- Created with Inkscape (http://www.inkscape.org/) -->

<svg
   xmlns:dc="http://purl.org/dc/elements/1.1/"
   xmlns:cc="http://creativecommons.org/ns#"
   xmlns:rdf="http://www.w3.org/1999/02/22-rdf-syntax-ns#"
   xmlns:svg="http://www.w3.org/2000/svg"
   xmlns="http://www.w3.org/2000/svg"
   version="1.0"
   width="128"
   height="128"
   id="svg2">
  <defs
     id="defs4" />
  <metadata
     id="metadata7">
    <rdf:RDF>
      <cc:Work
         rdf:about="">
        <dc:format>image/svg+xml</dc:format>
        <dc:type
           rdf:resource="http://purl.org/dc/dcmitype/StillImage" />
        <dc:title></dc:title>
      </cc:Work>
    </rdf:RDF>
  </metadata>
  <path
     d="m 32,10.4 0,8.8 c 0,0.116608 11.550406,15.7864 42.2,22.2 l 0,0.2 C 43.550406,48.130176 32,63.883341 32,64 l 0,9 c 0,0 11.466112,-22.103776 60.2,-29.8 l 0,-3 C 43.466112,32.503763 32,10.516621 32,10.4 z m 43.2,66.6 -5.6,6.4 -37.6,0 0,6.4 31.8,0 -11.4,12.6 -20.4,0 0,6.4 14.4,0 -5.6,6.2 8,0 5.6,-6.2 37.8,0 0,-6.6 -31.8,0 11.2,-12.4 20.6,0 0,-6.6 -14.6,0 5.6,-6.2 -8,0 z"
     id="path3063" />
</svg>
