<?xml version="1.0" encoding="UTF-8" standalone="no"?>
<!-- Created with Inkscape (http://www.inkscape.org/) -->

<svg
   xmlns:dc="http://purl.org/dc/elements/1.1/"
   xmlns:cc="http://creativecommons.org/ns#"
   xmlns:rdf="http://www.w3.org/1999/02/22-rdf-syntax-ns#"
   xmlns:svg="http://www.w3.org/2000/svg"
   xmlns="http://www.w3.org/2000/svg"
   version="1.0"
   width="128"
   height="128"
   id="svg2">
  <defs
     id="defs4" />
  <metadata
     id="metadata7">
    <rdf:RDF>
      <cc:Work
         rdf:about="">
        <dc:format>image/svg+xml</dc:format>
        <dc:type
           rdf:resource="http://purl.org/dc/dcmitype/StillImage" />
        <dc:title></dc:title>
      </cc:Work>
    </rdf:RDF>
  </metadata>
  <path
     d="m 32,6.4 0,8.2 c 0,0.1072 12.17687,14.505293 44.8,20.4 l 0,0.2 C 44.17687,41.201869 32,55.692774 32,55.8 l 0,8.2 c 0,0 12.128134,-20.326419 64,-27.4 l 0,-2.8 C 44.128134,26.726419 32,6.5071872 32,6.4 z m 19.4,64 C 35.400934,70.4 32,86.2 32,86.2 l 2.6,1.2 c 0,-0.241216 4.225638,-10.8 14.6,-10.8 11.12432,0 15.175789,13.2 28.8,13.2 15.124128,0 18,-14 18,-14 l -3.2,-1.2 c 0,0.241152 -3.400538,9 -12.4,9 -10.874298,0 -16.625792,-13.2 -29,-13.2 z m 0,19.2 C 35.400934,89.6 32,105.4 32,105.4 l 2.6,1 c 0,-0.23872 4.225638,-10.6 14.6,-10.6 11.12432,0 15.175789,13 28.8,13 15.124128,0 18,-13.6 18,-13.6 L 92.8,94 c 0,0.23872 -3.400538,8.8 -12.4,8.8 -10.874298,0 -16.625792,-13.2 -29,-13.2 z"
     id="path3924" />
</svg>
