<?xml version="1.0" encoding="UTF-8" standalone="no"?>
<!-- Created with Inkscape (http://www.inkscape.org/) -->

<svg
   xmlns:dc="http://purl.org/dc/elements/1.1/"
   xmlns:cc="http://creativecommons.org/ns#"
   xmlns:rdf="http://www.w3.org/1999/02/22-rdf-syntax-ns#"
   xmlns:svg="http://www.w3.org/2000/svg"
   xmlns="http://www.w3.org/2000/svg"
   version="1.0"
   width="128"
   height="128"
   id="svg2">
  <defs
     id="defs4" />
  <metadata
     id="metadata7">
    <rdf:RDF>
      <cc:Work
         rdf:about="">
        <dc:format>image/svg+xml</dc:format>
        <dc:type
           rdf:resource="http://purl.org/dc/dcmitype/StillImage" />
        <dc:title></dc:title>
      </cc:Work>
    </rdf:RDF>
  </metadata>
  <path
     d="m 32,25.6 0,6.2 34.6,0 c 13.287629,0 23,9.678138 23,22.6 0,13.653293 -11.175226,22.6 -23,22.6 l -34.6,0 0,6 34.2,0.2 C 83.144781,83.2 96,70.61335 96,54.4 96,38.186656 83.144781,25.6 66.2,25.6 L 32,25.6 z M 71.4,86.8 63.2,96 32,96 l 0,6.4 25.4,0 -9,9.8 8.4,0 8.6,-9.8 30.6,0 0,-6.4 -24.8,0 8.4,-9.2 -8.2,0 z"
     id="path3189" />
</svg>
