<?xml version="1.0" encoding="UTF-8" standalone="no"?>
<!-- Created with Inkscape (http://www.inkscape.org/) -->

<svg
   xmlns:dc="http://purl.org/dc/elements/1.1/"
   xmlns:cc="http://creativecommons.org/ns#"
   xmlns:rdf="http://www.w3.org/1999/02/22-rdf-syntax-ns#"
   xmlns:svg="http://www.w3.org/2000/svg"
   xmlns="http://www.w3.org/2000/svg"
   version="1.0"
   width="128"
   height="128"
   id="svg2">
  <defs
     id="defs4" />
  <metadata
     id="metadata7">
    <rdf:RDF>
      <cc:Work
         rdf:about="">
        <dc:format>image/svg+xml</dc:format>
        <dc:type
           rdf:resource="http://purl.org/dc/dcmitype/StillImage" />
        <dc:title></dc:title>
      </cc:Work>
    </rdf:RDF>
  </metadata>
  <g
     transform="matrix(2.1822097,0,0,2.1822097,3.4837169,-3.6133042)"
     id="text2986"
     style="font-size:40px;font-style:normal;font-weight:normal;line-height:0%;letter-spacing:0.31999999px;word-spacing:0px;fill:#000000;fill-opacity:1;stroke:none;font-family:Sans">
    <path
       d="m 7.2213564,30.02729 c -2.6e-6,-3.708308 0.4531219,-6.906222 1.359375,-9.59375 0.9062451,-2.687466 2.2239526,-4.906214 3.9531246,-6.65625 1.729157,-1.749961 3.864572,-3.041626 6.40625,-3.8749997 2.54165,-0.8332913 5.458314,-1.2499576 8.75,-1.25 2.645808,4.24e-5 5.067681,0.2917088 7.265625,0.875 2.197885,0.5833747 4.130174,1.4687897 5.796875,2.6562497 l 3.84375,-4.6249997 3.59375,0 -5.3125,6.4062497 c 1.68746,1.770869 2.994751,3.973992 3.921875,6.609375 0.927041,2.635445 1.390582,5.786483 1.390625,9.453125 -4.3e-5,3.708351 -0.468793,6.921889 -1.40625,9.640625 -0.937541,2.718759 -2.291706,4.963548 -4.0625,6.734375 -1.770869,1.770837 -3.921909,3.088544 -6.453125,3.953125 -2.531279,0.864583 -5.390651,1.296875 -8.578125,1.296875 -2.645853,0 -5.041684,-0.276042 -7.1875,-0.828125 -2.145847,-0.552082 -4.052095,-1.421873 -5.71875,-2.609375 l -3.78125,4.53125 -3.7187496,0 5.3124996,-6.40625 C 10.84635,44.54813 9.5130181,42.308549 8.5963564,39.62104 7.6796866,36.933554 7.2213538,33.735641 7.2213564,30.02729 z m 6.5312496,0 c -9e-6,2.520852 0.156241,4.817725 0.46875,6.890625 0.31249,2.072929 0.833323,3.921886 1.5625,5.546875 l 22.34375,-27.03125 c -1.083365,-1.374963 -2.473989,-2.432253 -4.171875,-3.171875 -1.697944,-0.739543 -3.786484,-1.109335 -6.265625,-1.109375 -2.708353,4e-5 -4.958351,0.43754 -6.75,1.3125 -1.791681,0.875038 -3.218763,2.130245 -4.28125,3.765625 -1.062511,1.63545 -1.81251,3.619823 -2.25,5.953125 -0.437509,2.33336 -0.656259,4.947941 -0.65625,7.84375 z m 27.90625,0 c -3.7e-5,-2.437476 -0.156287,-4.666641 -0.46875,-6.6875 -0.312536,-2.020803 -0.822952,-3.822885 -1.53125,-5.40625 l -22.25,27.0625 c 1.08332,1.375005 2.458318,2.416671 4.125,3.125 1.666648,0.708336 3.71873,1.062502 6.15625,1.0625 2.708308,2e-6 4.958306,-0.453122 6.75,-1.359375 1.791635,-0.906246 3.223926,-2.192703 4.296875,-3.859375 1.072882,-1.666658 1.828089,-3.677072 2.265625,-6.03125 0.437464,-2.354151 0.656213,-4.989565 0.65625,-7.90625 z"
       id="path3020"
       style="font-size:64px;font-variant:normal;font-stretch:normal;font-family:Liberation Serif;-inkscape-font-specification:Liberation Serif" />
  </g>
</svg>
