<?xml version="1.0" encoding="UTF-8" standalone="no"?>
<!-- Created with Inkscape (http://www.inkscape.org/) -->

<svg
   xmlns:dc="http://purl.org/dc/elements/1.1/"
   xmlns:cc="http://creativecommons.org/ns#"
   xmlns:rdf="http://www.w3.org/1999/02/22-rdf-syntax-ns#"
   xmlns:svg="http://www.w3.org/2000/svg"
   xmlns="http://www.w3.org/2000/svg"
   version="1.0"
   width="128"
   height="128"
   id="svg2">
  <defs
     id="defs4" />
  <metadata
     id="metadata7">
    <rdf:RDF>
      <cc:Work
         rdf:about="">
        <dc:format>image/svg+xml</dc:format>
        <dc:type
           rdf:resource="http://purl.org/dc/dcmitype/StillImage" />
        <dc:title></dc:title>
      </cc:Work>
    </rdf:RDF>
  </metadata>
  <g
     transform="matrix(6.4000926,0,0,6.4000926,0.00578138,-0.00223584)"
     id="text2986"
     style="font-size:21.46363258px;font-style:normal;font-weight:normal;line-height:0%;letter-spacing:0.11447271px;word-spacing:0px;fill:#000000;fill-opacity:1;stroke:none;font-family:Sans">
    <path
       d="M 10.129944,0.29277477 C 9.4871431,0.2927928 8.9840897,0.48143782 8.6207827,0.8587104 8.2854045,1.2220442 8.11772,1.6552291 8.1177288,2.1582663 c -8.8e-6,0.5030695 0.1676757,0.9362544 0.5030539,1.2995559 0.363307,0.3912786 0.8663604,0.5869104 1.5091613,0.5868962 0.614833,1.42e-5 1.103912,-0.1956176 1.467241,-0.5868962 0.321383,-0.3633015 0.48208,-0.7964864 0.482093,-1.2995559 C 12.079265,1.6552291 11.918568,1.2220442 11.597185,0.8587104 11.233856,0.48143782 10.744777,0.2927928 10.129944,0.29277477 z m -0.02096,0.52401447 c 0.377279,1.75e-5 0.677714,0.1327677 0.901305,0.39825096 0.209594,0.2515438 0.314396,0.5519785 0.314408,0.9013049 C 11.324685,2.465704 11.219883,2.7661386 11.010289,3.01765 10.786698,3.2971394 10.486263,3.4368765 10.108984,3.4368616 9.7177092,3.4368765 9.4102877,3.2971394 9.1867183,3.01765 8.9771029,2.7661386 8.8723001,2.465704 8.8723096,2.1163451 8.8723001,1.7670187 8.9771029,1.466584 9.1867183,1.2150402 9.4102877,0.94955694 9.7177092,0.81680674 10.108984,0.81678924 z M 7.3841086,11.988778 l 5.2820654,0 -2.53623,-5.7012777 -0.08384,0 z M 9.0190337,5.5119589 C 9.2146559,5.0089183 9.5779722,4.7643785 10.108984,4.7783386 c 0.503042,1.36e-5 0.866359,0.2445534 1.08995,0.7336203 l 4.967657,10.5850921 c 0.08383,0.237555 0.08383,0.454148 0,0.649778 -0.08386,0.18166 -0.216609,0.307423 -0.398251,0.37729 -0.181675,0.06987 -0.363333,0.06987 -0.544975,0 -0.195648,-0.08384 -0.349359,-0.244538 -0.461133,-0.482093 l -1.572043,-3.395614 -6.3720161,0 -1.593004,3.290811 c -0.1117955,0.223581 -0.2655063,0.391266 -0.4611327,0.503054 -0.1816636,0.08384 -0.3633218,0.104804 -0.544975,0.06288 -0.1956368,-0.05589 -0.328387,-0.167683 -0.398251,-0.335369 -0.097821,-0.181657 -0.090834,-0.405236 0.020961,-0.670739 z"
       id="path4285"
       style="font-size:21.46363258px;font-style:normal;font-weight:normal;line-height:0%;letter-spacing:0.11447271px;word-spacing:0px;fill:#000000;fill-opacity:1;stroke:none;font-family:Sans" />
  </g>
</svg>
