<?xml version="1.0" encoding="UTF-8" standalone="no"?>
<!-- Created with Inkscape (http://www.inkscape.org/) -->

<svg
   xmlns:dc="http://purl.org/dc/elements/1.1/"
   xmlns:cc="http://creativecommons.org/ns#"
   xmlns:rdf="http://www.w3.org/1999/02/22-rdf-syntax-ns#"
   xmlns:svg="http://www.w3.org/2000/svg"
   xmlns="http://www.w3.org/2000/svg"
   version="1.0"
   width="128"
   height="128"
   id="svg2">
  <defs
     id="defs4" />
  <metadata
     id="metadata7">
    <rdf:RDF>
      <cc:Work
         rdf:about="">
        <dc:format>image/svg+xml</dc:format>
        <dc:type
           rdf:resource="http://purl.org/dc/dcmitype/StillImage" />
        <dc:title></dc:title>
      </cc:Work>
    </rdf:RDF>
  </metadata>
  <g
     transform="matrix(-5.9583402,0,0,5.9596784,127.3659,0.54027645)"
     id="text3320"
     style="font-size:16px;font-style:normal;font-variant:normal;font-weight:bold;font-stretch:normal;text-align:start;line-height:125%;letter-spacing:0px;word-spacing:0px;writing-mode:lr-tb;text-anchor:start;fill:#000000;fill-opacity:1;stroke:none;font-family:msbm10;-inkscape-font-specification:msbm10 Bold" />
  <path
     d="m 101.88365,40.487718 c -0.0115,-0.602112 -0.28519,-1.488966 -0.8,-2.4 -1.02962,-1.822003 -1.979055,-2.263872 -2.800002,-1.8 l -34.4,19.4 c -0.0083,-13.640364 0,-22.943033 0,-36.514067 0,-0.942905 -1.282029,-1.8 -3.200019,-1.8 -1.917984,0 -3,0.857095 -3,1.8 l 0,36.514067 c -11.859072,-6.691878 -22.406528,-12.735686 -34.2,-19.4 -0.820903,-0.463872 -2.25641,0.130176 -3.2,1.8 -0.943591,1.669818 -0.620928,3.136116 0.2,3.6 l 34.2,19.4 -34.2,19.2 c -0.820909,0.463872 -1.143591,1.930183 -0.2,3.6 0.94359,1.669812 2.379097,2.263872 3.2,1.8 11.793472,-6.664307 22.340928,-12.708121 34.2,-19.4 l 0,36.104092 c 0,0.94295 0.907136,1.6 3,1.6 2.092864,0 3.200019,-0.65707 3.200019,-1.6 0.02752,-11.201884 0.005,-22.744636 0,-36.104092 l 34.4,19.4 c 0.820947,0.463872 1.770382,0.02176 2.800002,-1.8 1.02962,-1.822067 1.02092,-3.136108 0.2,-3.6 -9.6967,-5.511129 -22.621877,-12.663001 -34.200002,-19.2 11.610003,-6.554944 24.478963,-13.875033 34.200002,-19.4 0.41049,-0.231936 0.61145,-0.597888 0.6,-1.2 z"
     id="path3199" />
</svg>
