<?xml version="1.0" encoding="UTF-8" standalone="no"?>
<!-- Created with Inkscape (http://www.inkscape.org/) -->

<svg
   xmlns:dc="http://purl.org/dc/elements/1.1/"
   xmlns:cc="http://creativecommons.org/ns#"
   xmlns:rdf="http://www.w3.org/1999/02/22-rdf-syntax-ns#"
   xmlns:svg="http://www.w3.org/2000/svg"
   xmlns="http://www.w3.org/2000/svg"
   version="1.0"
   width="128"
   height="128"
   id="svg2">
  <defs
     id="defs4" />
  <metadata
     id="metadata7">
    <rdf:RDF>
      <cc:Work
         rdf:about="">
        <dc:format>image/svg+xml</dc:format>
        <dc:type
           rdf:resource="http://purl.org/dc/dcmitype/StillImage" />
        <dc:title></dc:title>
      </cc:Work>
    </rdf:RDF>
  </metadata>
  <path
     d="m 70.4,19.193869 c 0,-3.459751 -2.909523,-6.4 -6.6,-6.4 -4.382381,0 -6.2,3.978227 -6.2,6.4 0,2.421773 1.932954,6.4 6.2,6.4 3.575136,0 6.6,-2.94025 6.6,-6.4 z M 70.4,51.2 c 0,-3.45975 -2.909523,-6.4 -6.6,-6.4 -4.382381,0 -6.2,3.978227 -6.2,6.4 0,2.421754 1.932954,6.4 6.2,6.4 3.575136,0 6.6,-2.940269 6.6,-6.4 z m 0,31.963219 c 0,-3.45975 -2.909523,-6.4 -6.6,-6.4 -4.382381,0 -6.2,3.978227 -6.2,6.4 0,2.421754 1.932954,6.4 6.2,6.4 3.575136,0 6.6,-2.940269 6.6,-6.4 z"
     id="path3120" />
</svg>
