<?xml version="1.0" encoding="UTF-8" standalone="no"?>
<!-- Created with Inkscape (http://www.inkscape.org/) -->

<svg
   xmlns:dc="http://purl.org/dc/elements/1.1/"
   xmlns:cc="http://creativecommons.org/ns#"
   xmlns:rdf="http://www.w3.org/1999/02/22-rdf-syntax-ns#"
   xmlns:svg="http://www.w3.org/2000/svg"
   xmlns="http://www.w3.org/2000/svg"
   version="1.0"
   width="128"
   height="128"
   id="svg2">
  <defs
     id="defs4" />
  <metadata
     id="metadata7">
    <rdf:RDF>
      <cc:Work
         rdf:about="">
        <dc:format>image/svg+xml</dc:format>
        <dc:type
           rdf:resource="http://purl.org/dc/dcmitype/StillImage" />
        <dc:title></dc:title>
      </cc:Work>
    </rdf:RDF>
  </metadata>
  <g
     transform="matrix(-5.9583402,0,0,5.9596784,127.3659,0.54027645)"
     id="text3320"
     style="font-size:16px;font-style:normal;font-variant:normal;font-weight:bold;font-stretch:normal;text-align:start;line-height:125%;letter-spacing:0px;word-spacing:0px;writing-mode:lr-tb;text-anchor:start;fill:#000000;fill-opacity:1;stroke:none;font-family:msbm10;-inkscape-font-specification:msbm10 Bold" />
  <g
     transform="scale(6.4,6.4)"
     id="text3097"
     style="font-size:20px;font-style:normal;font-variant:normal;font-weight:normal;font-stretch:normal;text-align:start;line-height:125%;letter-spacing:0px;word-spacing:0px;writing-mode:lr-tb;text-anchor:start;fill:#000000;fill-opacity:1;stroke:none;font-family:msam10;-inkscape-font-specification:msam10">
    <path
       d="m 6.5800781,16 0,-0.703125 c 1.373692,10e-7 2.0605403,-0.211588 2.0605469,-0.634766 l 0,-2.734941 -5.0976562,0 c -0.058595,4e-6 -0.1139338,-0.02604 -0.1660157,-0.07813 -0.052085,-0.05208 -0.078126,-0.100908 -0.078125,-0.146485 l 0,-0.355018 c -1.3e-6,-0.03906 0.027668,-0.08951 0.083008,-0.151368 0.055337,-0.06184 0.109048,-0.09277 0.1611329,-0.09277 l 5.0976562,0 0,-0.562383 -1.6141995,-2.6326938 -3.4834569,0 c -0.052085,8.2e-6 -0.1057958,-0.027661 -0.1611329,-0.083008 -0.05534,-0.05533 -0.083009,-0.099275 -0.083008,-0.1318359 l 0,-0.3682321 c -1.3e-6,-0.045564 0.02604,-0.097648 0.078125,-0.15625 0.052082,-0.058585 0.1074204,-0.087882 0.1660157,-0.087891 l 2.9767873,0 L 4.4023437,3.6367188 C 4.1940082,3.3698043 3.9140606,3.2037888 3.5625,3.1386719 3.2109363,3.0735806 2.7649732,3.0410286 2.2246094,3.0410156 l 0,-0.703125 c 0.1822912,1.37e-5 0.4378248,0.0049 0.7666015,0.014648 0.3287748,0.00978 0.6575505,0.019545 0.9863282,0.029297 0.3287737,0.00978 0.5843073,0.014662 0.7666015,0.014648 0.2213512,1.36e-5 0.5257129,-0.00487 0.913086,-0.014648 0.3873657,-0.00975 0.7747351,-0.019518 1.1621093,-0.029297 0.3873646,-0.00975 0.6884711,-0.014635 0.9033203,-0.014648 l 0,0.703125 C 6.7981723,3.0410286 6.3359332,3.1940232 6.3359375,3.5 c -4.3e-6,0.039075 0.016272,0.091158 0.048828,0.15625 l 2.1041995,3.4248538 3.145117,0 1.781934,-2.8779788 c 0.0716,-0.1301964 0.10741,-0.2701702 0.107422,-0.4199219 C 13.523426,3.5162885 13.409494,3.325859 13.181641,3.2119141 12.953765,3.0979947 12.693349,3.0410286 12.400391,3.0410156 l 0,-0.703125 c 0.16926,1.37e-5 0.4134,0.0049 0.732422,0.014648 0.318998,0.00978 0.633126,0.019545 0.942382,0.029297 0.309233,0.00978 0.558256,0.014662 0.747071,0.014648 0.169257,-0.0065 0.348294,-0.013007 0.537109,-0.019531 0.188789,-0.0065 0.36457,-0.013007 0.527344,-0.019531 0.162746,-0.0065 0.29621,-0.01138 0.40039,-0.014648 0.104153,-0.00324 0.260402,-0.00487 0.46875,-0.00488 l 0,0.703125 c -0.520847,1.3e-5 -1.005873,0.092786 -1.455078,0.2783203 -0.449231,0.1855594 -0.804049,0.7511154 -1.064453,1.1417281 l -1.623379,2.6200398 2.824551,0 c 0.05207,8.7e-6 0.105781,0.027678 0.161133,0.083008 0.05532,0.055347 0.08299,0.109058 0.08301,0.1611328 l 0,0.3682321 c -1.4e-5,0.039071 -0.02931,0.084644 -0.08789,0.1367187 -0.05861,0.052092 -0.110691,0.078133 -0.15625,0.078125 l -3.324902,0 -1.792285,2.9101656 0,0.284913 5.117187,0 c 0.04556,5e-6 0.09764,0.0293 0.15625,0.08789 0.05858,0.0586 0.08788,0.110681 0.08789,0.15625 l 0,0.355018 c -1.4e-5,0.05209 -0.02768,0.102544 -0.08301,0.151367 -0.05535,0.04883 -0.109063,0.07325 -0.161133,0.07324 l -5.117187,0 0,2.734941 c -9e-6,0.423178 0.686839,0.634767 2.060546,0.634766 l 0,0.703125 c -0.208343,0 -0.501312,-0.0049 -0.878906,-0.01465 -0.377613,-0.0098 -0.756845,-0.01953 -1.137695,-0.0293 -0.3808675,-0.0098 -0.6754636,-0.01465 -0.8837892,-0.01465 -0.2083407,0 -0.5013091,0.0049 -0.8789063,0.01465 -0.3776104,0.0098 -0.7568418,0.01953 -1.1376953,0.0293 C 7.0830027,15.995117 6.7884067,16 6.5800781,16 z m 3.4765629,-6.3574219 1.090302,-1.7342579 -2.1248825,0 z"
       id="path3104" />
  </g>
</svg>
